<svg width="8" height="8" fill="none" xmlns="http://www.w3.org/2000/svg"><path fill-rule="evenodd" clip-rule="evenodd" d="M4.251 7.857c-.044.06-.126.143-.25.143-.125 0-.207-.083-.251-.143a.936.936 0 01-.117-.236c-.065-.18-.12-.43-.167-.73a17.792 17.792 0 01-.172-2.184 17.795 17.795 0 01-2.185-.172c-.3-.047-.55-.103-.73-.167a.937.937 0 01-.236-.117C.083 4.207 0 4.125 0 4s.083-.207.143-.25a.937.937 0 01.236-.118c.18-.064.43-.12.73-.167.562-.088 1.325-.15 2.185-.172.022-.86.084-1.622.172-2.184.047-.3.102-.55.167-.73A.937.937 0 013.75.143C3.794.083 3.876 0 4 0c.125 0 .207.083.251.143a.937.937 0 01.117.236c.065.18.12.43.167.73.088.562.15 1.325.172 2.184.86.023 1.622.084 2.184.172.3.047.55.103.73.167.089.032.172.07.236.117.06.044.143.126.143.251s-.083.207-.143.25a.936.936 0 01-.236.118c-.18.064-.43.12-.73.167-.562.088-1.324.15-2.184.172-.022.86-.084 1.622-.172 2.184-.047.3-.102.55-.167.73a.937.937 0 01-.117.236z" fill="#BB9A3B"/></svg>