<svg xmlns="http://www.w3.org/2000/svg" width="21.574" height="21.373" fill="none"><path d="M15.155 2.192h3.701c.278 0 .505.227.505.505V6.4a.506.506 0 01-.505.505h-.337a.506.506 0 01-.504-.506V4.49l-4.018 4.017a6.042 6.042 0 011.325 3.781 6.03 6.03 0 01-1.22 3.646l3.918 3.918a.897.897 0 01-1.269 1.269l-3.929-3.93a6.06 6.06 0 01-8.46-8.46l-4.11-4.11A.897.897 0 011.52 3.354L5.619 7.45a6.03 6.03 0 013.646-1.22c1.43 0 2.742.497 3.782 1.326l4.017-4.018h-1.91a.506.506 0 01-.505-.505v-.336c0-.277.227-.504.506-.504zM5.328 9.697a4.695 4.695 0 00-.775 2.591A4.706 4.706 0 009.265 17a4.694 4.694 0 002.592-.774l-6.53-6.53zm7.812 5.275l-6.56-6.56a4.694 4.694 0 012.684-.835 4.706 4.706 0 014.711 4.711 4.694 4.694 0 01-.836 2.684z" clip-rule="evenodd" fill="#2c6973" fill-rule="evenodd"/></svg>