<svg xmlns="http://www.w3.org/2000/svg" width="23" height="23.5" fill="none"><path d="M2.571.348a.983 1.016 0 000 1.435l3.352 3.462a6.634 6.853 0 004.8 10.588v3.089H8.327a.554.573 0 00-.554.571v.381c0 .314.25.571.554.571h2.396v2.475c0 .314.248.57.552.57h.369a.565.565 0 00.554-.571v-2.474h2.396a.564.564 0 00.552-.572v-.38a.554.573 0 00-.554-.571h-2.394v-3.09a6.585 6.802 0 002.919-1.09l5.526 5.709a.983 1.016 0 001.39-1.436l-5.454-5.634A6.636 6.856 0 007.24 3.734L3.96.347a.983 1.016 0 00-1.39 0zm4.42 6.001A5.145 5.315 0 006.3 9.022a5.155 5.324 0 005.16 5.33 5.01 5.01 0 002.588-.715zm8.542 5.95L8.285 4.817A5.14 5.31 0 0111.46 3.69a5.155 5.324 0 015.16 5.333 5.143 5.312 0 01-1.088 3.279z" clip-rule="evenodd" fill="#2c6973" fill-rule="evenodd"/></svg>