<svg fill="none" height="18" width="18" xmlns="http://www.w3.org/2000/svg"><path d="M9 15.125c.29 0 .468-.193.546-.3.088-.12.153-.265.203-.404.102-.285.187-.671.257-1.118.124-.796.213-1.855.25-3.046 1.191-.037 2.25-.126 3.047-.25.446-.07.832-.156 1.117-.258.14-.05.285-.114.405-.202.107-.079.3-.257.3-.547s-.193-.467-.3-.546a1.597 1.597 0 00-.404-.203 6.447 6.447 0 00-1.118-.256c-.796-.125-1.856-.214-3.047-.25-.037-1.192-.126-2.251-.25-3.048a6.446 6.446 0 00-.257-1.117 1.596 1.596 0 00-.203-.405c-.078-.107-.256-.3-.546-.3-.29 0-.468.193-.546.3-.088.12-.153.265-.203.405a6.446 6.446 0 00-.257 1.117c-.125.797-.213 1.856-.25 3.047-1.191.037-2.25.126-3.047.25-.446.07-.833.155-1.118.257-.139.05-.284.115-.404.203-.107.079-.3.257-.3.546s.193.468.3.547c.12.088.265.152.404.202.285.102.672.187 1.118.257.796.125 1.856.214 3.047.25.037 1.192.125 2.25.25 3.047.07.447.155.833.257 1.118.05.14.115.284.203.404.078.107.256.3.546.3z" stroke="#fff"/></svg>