<svg width="36" height="36" fill="none" xmlns="http://www.w3.org/2000/svg"><path d="M.7 10.8c0-2.553.853-5.1 2.328-6.995C4.496 1.917 6.555.7 9 .7c2.598 0 3.86.428 4.915.85l.331.134c.994.407 1.995.816 3.754.816s2.76-.41 3.754-.816l.331-.134C23.14 1.128 24.402.7 27 .7c2.445 0 4.504 1.217 5.972 3.105C34.447 5.7 35.3 8.247 35.3 10.8c0 1.803-.43 3.976-1.088 5.925-.666 1.972-1.524 3.597-2.307 4.38-.323.323-.59.82-.824 1.348a22.717 22.717 0 00-.723 1.935c-.232.695-.47 1.46-.714 2.248l-.032.104c-.257.826-.522 1.678-.801 2.514-.56 1.682-1.161 3.254-1.826 4.397-.332.571-.66 1-.977 1.278-.313.273-.577.371-.808.371-1.825 0-2.843-.683-3.481-1.653-.679-1.032-.975-2.46-1.137-4.02-.065-.622-.107-1.243-.149-1.853l-.03-.436c-.05-.737-.11-1.459-.219-2.09-.107-.617-.276-1.23-.598-1.702-.353-.516-.883-.846-1.586-.846-.703 0-1.233.33-1.586.846-.322.472-.49 1.085-.598 1.703-.11.63-.168 1.352-.22 2.089l-.03.436c-.04.61-.083 1.23-.148 1.853-.162 1.56-.458 2.988-1.137 4.02-.638.97-1.656 1.653-3.481 1.653-.23 0-.495-.097-.808-.371-.318-.279-.645-.707-.977-1.278-.665-1.143-1.265-2.715-1.826-4.397-.279-.836-.544-1.688-.8-2.514l-.033-.104a118.13 118.13 0 00-.714-2.248 22.708 22.708 0 00-.723-1.936c-.233-.527-.501-1.024-.824-1.347-.783-.783-1.641-2.408-2.307-4.38C1.13 14.775.7 12.603.7 10.8z" fill="#fff" stroke="#034752" stroke-width="1.4"/></svg>