<svg data-name="Layer 1" xmlns="http://www.w3.org/2000/svg" viewBox="0 0 34.458 30.249"><path data-name="logoMark &lt;PathItem&gt;" d="M24.969 25.753a1.963 1.963 0 10-1.955-1.963 1.958 1.958 0 001.955 1.963zM15.803 25.575a2.424 2.424 0 00-1.99 2.819 2.456 2.456 0 003.092 1.498 2.424 2.424 0 001.99-2.819 2.44 2.44 0 00-3.092-1.498zM7.274 26.86a3.048 3.048 0 003.234-2.819 3.048 3.048 0 00-3.234-2.82 3.048 3.048 0 00-3.234 2.82 3.048 3.048 0 003.234 2.819zM7.664 16.724c1.066-1.677.32-4.032-1.67-5.316-1.99-1.25-4.442-.928-5.508.713-1.066 1.677-.32 4.032 1.67 5.317s4.442.964 5.508-.713zM11.855.096C9.83-.439 7.591 1.31 6.845 4.057s.284 5.424 2.31 5.96 4.264-1.214 5.01-3.961c.782-2.748-.284-5.425-2.31-5.96zM23.84 9.175c2.83-1.92 4.155-4.918 2.958-6.698s-4.461-1.668-7.292.25-4.154 4.917-2.957 6.697 4.462 1.67 7.292-.25zM27.635 18.545c3.768 0 6.823-1.502 6.823-3.354s-3.055-3.354-6.823-3.354-6.823 1.501-6.823 3.354 3.054 3.354 6.823 3.354z"/></svg>