<svg clip-rule="evenodd" fill-rule="evenodd" height="306" image-rendering="optimizeQuality" shape-rendering="geometricPrecision" text-rendering="geometricPrecision" width="306" xmlns="http://www.w3.org/2000/svg"><clipPath id="a"><path d="M144.3 295.63h143.56V51.57c0-10.53-8.61-19.14-19.14-19.14H163.44c-10.53 0-19.14 8.61-19.14 19.14zm-144.53 0h143.57V104.21H18.91c-10.53 0-19.14 8.61-19.14 19.14v172.28z"/></clipPath><clipPath id="b"><path d="M144.3 295.63h143.56V51.57c0-10.53-8.61-19.14-19.14-19.14H163.44c-10.53 0-19.14 8.61-19.14 19.14zm-144.53 0h143.57V104.21H18.91c-10.53 0-19.14 8.61-19.14 19.14v172.28z"/></clipPath><g clip-path="url(#a)"><path d="M-.23 32.43h288.09v263.2H-.23z" fill="none"/></g><g clip-path="url(#b)" fill="#ee895d" fill-rule="nonzero"><path d="M140.18 233.28c-3.44 1.42-6.88 2.83-10.4 4.18-1.96-5.4 5.81-14.64 15.33-16.59-2.02 4.79-3.57 8.43-5.06 12.07zm1.69-7.02l.27-.47-.47-.07zM69.4 248.8c3.71-3.11 7.76-6.55 12.9-10.87 1.48 2.97 3.31 5.87 4.12 9.11.13.68-3.58 2.43-6.96 4.59-1.76-.47-5.81-1.62-10.06-2.83zM-5.64 192.06c6.41-4.45 12.83-8.91 19.25-13.36.54.81 1.15 1.55 1.69 2.36-6.22 4.79-12.43 9.58-18.65 14.37-.74-1.15-1.48-2.22-2.29-3.37zM262.91 220.26c.61 1.14 1.15 2.29 1.75 3.44-2.29-.34-4.59-.61-7.56-1.01 2.84-4.46 4.73-7.42 6.62-10.46.4.13.81.34 1.15.47l-1.62 7.49c-.14-.2-.34-.34-.48-.47.07.2.14.34.14.54zM243.73 232.67c2.77-1.21 5.47-2.43 8.24-3.64.54 1.01 1.15 1.95 1.69 2.97-1.62 1.34-3.18 2.69-4.8 4.04l.2.27c-.67-.74-1.35-1.41-2.02-2.16l.34.34c-1.29-.74-2.57-1.41-3.92-2.16zM104.11 221.94v9.11c-5.74-4.52-5.74-4.52 0-9.11zM131.47 199.68c-.74 8.64-2.09 10.12-8.98 7.89 3.44-2.83 6.35-5.26 9.25-7.62zM115.47 207.57c1.28-2.36 2.63-4.78 3.92-7.15.81.48 1.62.88 2.43 1.35-1.08 2.57-2.23 5.06-3.31 7.63-1.08-.68-2.03-1.29-3.04-1.83zM147.95 219.92c-1.82-.54-3.58-1.15-5.41-1.69.14-.81.34-1.61.48-2.36 1.89.27 3.71.61 5.6.88-.2 1.08-.4 2.16-.67 3.17zM276.49 213.17c.41 6.48-3.11 2.7-5.34 2.3l-.13.33c1.76-.87 3.58-1.75 5.34-2.63zM240.82 225.66c-1.82-.21-3.71-.48-5.53-.68 0-.47-.07-.94-.07-1.42h5.81c-.07.75-.14 1.42-.21 2.1zM74.26 188.82c1.42.34 2.84.68 4.32 1.01-.07.54-.13 1.08-.2 1.69-1.49-.14-2.9-.2-4.39-.34.07-.81.13-1.55.27-2.36zM214.88 244.21c-1.56-.2-3.04-.41-6.55-.88 2.97-1.55 4.45-2.29 5.94-3.1.14 1.41.27 2.76.41 4.18.06.07.2-.2.2-.2zM223.53 232c-.81-.95-1.28-1.62-1.82-2.23.61-.34 1.28-.81 1.89-.88.41-.06 1.22.75 1.15.95-.14.67-.61 1.28-1.22 2.16zM281.69 200.09c-.81-1.22-1.63-2.37-2.5-3.58.67-.4 1.28-.81 1.96-1.15.6 1.35 1.28 2.7 1.89 4.05-.48.21-.88.47-1.35.68zM125.79 195.03c-2.97-1.82-4.12-2.57-5.33-3.24 1.01-.34 2.09-.81 3.11-.81.4 0 .74 1.28 2.22 4.05zM199.69 234.43c-.21.47-.34 1.14-.68 1.28-.34.13-.88-.27-1.35-.41.2-.47.27-1.21.68-1.41.26-.14.94.33 1.35.54zM110.26 185.99c-.41.27-.81.6-1.22.87-.27-.6-.61-1.21-.88-1.82.48-.2 1.08-.6 1.42-.47.34.07.48.88.68 1.42z"/><path d="M131.74 200.02c.34-.95.61-1.89.95-2.83.61.8 1.28 1.61 1.89 2.49-1.01.07-2.03.07-3.11.14 0-.14.27.2.27.2zM269.73 206.63c-1.14.61-2.29 1.21-3.44 1.89-.27-.41-.47-.74-.74-1.15 1.08-.81 2.09-1.62 3.17-2.36.34.47.68 1.01 1.01 1.62zM112.83 205.82c.61 1.01 1.35 1.69 1.28 2.23-.13.54-1.21 1.35-1.62 1.21-.61-.27-1.22-1.14-1.35-1.82-.07-.27.95-.88 1.69-1.62zM100.73 212.5c-1.15.61-1.82.94-2.5 1.28-.33-.67-.81-1.35-.87-2.09 0-.27.94-1.01 1.28-.95.67.27 1.15.95 2.09 1.76zM92.77 219.25c.68-1.08 1.42-2.16 2.09-3.24.34.4.68.81 1.08 1.21-1.14.61-2.29 1.22-3.44 1.89 0-.07.27.14.27.14zM88.24 186.46c-.41.34-.74.67-1.15 1.01-.27-.47-.61-.88-.81-1.35-.07-.13.47-.61.54-.61.47.27.95.61 1.42.95zM103.65 202.52v-.68c.33.13.67.27 1.01.34-.13.2-.2.54-.4.54-.14.07-.41-.13-.61-.2zM137.89 216.75c-.54.2-1.01.54-1.42.4-.27-.06-.34-.87-.54-1.34.41-.14.95-.61 1.22-.48.33.34.47.95.74 1.42zM102.36 236.58c-.2.48-.4.95-.6 1.42-.48-.2-1.22-.34-1.29-.67-.13-.48.27-1.02.47-1.56.48.34.95.61 1.42.81zM199.14 238.81c-.2.47-.4.95-.54 1.48-.4-.27-1.01-.47-1.14-.87-.14-.34.33-.88.47-1.35.4.2.81.47 1.21.74zM201.45 245.83c-.07-1.01-.21-2.03-.27-3.04.6.07 1.28.07 1.89.14-.21 1.01-.41 1.95-.61 2.97-.27-.07-.61-.07-1.01-.07zM187.13 247.45c1.15 0 2.36 0 3.51.06l.07-.2h-3.85zM90.67 249.87c-.27-.47-.48-.87-.75-1.35.61-.33 1.22-.67 1.83-.94.13.47.54 1.15.34 1.42-.27.4-.95.54-1.42.87zM86.22 252.77c.47.21.87.34 1.28.54-.2.48-.27 1.29-.61 1.35-.4.14-.94-.33-1.42-.47.27-.54.48-.94.75-1.42zM140.05 233.01c.41 0 .88.07 1.28.07-.4.07-.74.07-1.15.13 0 .07-.13-.2-.13-.2zM214.75 233.08c-.2.07-.47.2-.47.14-.14-.21-.14-.48-.21-.68.27-.07.55-.14.82-.14-.07.14-.07.41-.14.68zM120.66 232.13l.14.75-.47-.14zM104.11 221.95c1.35-.14 2.63-.21 3.98-.34v.94c-1.35-.2-2.7-.4-3.98-.6zM252.44 216.89c-.2-.14-.34-.27-.54-.41.2-.07.41-.27.61-.2.2 0 .34.27.54.41-.2 0-.41.06-.61.2zM117.55 216.41l.61-.13-.07.47zM280.61 212.5l.74.34-.74.2zM152.21 213.11c-.27.06-.47.2-.74.27l-.21-1.02c.27.07.54 0 .75.14.2.07.13.4.2.61zM90.19 214.52c0-.8-.06-1.62-.06-2.49.2 0 .47.07.67.07-.27.67-.61 1.41-.88 2.09.07.06.27.33.27.33zM276.42 213.24c.07-.74.13-1.55.2-2.29-.07.74-.07 1.48-.13 2.22zM282.7 205.08l.68.34-.74.2zM113.84 202.65c-.13.2-.34.47-.47.67-.14-.27-.34-.54-.27-.81 0-.27.27-.47.47-.67.07.27.2.54.27.81zM67.84 188.55l.74-.2-.13.54zM122.35 184.77c-.27.2-.47.61-.67.61-.47-.14-.95-.47-1.42-.68.2-.2.47-.6.61-.6.54.13 1.01.4 1.48.67zM22.72 175.53c-.34.34-.68.74-1.08.88-.14.06-.54-.54-.68-.88-.06-.07.34-.54.41-.54.47.07.88.27 1.35.54zM287.9 290.29c.74-.61 1.55-1.15 2.3-1.76.2.48.4.88.67 1.35-1.01.07-2.09.14-3.11.2 0 .07.14.21.14.21zM88.44 259.59c-.27.14-.47.34-.67.27-.21 0-.41-.27-.61-.4.2-.14.47-.34.67-.27.21 0 .41.27.61.4zM207.25 244.55c-.47.2-.95.4-1.49.47-.13 0-.33-.41-.54-.61.48-.2.95-.4 1.42-.47.2-.07.41.34.61.61zM214.75 237.46l-.47-.47c.2-.07.41-.27.61-.27.2.07.34.27.47.47-.2.07-.4.21-.61.27zM230.49 235.3c-.47.2-.95.41-1.42.47-.13 0-.34-.4-.54-.6.47-.2.95-.41 1.42-.47.13-.07.34.33.54.6zM94.73 235.1c-.41.2-.81.47-1.29.61-.06 0-.33-.41-.47-.61.47-.2.88-.47 1.35-.67.07 0 .27.4.41.67zM271.15 215.47c.07.2.14.41.21.61.07-.27.13-.47.2-.75-.13.14-.34.28-.54.48 0 .07.13-.34.13-.34zM132.82 162.98c-.2-.2-.54-.47-.47-.67 0-.21.4-.41.61-.61.2.2.54.47.47.67 0 .21-.41.41-.61.61zM93.18 192.73c-.14-.06-.34-.06-.48-.13.07.13.14.27.21.4 0-.2.07-.33.07-.54zM113.3 222.42l-.21-.68.61.07z"/><path d="M-.23 199.11c16.34-7.71 32.38-15.22 48.42-22.7.54.94 1.08 1.82 1.62 2.76-5.13 5.13-10.27 10.19-15.47 15.32.47.74 1.01 1.41 1.49 2.16 7.43-3.11 14.79-6.28 24.18-10.26-1.15 5.4-1.69 7.89-2.16 9.85 6.08-.67 11.75-1.28 18.5-2.02-10.13 9.58-18.64 17.6-27.08 25.63.74 1.08 1.48 2.16 2.23 3.24 13.91-10.12 27.83-20.24 41.74-30.36l-.2-.27 5.67-.81c.41.48.81 1.02 1.15 1.49-4.19 4.45-8.38 8.83-12.56 13.29-.61-.47-1.22-1.01-1.83-1.49-.13 1.83-.2 3.65-.4 5.4-.21 1.75-.48 3.51-.75 5.8 2.16-.6 4.06-1.08 5.88-1.55l-.2-.27c.94 1.69 1.89 3.31 2.77 4.99l-.27-.27c-7.43 12.82-18.51 21.46-30.33 29.22-2.16 5.12-4.39 10.18-7.43 17.06 6.15-1.55 9.59-2.42 11.68-2.96-1.89-6.08-3.17-10.12-4.45-14.17 4.39 4.11 11.88 5.46 11.48 14.03-.41.34-.74.68-1.15 1.08.34.07.74.2 1.08.27l-.2-1.55c2.5-1.15 5-2.36 7.5-3.51 1.21 8.77-2.3 12.75-10.34 11.6l-.2-.27.47.41c-2.63 1.42-5.27 2.77-7.9 4.18 17.49 5.6 17.56 5.6 26.81-8.57.34-.47.81-1.08 1.29-1.21 13.3-3.17 19.45-15.92 28.97-24.15.61-.54 1.63-.54 2.5-.68.81-.13 1.62 0 3.65 0-5.2 6.14-9.73 11.47-14.32 16.87.54.61 1.08 1.15 1.55 1.75 16.01-8.63 29.52-23.47 48.7-24.42-.4 5.87-.74 10.66-1.08 15.38-.54 1.02-1.08 2.09-1.62 3.11-2.63-4.66-5.81-6.21-10.2-2.3-.13 1.22-.27 2.36-.4 3.58-.88-.07-1.83-.14-2.7-.2 0 .26 0 .54-.07.87.88-.27 1.69-.54 2.56-.87.21-1.15.41-2.23.61-3.38 3.72-.54 5.95 6.21 10.34 2.36.47-1.08.88-2.22 1.35-3.3 3.85-.47 7.7-.95 11.75-1.42-3.38 7.29-3.38 7.29 11.48 6.34 1.15-2.36 2.17-4.45 3.24-6.61l-.26-.2h3.85l-.07.2c2.36-.94 4.79-1.82 7.16-2.76.47.4.94.87 1.35 1.28-3.78 3.24-7.57 6.54-11.42 9.78-2.29 1.75-4.66 3.57-6.82 5.26 2.16 1.42 4.73 3.17 7.36 4.93 0 .06-.06.13-.13.27.13-.14.2-.27.34-.41 1.35-.13 2.7-.2 3.64-.34-1.55-3.37-3.04-6.54-4.45-9.64 5.06 1.82 10.06 3.71 16.07 5.87v-8.44c1.69.14 3.45.27 5.27.41l-1.69-1.69.07.07c3.92-1.49 7.9-2.97 12.9-4.86-2.57-1.35-3.99-2.09-5.47-2.83l-.14.2c7.1-3.85 14.12-7.96 21.42-11.4 2.16-1.01 5.06-.27 7.56-.41l-.2-.33c1.28.74 2.56 1.41 3.91 2.16l-.33-.34c.67.74 1.35 1.41 2.02 2.16l-.2-.27c7.9 5.26 13.64-1.08 19.72-4.32 6.49-3.41 12.89-6.98 19.28-10.57v62.1c-4.05 2.64-8.09 5.3-12.12 7.97-1.27.85-2.12 2.31-3.4 4.2H-.23v-96.52zm275.55 96.52c4.55-1.83 8.53-3.44 12.54-5.06v5.06zm12.54-5.13l-.09-.15.09.13zm-118.57-20.45c-.67 1.48-1.35 2.9-2.02 4.38.67.2 1.28.34 1.96.54v-4.99c.6-.88 1.21-1.75 1.89-2.63.87.47 1.75.94 2.56 1.42 2.44.13 4.93.26 7.37.33l-.21-2.43c-2.43.75-4.86 1.42-7.29 2.1.07-.95.2-1.89.27-2.84-.95.54-1.89 1.08-2.84 1.62-.47.81-1.08 1.62-1.69 2.5zM60.34 223.7c1.22.67 2.44 1.28 3.72 1.96.14-.54.27-1.02.47-1.56-1.35-.13-2.77-.27-4.05-.33 0 1.41 0 2.76-.07 4.18-3.04 1.82-6.08 3.57-9.12 5.4.88.81 1.69 1.68 2.57 2.49 2.16-2.63 4.39-5.33 6.55-8.03-.13-1.34-.13-2.69-.07-4.11zm174.34 42.23c-2.37.68-4.73 1.35-7.1 2.02.48.88.95 1.83 1.42 2.7 1.83-1.68 3.65-3.3 5.47-4.92.81-.14 1.56-.2 2.37-.34-.14-.27-.27-.47-.41-.74-.61.4-1.15.81-1.75 1.28zM54.67 290.22c-1.08-.81-1.96-1.69-2.16-1.55-.74.54-1.42 1.35-1.69 2.22-.13.34 1.08 1.62 1.22 1.56.81-.48 1.48-1.22 2.63-2.23zm102.74-12.35c.06.75.06 1.49.13 2.23 1.08-.34 2.23-.61 3.31-1.01.07 0-.07-1.15-.2-1.15-1.08-.14-2.16-.07-3.24-.07zM54.6 270.72c2.37 1.42 3.04 1.82 3.79 2.09.13.07.87-1.01.74-1.28-.34-.67-.88-1.48-1.55-1.69-.61-.2-1.42.34-2.98.88zm88.01-14.71c-.4-.4-.74-.81-1.14-1.21-.88.81-1.69 1.69-2.57 2.5.27.33.54.67.81 1.01.95-.74 1.96-1.55 2.9-2.3zm-16.27 14.04c-.27-.61-.55-1.22-.81-1.76-1.02.74-2.1 1.49-3.11 2.23.2.34.4.74.54 1.08 1.15-.54 2.3-1.08 3.38-1.55zm138.87-19.3c.4-.2.81-.4 1.21-.6-.13-.21-.4-.61-.47-.55-.47.14-.88.41-1.28.61.2.14.33.34.54.54zM49.34 274.43l.47.34.07-.54z"/></g><path d="M144.3 295.63h143.56V51.57c0-10.53-8.61-19.14-19.14-19.14H163.44c-10.53 0-19.14 8.61-19.14 19.14zm-144.53 0h143.57V104.21H18.91c-10.53 0-19.14 8.61-19.14 19.14v172.28z" fill="none"/><g fill="#034752" fill-rule="nonzero"><path d="M158.11 280.3H11.41V104.89c0-6.12 2.51-11.68 6.54-15.72l.02-.02c4.04-4.03 9.6-6.54 15.72-6.54h127.55V280.3zm-140.44-6.26h137.31V88.87H33.69c-4.41 0-8.41 1.8-11.31 4.7l-.01.01c-2.9 2.89-4.7 6.9-4.7 11.31z"/><path d="M302.64 280.3h-146.7V33.1c0-6.13 2.5-11.7 6.54-15.73 4.03-4.04 9.6-6.54 15.73-6.54h105.28c6.13 0 11.7 2.5 15.74 6.54 4.03 4.03 6.54 9.6 6.54 15.73v247.2zm-140.44-6.26h137.31V33.1c0-4.4-1.81-8.4-4.71-11.3-2.9-2.91-6.91-4.71-11.31-4.71H178.21c-4.4 0-8.4 1.8-11.3 4.71-2.91 2.9-4.71 6.9-4.71 11.3zM114.31 203.73H58.35v70.31h55.96zm-59.09-6.26h65.35v82.83H52.09v-82.83zM112.87 131.94H56.92v22.46h55.95zm-59.08-6.26h65.34v34.98H50.66v-34.98z"/><path d="M251.65 131.94h-41.59v22.46h41.59zm-44.72-6.26h50.98v34.98H203.8v-34.98zM251.65 203.73h-41.59v22.45h41.59zm-44.72-6.26h50.98v34.97H203.8v-34.97zM206.93 68.26h47.85v6.26h-47.85z"/><path d="M227.72 95.31V47.46h6.26v47.85z"/></g></svg>