<svg clip-rule="evenodd" fill-rule="evenodd" height="306" image-rendering="optimizeQuality" shape-rendering="geometricPrecision" text-rendering="geometricPrecision" width="306" xmlns="http://www.w3.org/2000/svg"><clipPath id="a" clip-rule="nonzero"><path d="M305.77 112.79c0-3.38-2.74-6.12-6.13-6.12h-94.18c-3.38 0-6.13-2.75-6.13-6.13V6.36c0-3.39-2.74-6.13-6.12-6.13h-80.88a6.13 6.13 0 00-6.13 6.13v94.18c0 3.38-2.74 6.13-6.12 6.13H5.9c-3.39 0-6.13 2.74-6.13 6.12v80.88a6.13 6.13 0 006.13 6.13h94.18a6.12 6.12 0 016.12 6.12v94.18a6.13 6.13 0 006.13 6.13h80.88c3.38 0 6.12-2.74 6.12-6.13v-94.18c0-3.38 2.75-6.12 6.13-6.12h94.18a6.13 6.13 0 006.13-6.13z"/></clipPath><clipPath id="b" clip-rule="nonzero"><path d="M305.77 112.79c0-3.38-2.74-6.12-6.13-6.12h-94.18c-3.38 0-6.13-2.75-6.13-6.13V6.36c0-3.39-2.74-6.13-6.12-6.13h-80.88a6.13 6.13 0 00-6.13 6.13v94.18c0 3.38-2.74 6.13-6.12 6.13H5.9c-3.39 0-6.13 2.74-6.13 6.12v80.88a6.13 6.13 0 006.13 6.13h94.18a6.12 6.12 0 016.12 6.12v94.18a6.13 6.13 0 006.13 6.13h80.88c3.38 0 6.12-2.74 6.12-6.13v-94.18c0-3.38 2.75-6.12 6.13-6.12h94.18a6.13 6.13 0 006.13-6.13z"/></clipPath><g clip-path="url(#a)"><path d="M-.23.23h306v306h-306z" fill="none"/></g><g clip-path="url(#b)" fill="#048b76" fill-rule="nonzero"><path d="M258.15 48.17c2.37 2.04 4.71 4.15 7.08 6.19-.43.24-.95.46-1.39.69-9.82-2.18-19.8-3.84-29.25-6.84-2.22-.7-2.62-5.97-3.91-9.15l-.11.25c.96-.9 1.93-1.79 2.86-2.73l-.04.02c8.28 3.88 16.62 7.73 24.91 11.61-.04.39-.16.76-.2 1.15.09-.42.06-.83.05-1.19zm-17.56-1.68c.04-3.29.22-4.24-.03-5.16-.08-.26-1.59-.49-1.66-.39-.57.93-1.31 2.01-1.24 2.95 0 .69 1.22 1.19 2.93 2.6zM148.65 281.33c3.19 1.59 6.43 3.16 9.62 4.75-.33.67-.63 1.39-.96 2.06-3.38-1.24-6.75-2.48-10.11-3.8.47-1 .98-2.02 1.45-3.01zM108.18 258.78c2.54.16 5.09.32 7.61.55-.04.03.13-.13.13-.13-.75 2.01-1.48 4.01-2.31 6.31-1.97-2.57-3.65-4.74-5.34-6.9zM6.07 156.51c-3.98 1.41-7.16 1.84-4.28-4.95 1.4 1.76 2.86 3.5 4.23 5.22.05-.03.05-.27.05-.27zM176.26 97.54c1.9 1.62 3.77 3.32 5.67 4.94-.43.48-.84 1.01-1.28 1.49-2.03-1.3-4.12-2.57-6.15-3.87.59-.88 1.14-1.73 1.76-2.56zM17.15 144.23c-2.47.94-4.89 1.86-8.89 3.42 4.47-6.06 4.47-6.06 8.87-3.22zM174.47 53.73c-.13-2.32-.24-4.61-.42-6.91.67-.05 1.36-.18 2.02-.23.08 2.23.12 4.49.2 6.73-.57.12-1.18.27-1.8.41zM155.99 110.28c-.43 2.7-.83 5.32-1.34 8.56-6.69-4.24-.59-5.97 1.17-8.41zM210.83 120.63c1.59 1.29 3.22 2.56 4.81 3.85-.53.66-1.06 1.32-1.58 1.97a238.25 238.25 0 01-5.14-3.31c.67-.85 1.29-1.68 1.91-2.51zM279.15 45.3c1.8 0 3.59.07 5.39.06-.04.52-.05 1.08-.13 1.62-1.85.03-3.68.11-5.49.12.06-.59.17-1.21.23-1.8zM245.63 176.57c-1.99-1.01-4.02-2.07-6.01-3.08.42-.73.88-1.4 1.25-2.1 1.92.99 3.82 2.05 5.75 3.04-.31.72-.61 1.44-.99 2.14zM181.97 44.55c.2 1.74.39 3.49.7 6.27-4.68-2.57-4.8-4.29-.4-6.19l-.3-.08zM250.4 37.65c1.9-.1 3.81-.28 5.71-.39-.38 1.63-.79 3.2-1.16 4.83-1.34-1.06-2.69-2.17-4.03-3.24l.25.11c-.26-.47-.54-1-.8-1.47z"/><path d="M250.97 38.87c-.39.89-.78 1.79-1.21 2.64-.73-.78-1.48-1.48-2.21-2.25.97-.53 1.94-1.06 2.9-1.59v-.24c.25.47.54 1 .8 1.47zM60.31 260c-1.22.3-2.36.62-3.58.91.11-.86.18-1.64.29-2.5 1.11.56 2.22 1.12 3.29 1.59zM9.4 157.64c-1.11-.44-2.22-.88-3.38-1.3-.02.08-.04.27-.02.32 1.04-1.56 2.05-3.17 3.11-4.8.57.12 1.14.24 1.65.39-.44 1.85-.94 3.61-1.36 5.39 0 0-.05.02 0 0zM211.66 114.97c-1.33-.7-2.44-.89-2.68-1.44-.21-.62.41-1.57.68-2.34.78.26 1.91.26 2.25.75.33.5-.07 1.52-.25 3.03zM178.6 95.04c-1.21-.83-2.04-1.06-2.25-1.56-.24-.67.01-1.6.04-2.36.65.27 1.48.38 1.86.85.33.37.18 1.13.35 3.07zM55.73 110.32c-.82 1.5-1.14 2.67-1.65 2.76-.72.16-1.71-.29-2.42-.7-.18-.09.18-1.52.59-1.69.75-.35 1.68-.24 3.48-.37zM231.51 33.1c-.5-.91-1.02-1.86-1.51-2.76.67.07 1.32.09 1.99.16-.23.86-.48 1.67-.71 2.53l.23.07zM163.39 98.91c-1.44.8-2.92 1.63-4.36 2.43-.19-.82-.4-1.58-.59-2.4 1.63.02 3.3.02 4.92.05zM152.15 106.46c-.86-.89-1.78-1.44-1.64-1.76.25-.81.97-1.45 1.52-2.19.48.42 1.42.77 1.38 1.16-.15.76-.67 1.54-1.26 2.79zM191.45 40.5c-2.05-.3-4.09-.6-6.18-.87l.18-1.4c.83-.21 1.69-.37 2.52-.58l-.3-.08c.79.19 1.58.37 2.32.58l-.22-.06c.49.9.93 1.84 1.39 2.69zM98.36 265.75c.07-1.03.17-2.01.19-3.02.72.29 1.44.58 2.13.94-.72.64-1.48 1.31-2.2 1.95zM173.34 91.19c-.99-.2-1.93-.18-2.08-.47-.19-.45.16-1.2.32-1.84.42.08 1.11.08 1.31.34.29.4.26 1.03.45 1.97zM108.27 258.72c-1.14-.56-2.22-1.15-3.35-1.71.46-.43.9-.91 1.31-1.32.64 1.07 1.27 2.09 1.92 3.15.02.05.12-.12.12-.12zM14.55 149.96c-.22-.31-.45-.62-.7-.97.41-.17.77-.43 1.16-.52.1-.05.45.37.38.47-.19.35-.52.66-.84 1.02zM180.11 41.92c-.79-.63-1.57-1.25-2.35-1.88.58-.31 1.19-.7 1.78-1.02.12 1.04.32 2.1.45 3.14zM72.03 140.48c.36-.5.71-1 1.12-1.41.09-.06.94.47.92.54-.21.55-.57 1.05-.89 1.61-.35-.18-.65-.39-1.15-.74zM182.38 96.64c-.76.11-1.2.1-1.67.17.14-.57.17-1.21.4-1.71.1-.17 1.18-.14 1.23-.05.13.49 0 1.05.04 1.59z"/><path d="M233.42 36.54c-.6-1.16-1.19-2.32-1.84-3.44-.02-.05-.23-.07-.26-.11.65 1.25 1.3 2.5 2 3.72zM67.5 141c-.47.07-.93.14-1.32.23.01-.44-.17-1.02.02-1.24.19-.23.85-.16 1.27-.21.03.42.04.78.03 1.22zM237 35.56c.41-1.09.8-2.11 1.21-3.2.4.27.77.5 1.17.78-.79.74-1.53 1.46-2.34 2.15zM136.2 279.18c-1.11-.88-1.86-1.21-2.14-1.73-.21-.38.04-1.44.36-1.55.51-.22 1.43-.16 1.85.16.28.16.01 1.05-.07 3.12zM123.43 257.44c-.74 1.08-1.21 1.71-1.68 2.34-.43-.32-1.17-.65-1.18-1.02-.04-.54.31-1.28.77-1.72.21-.18 1.03.18 2.09.4zM260.83 42.4c.98.52 1.93.99 2.91 1.51-.37.25-.75.59-1.12.84-.54-.75-1.1-1.55-1.65-2.31zM182.63 33.14c-.52.78-1.08 1.6-1.59 2.38-.25-.23-.5-.47-.74-.71.78-.5 1.54-1.05 2.33-1.67zM155.79 144.12c-.15-1.09-.3-2.18-.42-3.21.41-.05 1.15-.2 1.18-.15.25 1.03.37 2.07.5 3.11-.39.09-.79.18-1.26.25zM55.93 138.79c.03.41.19.94 0 1.17s-1.02.31-1.1.17c-.23-.31-.12-.8-.15-1.21.34-.07.76-.11 1.25-.13zM229.74 136.74c-.26.33-.54.61-.76.91-.32-.25-.65-.5-1-.8.29-.28.62-.84.77-.79.39.03.67.43.99.68zM163.66 140.5c-.17.04-.46.07-.48.02-.06-.09-.09-.39-.02-.49s.34-.06.49-.02c.01.13.03.3.01.49zM180.69 118.92c-.32-.13-.86-.33-.87-.45.09-.42.35-.75.59-1.12l1.26.6c-.38.33-.64.66-.98.97zM161.46 92.92c-.16.39-.3.72-.44 1.04-.47-.18-.99-.32-1.46-.5.22-.3.42-.84.69-.93.34-.07.77.26 1.21.39zM54.15 267.28c.44 0 .93-.14 1.25-.01.15.04.19.82.07.95-.31.23-.76.23-1.17.27-.04-.41-.07-.83-.15-1.21zM79.5 144.34c-.3-.2-.85-.52-.83-.72.09-.42.52-.78.76-1.15.35.3.87.57.88.94.06.21-.55.6-.81.93zM179.57 112.86c.41-.04.75-.1 1.17-.15.03.42.22.99.05 1.15-.27.21-.78.18-1.24.25-.04-.41-.02-.85.02-1.25zM230.68 39.29c-1.45-.25-2.92-.55-4.37-.81l-.09.3c1.45.25 2.9.51 4.42.78-.05.03.04-.27.04-.27zM60.87 253.29c.71-.07 1.15-.07 1.62-.14-.14.57-.15 1.25-.45 1.73-.12.25-.85.16-1.32.23.06-.59.1-1.23.15-1.82zM93.63 263.59c.06-.71.09-1.47.19-2.2.39.03.78.06 1.13.12-.4.65-.8 1.31-1.2 1.96zM190.08 156.88c.35.18.97.39.92.54-.08.54-.44 1.04-.68 1.54-.27-.28-.67-.55-.73-.89-.01-.37.28-.77.49-1.19zM184.38 42.08c.72.72 1.47 1.49 2.18 2.21-.39.21-.76.47-1.15.67-.33-.92-.68-1.91-1.03-2.88zM114.68 269.87c-.78.75-1.6 1.53-2.41 2.23-.2-.26-.35-.56-.57-.87.95-.41 1.95-.84 2.98-1.36 0 0-.05.03 0 0z"/><path d="M182.56 33.23c-.75-.77-1.47-1.61-2.22-2.38.3-.16.62-.39.91-.55.45.93.93 1.9 1.31 2.93 0 0 .02-.08 0 0zM184.39 42.12c-.88.79-1.82 1.61-2.7 2.41l.34.06c-.66-.88-1.29-1.83-1.98-2.75l-.09.18c1.55.08 2.99.09 4.43.1zM100.28 259.78c-.35-.18-.68-.32-1.02-.5.26-.45.56-.92.82-1.37.25.23.75.45.76.69.01.37-.35.75-.56 1.18zM33.82 139.38c-.13.44-.3.84-.46 1.24-.45-.25-.89-.5-1.29-.77.26-.33.47-.76.79-.87.24-.13.61.22.96.4zM158.54 107.87l.44-.36.08.39zM165.74 91.11c.12-.01.34-.06.37-.02.08.15.06.34.14.49-.13 0-.4.09-.42.04-.08-.14-.06-.34-.09-.51zM163.3 98.97c-.19-.57-.36-1.09-.55-1.66.22.49.41 1.06.63 1.56zM110.15 267.83c-.32-.01-.66.05-1.01-.01-.07-.02-.13-.48-.06-.58.26-.21.58-.32.84-.4.08.27.14.6.23.99zM107.52 263.5c-.15-.04-.52-.02-.57-.12-.11-.31-.07-.7-.13-1.04.31.21.63.34.91.62.02.05-.14.32-.21.54zM44.07 142.09l.01-.68.46.49zM118.29 260.88c-.84-.59-1.69-1.11-2.48-1.73.05-.03-.13.12-.1.05.84.59 1.72 1.16 2.58 1.68 0 0-.02.08 0 0zM120.69 264.92c-.78-1.36-1.62-2.7-2.4-4.06.84 1.34 1.62 2.7 2.48 4.09-.02.07-.08-.03-.08-.03zM127.01 261.22c.29-.04.6-.15.9-.19-.08-.15-.21-.26-.31-.45-.19.23-.42.48-.59.76zM47.28 257.78c-.24.38-.42.85-.73 1.08-.29.16-.75-.01-1.14-.04.23-.38.37-.83.68-1.06.28-.16.8-.01 1.19.02zM60.34 260c.39.47.86.96 1.25 1.42-.42-.51-.86-.95-1.25-1.42 0 0-.03-.04 0 0zM93.85 263.44c.11.31.22.62.33.92-.16-.28-.29-.51-.45-.8-.05.03.12-.12.12-.12zM98.6 265.59c.05.33.14.72.19 1.05.2-.1.38-.14.57-.24-.25-.23-.58-.48-.88-.69-.05.03.12-.12.12-.12zM254.89 44.53c-.2-.01-.44 0-.64-.02.04-.39.15-.76.19-1.15.22.06.57.12.57.12.01.37-.06.71-.12 1.05zM260.94 42.5c-.34.06-.65.17-.99.23.1.2.23.31.33.5.16-.27.4-.53.56-.8zM225.82 46.43c-.22-.06-.46-.17-.63-.26.26-.33.49-.71.8-1.06.05-.03.37.22.59.28-.28.41-.5.71-.76 1.04zM216.72 129.19c-.24.01-.46.07-.7.08.16-.28.35-.63.51-.9.17.09.35.18.54.31-.11.13-.26.33-.35.51zM199.7 30.83c-.14-.6-.2-1.18-.34-1.79.43.45.88.82 1.31 1.26l.14-.32c-.48.26-.97.53-1.46.79zM186.09 51.31c-.42-.2-1.04-.29-1.15-.6-.11-.44.22-.99.36-1.43.33.25.81.43.96.71.13.36-.1.86-.17 1.32z"/><path d="M200.67 30.26l3.56-.3-.01-.25c-1.14.07-2.25.2-3.38.27zM190.38 120.67c.17-.15.31-.36.48-.39.05-.02.23.19.35.3-.17.16-.26.33-.48.39-.12.01-.22-.18-.35-.3zM175.33 86.82c-.38-.22-.85-.4-1.03-.73-.1-.19.35-.63.54-.97.33.25.82.35.93.66.08.27-.25.69-.44 1.04zM237.18 35.34c-1.29.47-2.55 1-3.89 1.5l.05-.03.43.01s-.27-.29-.32-.26l-.06.23c1.22-.38 2.51-.73 3.77-1.13-.09-.07.02-.32.02-.32zM187.14 95.07c.17-.03.44-.12.49-.02.1.19.11.43.14.6-.17.03-.49.15-.54.05-.08-.14-.09-.39-.09-.63zM234.68 27.61c-.04.27-.08.66-.18.71-.39.1-.83.09-1.24.14 0-.25.01-.69.08-.67.44-.12.88-.11 1.34-.18zM189.67 50.07c-.08-.14-.21-.26-.29-.4.13.12.33.26.46.38-.02.07-.17.02-.17.02zM154.53 122.42c-.22-.06-.54-.07-.64-.26-.08-.14.14-.44.2-.66.23.06.55.07.65.26.08.14-.14.44-.21.66zM155.65 110.43c.04-.15.11-.25.11-.37-.03.07-.02.2 0 .25.05-.03-.11.12-.11.12zM151.33 110.91c-.22-.07-.37-.11-.59-.17.1-.18.11-.49.26-.57.14-.08.37.1.56.12-.06.22-.16.4-.23.62zM7.64 142.49l.34-.44.18.46zM69.2 137c-.17.03-.37.01-.54.04.04-.26.09-.54.13-.81.22.07.54.08.62.22.07.02-.14.32-.21.55zM260.97 39.33c-.22-.07-.54-.08-.62-.22-.07-.14.12-.37.18-.59.23.06.55.07.6.17.1.19-.06.46-.16.64zM253.26 32.36l-.31-.32.37-.14zM149.09 269.62c-.42-.52-.83-1.03-1.25-1.54.2-.11.38-.26.52-.34.15.6.28 1.19.45 1.84.05-.03.28.04.28.04zM196.83 39.77c.66.51 1.35 1.06 2.01 1.56-.22.18-.44.36-.61.52-.49-.66-.93-1.35-1.4-2.08 0 0-.05.03 0 0z"/><path d="M70.28 316.97c.91-1.21 1.88-2.5 2.89-3.83-3.82-6.93.76-12.19 12.81-13.44-1.09-10.38 6.95-8.22 12.17-8.47-2.23-3.53-4.46-7.07-7.52-11.88 3.97-.24 5.75-.78 7.17-.38 13.08 3.55 27.33 5.29 38.75 11.47 10.8 5.84 22.33 8.38 33.73 11.73 7.03 2.04 14.78 2.26 22.18 3.23.21-.42.42-.73.61-1.08-.21.43-.42.85-.56 1.29-1.29-1.33-2.32-3.23-3.94-3.89-8.94-3.58-18.08-6.81-27.73-10.44 1.7-.92 2.87-1.56 4.57-2.49-1.35-1.67-2.54-3.17-4.76-5.98 4.23.36 6.9.63 10.5.89-3.33-7.19-10.09-8.14-16.42-9.93-3.57-1.02-7.06-2.45-10.5-3.91-2.87-1.21-5.55-2.9-8.48-4.01-1.37-.55-3.07-.31-4.6-.46.16 1.7.33 3.4.61 5.89-5.94-.96-12.1-.93-15.72-6.67 2.45.45 4.83 1.13 7.35 1.24 2 .08 4.13-.52 7.28-1-3.71-2.3-5.96-3.66-8.24-5.07l.05.09c2.16-1.24 4.33-2.47 6.49-3.71v.12c2.85-.56 5.7-1.13 8.49-1.66-.15 1.56-.95 4.28-.4 4.59 4.52 2.17 9.32 3.81 13.98 5.66l-.23-.07c2.7 1.37 5.23 3.26 8.19 4.06 4.07 1.11 8.68 4.83 12.42-1.52-.24 1.55-.4 3.11-.63 4.66.78-.18 1.57-.36 2.31-.52-.6-1.33-1.23-2.6-1.83-3.94-6-2.58-11.97-5.32-18.09-7.66-5.18-1.99-10.57-3.44-15.86-5.18-21.85-12.16-42.71-25.96-68.23-31.74.23-.87.5-1.75.72-2.62 6.13.37 12.25.74 18.82 1.11 1.44-6.52-5.71-5.52-8.77-7.56-4.08-2.77-9.58-3.72-14.34-5.76-9.45-4.04-18.61-8.74-28.32-12.21-6.57-2.35-14.07-2.7-20.76-4.8-6.16-1.95-11.9-4.99-17.79-7.58.32-1.04.64-2.07 1.01-3.14 9.6 1.32 19.22 2.67 30.26 4.19-7.5-4.18-13.81-7.9-20.35-11.24-7.1-3.66-11.07-8.9-9.93-17.47 9.44.54 18.79 1.06 28.1 1.6.24-.62.47-1.24.7-1.85-5.02-1.71-10.05-3.42-15.05-5.07l-.04.02c3.36-3.55 10.53-2.77 11.3-9.35.82 1.03 1.61 2.02 2.45 2.98.5-.46 1.01-.92 1.51-1.38-1.32-.57-2.66-1.08-3.98-1.65-1-1.37-1.99-2.74-2.99-4.11l-.02.2c6.99.45 14.01.95 21 1.4 5.41.32 10.82.77 16.27.83.44 0 1.1-2.39 1.07-2.32 7.02.5 13.73.67 20.26 1.56 6.66.88 13.16 2.4 21.36 3.92-1.17-2.14-1.51-4.17-2.69-4.71-12.26-5.41-24.6-10.59-36.91-15.86-1.72-.73-3.22-1.76-5.85-3.23 10-1.67 17.63 7.62 28.04-.02-7.11-4.15-13.79-8.1-20.47-12.04.25-.7.58-1.37.84-2.06 4.49 1.07 9.12 1.82 13.44 3.29 12.36 4.19 24.72 8.5 36.92 13.08 13.54 5.09 27.01 10.27 40.17 16.06 3.25 1.44 5.26 5.28 7.82 8.01l.43.33-.43-.45c5.01 1.1 10.13 1.95 15.07 3.27 4.15 1.13 8.11 2.74 11.83 4.6 4.47 2.31 8.77 6.39 13.53 6.57 7.87.34 13.06 4.55 19.27 7.52 11.61 5.58 23.61 10.52 35.41 15.75 3.96 1.73 7.87 3.48 13.19 3.86-5.29-4.15-10.55-8.38-15.83-12.53.21-.43.45-.93.66-1.35l5.85.33c.41-.65.76-1.27 1.16-1.93-15.4-9.8-30.6-19.9-46.29-29.3-15.42-9.25-31.31-17.74-46.47-26.26-.33.43-1.91 2.27-3.95 4.68-3.26-5.08-2.68-8.53 1.39-11.73 4.08-3.27 7.01-2.52 8.24 2.17.35 1.47.93 3.81 1.99 4.03 13.94 3.15 21.4 16.42 35.77 19.2 5.2.99 9.06 6.47 13.92 9.38 8.91 5.39 18.01 10.42 27.18 15.48 6.55 3.59 13.25 6.97 19.87 10.46.45-.68.9-1.35 1.35-2.03-4.67-2.57-9.33-5.22-15.18-8.45 9.95-4.67 12.84 8.31 22.58 4.55-14.2-8.74-27.37-16.86-40.59-24.96.28-.89.52-1.82.8-2.71 2.63-.38 5.26-.76 9.28-1.35-.04.27.38-1.63 1.26-5.24-4.65 1.42-8.13 2.44-12.59 3.76-2.19-1.83-5.56-4.68-9.01-7.55.66-.3 1.32-.59 1.27-.57-3.85-4.07-7.83-8.26-11.83-12.49 3.95-2.83 3.08-4.2-.53-6.55-10.5-6.93-20.53-14.48-31.12-22.03 1.22-2.39 2.26-4.31 3.2-6.18-3.37-2.49-6.57-4.32-8.95-6.85-1.42-1.45-1.55-4.02-2.27-6.04 2.18-.75 4.44-2.04 6.61-2.11 3.35-.09 7.25 3.27 9.22-3.1-3.18-1.79-6.56-3.71-9.98-5.61 3.32-3.28 11.63-.41 11.8-8.33l.15.04c.6-2.48 1.13-4.99 1.71-7.52.97.27 1.89.57 2.83.8 3.24 8.4 11.28 4.53 17.57 6.22-1.17-7.25-5.29-10.43-11.72-11.25.1.07.2.14.32.25-.07-.14-.15-.28-.18-.45-1.02.56-2.04 1.11-3.07 1.67l-.02.07c.35-.87.7-1.73 1.05-2.6-.3-.09-.65-.14-.97-.28-.96 2.07-1.92 4.13-2.83 6.17-.97-.28-1.99-.53-3.01-.77.08-.67.14-1.37.22-2.03l-.19.22c.4-.77.83-1.49 1.23-2.27-.89-.13-1.73-.29-2.65-.47l.22.07c-.79-.19-1.59-.37-2.33-.58l.3.08c.92-2.72 1.79-5.41 2.71-8.13.55-1.66 1.25-3.27 2.24-5.85.94 1.96 2.01 4.16 3.04 6.3-1.18.83-2.4 1.74-3.58 2.57.45.37.88.69 1.33 1.06.76-1.27 1.47-2.52 2.23-3.8 1.41.4 2.83.81 4.24 1.21l-.3-.09c.32.94.69 1.85 1.01 2.78.07.03.12.12.18.22-.03-.17-.08-.27-.11-.44.29-2.13 6.55 1.5 3.78-3.6l.01.25c1.75 2.19 3.46 4.4 5.22 6.59-.04.63-.09 1.34-.13 1.98.64-.1 1.23-.18 1.84-.33-.5-.58-.99-1.12-1.54-1.68 4.04-2.88 8.09-5.76 13.93-9.86 1.04 5.16 1.8 8.88 2.53 12.55l.09-.29c-.74 1.76-1.46 3.57-2.09 5.08-2.58 1.4-5.31 2.89-7.98 4.34l-.15 2.86c15.79 3.31 31.65 6.64 47.81 10.05 3.48-6.95 7.03-5.98 13.57-3.8 7.29 2.38 13.89 9.33 23.31 5.19 1.98 2.13 3.5 4.94 5.97 6.25l1.53.75v252.02H70.28zM319.32 58.1c-.38-.27-.74-.58-1.06-.94-.76-.82-4.3.68-6.53 1.09-2.23-1.44-4.51-2.85-8.17-5.17 2.14-1.29 7.49-5.37 8.25-4.67 2.22 1.9 4.82 2.94 7.51 3.77zM16.81 161.95c-1.03.44-2 .84-3.03 1.28-.39-.84-.75-1.63-1.14-2.46-.73.4-1.46.79-2.24 1.22.25.23.53.51.78.74.48-.63.93-1.3 1.46-1.96.46.86.85 1.69 1.29 2.5 1-.48 1.9-.91 2.88-1.32.2.38.41.76.67 1.12-.21-.38-.47-.74-.67-1.12zM222.99 58.74c-.17-.09-.32-.13-.5-.22.2.02.37-.01.62-.03.2.02.35.06.57.13-.3.03-.52.09-.69.12zM42.44 148.32c.04-.15.06-.34.06-.47-.02.2-.02.32-.06.47.14-.2.28-.4.37-.58.1-.17.09-.41.16-.64-.18.47-.37.82-.53 1.22zm84.05-12.37c-.1-.07-.2-.14-.35-.18.08.14.2.26.28.4-1.36.74-2.7 1.53-4.06 2.27-.67-1.11-1.15-2.33-1.98-3.3-5.67-6.03-17.32-4.26-20.49-13.69-.07-.15-.89-.02-1.33-.02-.43-.32-.93-.67-1.36-.99-.11.37-.18.72-.26 1.13.54-.04 1.13-.12 1.67-.16-.17 1.32-.11 3.63-.48 3.77-2.01.47-4.48 1.02-6.08.28-2.12-1-3.63-3.2-6.58-5.97-.18 2.69-.89 4.98-.29 5.27 5.67 3.02 11.3 6.19 17.39 8.36 6.37 2.33 13.24 3.59 19.86 5.34 1.36-.86 2.75-1.67 4.06-2.51zm-11.35 27.75c-1.49-.43-2.98-.85-4.49-1.32-.04.64-.07 1.27-.1 1.91 1.44-.24 2.85-.45 4.25-.65.02.17.03.29.06.46.16-.15.21-.3.28-.4zM227.73 32.99c.19.57.37 1.15.49 1.71.26-.33.55-.61.81-.94-.52-.27-1.1-.51-1.62-.78 2.09-1.14 4.13-2.25 6.23-3.39-.23-.31-.51-.59-.76-.94-1.77 1.51-3.51 2.95-5.15 4.34zm-20.34 52.86c-.49-4.73-2.83-7.53-8.41-6.9 2.79 2.24 5.61 4.53 8.48 6.67.26-.32.47-.63.74-.95-.21.42-.53.77-.81 1.18zm-78.52 215.86c3.62 1.91 7.32 3.84 10.94 5.75.42-.96.86-2 1.28-2.97-4.06-.87-8.18-1.72-12.27-2.51-.07.1-.16.15-.24.25.1-.17.19-.35.29-.52zm-14.64-149.1c4.82 1.56 9.72 3.15 14.54 4.72 12.03 3.94 24.06 7.87 36.14 11.78.46-.68.91-1.35 1.36-2.03-1.07-1.27-1.85-3.06-3.27-3.71-6.01-2.83-12.08-5.76-18.4-7.87-5.99-1.98-12.68-2.35-18.43-4.7-4.79-1.96-8.26-1.86-11.94 1.81.03-.52.09-1.1-.06-.1-.22-.99-.05-.46.06.1zm91.82 22.6c.4-.65.78-1.34 1.18-2-1.49-1.59-2.68-3.9-4.63-4.69-8.29-3.44-16.57-7.2-25.33-9.4-5.71-1.45-8.52-3.38-6.52-10.38-2.54 1.94-3.97 3.02-5.35 4.08-1.59-1.42-2.9-2.55-4.21-3.69-.6.51-1.21 1.03-1.86 1.57 1.78 1.99 3.14 4.51 5.4 5.87 6.51 3.98 13.07 7.94 20.07 11.09 6.86 2.99 14.16 5.06 21.25 7.55zM93.88 221.25c-.45.79-.87 1.64-1.32 2.44 4.64 4.01 8.28 9.67 16.7 7.31 1.2-.34 2.8 1.32 4.31 1.91 9.5 3.9 18.8 8.27 31.81 7.73-18.47-6.97-34.97-13.22-51.5-19.39zm151.4-101.83c-.27.76-.57 1.61-.85 2.37-2.92-2.35-5.84-4.71-8.73-7.02-.25.81-.55 1.65-.8 2.47 2.64 4.05 2.64 4.05 10.38 2.18zm-102.8 27.06l-.75 2.45c2.57.45 5.18.94 7.75 1.39.21-.67.41-1.33.62-2-2.56-.64-5.09-1.24-7.62-1.84zm107.73-22.28c-.56-.69-1.12-1.37-1.71-2.1-1.64 1.27-3.33 2.56-4.96 3.87.46.62.92 1.23 1.38 1.84 1.75-1.2 3.54-2.42 5.29-3.61zm-52.99-70.43c-.15.89-.25 1.74-.37 2.67 1.94-.01 3.89-.02 5.87.02.1-.62.16-1.2.27-1.82-1.93-.3-3.86-.61-5.77-.87zm13.5 15.1c.2-.66.41-1.33.61-2-2.13-.56-4.29-1.18-6.43-1.74-.27.77-.53 1.58-.75 2.32 2.15.49 4.36.96 6.57 1.42zm-81.17 99.07l-.87 2.82c1.95-.01 3.88.05 5.84-.04.13 0 .23-.74.46-1.6-1.83-.36-3.65-.79-5.43-1.18zm25.09-18.45c-.6.51-1.21 1.02-1.79 1.59 1.41.96 2.89 1.94 4.31 2.83.11.07.66-.54 1.04-.88-1.16-1.21-2.37-2.4-3.56-3.54zm119.96 39.6c-.23.5-.45.92-.68 1.42 2.01.69 4.03 1.38 5.97 2.05-.84-2.13-2.35-3.04-3.92-3.85-.27-.15-.88.24-1.37.38zm-161.23-42.24c-.33-.38-.59-.73-.92-1.11-1.79 1.47-3.53 2.91-5.31 4.37.35.43.73.78 1.09 1.2 1.71-1.49 3.43-2.98 5.14-4.46zm-8.65 1.37c.54-.17 1.05-.39 1.54-.53.04-.63.38-1.62.08-1.83-.65-.51-1.69-.68-2.54-.96.32 1.06.62 2.19.92 3.32zM249.8 59.7c-.09.54-.22 1.1-.31 1.64l3.84-.24c-.09-.63-.16-1.33-.24-1.96-1.11.17-2.19.39-3.29.56zm-56.96 9.34c.01-.56.07-1.15.08-1.71-1.28.2-2.5.38-3.78.58.03.41.04.78.08 1.19 1.23-.05 2.41-.08 3.62-.06zm29.48 111.99c.31-.47.62-.95.93-1.42-.78-.63-1.61-1.23-2.39-1.85-.43.48-.84 1.01-1.27 1.49.93.55 1.83 1.17 2.73 1.78zm-4.39 94.79c.07-.47.13-.93.19-1.4-.69.01-1.45-.01-2.14 0-.07.34-.18.71-.25 1.06.74.09 1.44.2 2.2.34zm15.69-238.83l.51-1.62c-.4-.04-1.09-.27-1.24-.07-.41.4-.52 1.02-.77 1.59.44 0 .86.08 1.5.1zm-91.1 176.66c.06-.34.15-.64.22-.98-.79-.06-1.61-.17-2.45-.21-.04.27-.11.49-.15.76.82.11 1.58.25 2.38.43zm-17.57-45.24c.14-.2.45-.56.45-.56-.27-.28-.67-.55-1-.8-.15.2-.46.55-.43.6.32.25.65.51.98.76zm13.04-23.12c.21-.3.43-.6.62-.95-.18-.09-.53-.27-.58-.24-.29.28-.47.62-.69.93.25.11.47.17.65.26zm-32.86 15.41c-.15.08-.39.21-.39.33-.02.2.14.36.21.5.22-.18.46-.31.68-.49-.17-.09-.3-.21-.5-.34zm123.51-47.21c.32.25.7.48 1.05.78.16-.51.49-1.07.38-1.5-.03-.29-.77-.38-1.17-.53-.04.39-.17.83-.26 1.25zm89.95 47.73c-.17-.09-.32-.13-.54-.2-.02.32.01.61-.01.93.18-.03.45 0 .49-.15.15-.2.09-.41.06-.58zm-185.78-10.15c.06-.22.26-.45.18-.59-.08-.15-.4-.16-.57-.25-.07.23-.26.45-.19.6.08.14.4.15.58.24zm165.44 95.86c.1-.17.16-.4.26-.57-.23-.06-.43-.2-.57-.12-.15.08-.19.35-.29.52.23.06.42.08.6.17z"/></g><path d="M305.77 112.79c0-3.38-2.74-6.12-6.13-6.12h-94.18c-3.38 0-6.13-2.75-6.13-6.13V6.36c0-3.39-2.74-6.13-6.12-6.13h-80.88a6.13 6.13 0 00-6.13 6.13v94.18c0 3.38-2.74 6.13-6.12 6.13H5.9c-3.39 0-6.13 2.74-6.13 6.12v80.88a6.13 6.13 0 006.13 6.13h94.18a6.12 6.12 0 016.12 6.12v94.18a6.13 6.13 0 006.13 6.13h80.88c3.38 0 6.12-2.74 6.12-6.13v-94.18c0-3.38 2.75-6.12 6.13-6.12h94.18a6.13 6.13 0 006.13-6.13z" fill="none"/><path d="M284.13 116.83c0-.76-.31-1.46-.8-1.96-.5-.5-1.19-.81-1.96-.81h-84.96c-2.61 0-4.98-1.06-6.7-2.78a9.398 9.398 0 01-2.79-6.7V19.61c0-.76-.31-1.46-.8-1.96-.51-.49-1.2-.8-1.96-.8h-72.81c-.76 0-1.45.31-1.95.81-.5.49-.81 1.19-.81 1.95v84.97c0 2.61-1.07 4.99-2.78 6.7h-.02a9.425 9.425 0 01-6.69 2.78H14.14c-.77 0-1.47.31-1.96.8l-.01.01c-.49.49-.8 1.19-.8 1.96v72.81c0 .76.31 1.46.81 1.96.5.49 1.2.8 1.96.8H99.1c2.61 0 4.97 1.06 6.69 2.78h.02a9.478 9.478 0 012.78 6.71v84.96c0 .77.3 1.46.79 1.95l.02.02c.49.49 1.18.79 1.95.79h72.81c.77 0 1.46-.3 1.95-.79l.02-.02c.49-.49.79-1.18.79-1.95v-84.96c0-2.62 1.06-5 2.78-6.71a9.49 9.49 0 016.71-2.78h84.96c.77 0 1.46-.31 1.96-.8.5-.5.8-1.2.8-1.96zm3.95-6.71a9.437 9.437 0 012.78 6.71v72.81c0 2.61-1.06 4.97-2.78 6.69l-.01.02a9.49 9.49 0 01-6.7 2.78h-84.96c-.77 0-1.46.3-1.95.79v.01c-.5.5-.81 1.2-.81 1.96v84.96c0 2.6-1.06 4.97-2.78 6.69l-.02.02a9.484 9.484 0 01-6.69 2.78h-72.81c-2.6 0-4.97-1.07-6.7-2.78l-.01-.02a9.442 9.442 0 01-2.78-6.69v-84.96c0-.76-.31-1.46-.81-1.96-.49-.5-1.18-.8-1.95-.8H14.14c-2.62 0-5-1.07-6.71-2.78v-.02a9.425 9.425 0 01-2.78-6.69v-72.81c0-2.61 1.06-4.98 2.78-6.7l.01-.01a9.448 9.448 0 016.7-2.78H99.1c.77 0 1.46-.31 1.96-.81.49-.5.8-1.19.8-1.95V19.61c0-2.61 1.07-4.97 2.78-6.69v-.02a9.496 9.496 0 016.71-2.78h72.81c2.62 0 4.99 1.07 6.71 2.78v.02c1.71 1.72 2.78 4.08 2.78 6.69v84.97c0 .76.31 1.45.81 1.95v.01c.49.49 1.18.8 1.95.8h84.96c2.61 0 4.98 1.06 6.7 2.78z" fill="#034752" fill-rule="nonzero"/></svg>