<svg clip-rule="evenodd" fill-rule="evenodd" height="306" image-rendering="optimizeQuality" shape-rendering="geometricPrecision" text-rendering="geometricPrecision" width="306" xmlns="http://www.w3.org/2000/svg"><clipPath id="a"><path d="M259.34 200.2H24.49V75.8c0-13.68 11.12-24.88 24.72-24.88h185.41c13.59 0 24.72 11.2 24.72 24.88zm-234.85 0L-.23 249.96v24.88h284.29v-24.88l-24.72-49.76H24.49z"/></clipPath><clipPath id="b"><path d="M259.34 200.2H24.49V75.8c0-13.68 11.12-24.88 24.72-24.88h185.41c13.59 0 24.72 11.2 24.72 24.88zm-234.85 0L-.23 249.96v24.88h284.29v-24.88l-24.72-49.76H24.49z"/></clipPath><g clip-path="url(#a)"><path d="M-.23 50.92h284.29v223.92H-.23z" fill="none"/></g><g clip-path="url(#b)" fill="#2789c6" fill-rule="nonzero"><path d="M71.63 187.16c-3.54 1.45-7.08 2.91-10.69 4.29-2.01-5.54 5.97-15.03 15.75-17.04-2.08 4.92-3.68 8.66-5.2 12.4zm1.73-7.21l.28-.48-.49-.07zM-.23 202.38c3.58-3 7.51-6.34 12.39-10.44 1.53 3.05 3.4 6.03 4.23 9.36.14.69-3.67 2.49-7.14 4.71-1.69-.46-5.43-1.51-9.48-2.67v-.96zM284.35 200.73c-1.98 2.43-5.02 1.55-10.12-2.14l10.12-4.36zM197.7 173.78c.62 1.18 1.17 2.36 1.8 3.54-2.36-.35-4.72-.63-7.77-1.04 2.91-4.58 4.86-7.63 6.8-10.74.41.13.83.34 1.18.48-.56 2.56-1.11 5.13-1.67 7.69-.14-.2-.34-.34-.48-.48.07.21.14.35.14.55zM178 186.53c2.84-1.24 5.62-2.49 8.46-3.74.55 1.04 1.18 2.01 1.74 3.05-1.67 1.39-3.27 2.77-4.93 4.16l.21.28c-.7-.77-1.39-1.46-2.08-2.22l.34.34c-1.32-.76-2.63-1.45-4.02-2.21zM34.57 175.51v9.36c-5.9-4.64-5.9-4.64 0-9.36zM255.64 194.16c3.26-1.74 6.52-3.47 9.78-5.13.42.9.84 1.8 1.32 2.63-3.19 1.87-6.45 3.75-9.64 5.62-.49-1.04-.97-2.08-1.46-3.12zM62.68 152.65c-.77 8.87-2.15 10.39-9.23 8.1 3.54-2.91 6.52-5.4 9.5-7.83zM46.24 160.75c1.32-2.42 2.7-4.92 4.02-7.34.83.48 1.67.9 2.5 1.38-1.11 2.64-2.29 5.2-3.4 7.83-1.11-.69-2.08-1.31-3.12-1.87zM231.63 144.19c-.76 2.56-1.52 5.13-2.36 7.69-.83-.34-1.66-.62-2.49-.97.9-2.63 1.87-5.19 2.77-7.83.7.35 1.39.69 2.08 1.11zM241.96 243.92c-1.87 1.66-3.75 3.33-5.48 4.78-.21-7-.21-7 5.76-4.71zM244.39 258.26c-1.11-2.42-2.22-4.85-3.33-7.27.9-.21 1.87-.49 2.78-.7.2 2.64.41 5.27.55 7.97zM79.6 173.44c-1.87-.56-3.67-1.18-5.55-1.74.14-.83.35-1.66.49-2.42 1.94.27 3.82.62 5.76.9-.21 1.11-.42 2.22-.7 3.26zM242.46 274.83c-.63-2.01-1.18-3.96-1.81-5.97.77-.34 1.53-.69 2.36-1.03.9 1.87 1.81 3.74 2.71 5.61-1.11.48-2.22.97-3.26 1.39zM211.65 166.5c.42 6.66-3.19 2.78-5.48 2.36l-.14.35c1.8-.9 3.68-1.8 5.48-2.71zM175.01 179.33c-1.87-.21-3.81-.49-5.69-.7 0-.48-.07-.97-.07-1.45h5.97c-.07.76-.14 1.45-.21 2.15zM3.9 141.49c1.46.34 2.92.69 4.44 1.04-.06.55-.13 1.11-.2 1.73-1.53-.14-2.99-.21-4.51-.35.07-.83.14-1.59.27-2.42zM254.04 198.66c-1.46.97-2.92 1.87-4.44 2.84-.35-.55-.63-1.18-.97-1.73 1.46-.9 2.98-1.8 4.44-2.77.34.55.62 1.11.97 1.66zM148.36 198.38c-1.6-.2-3.13-.41-6.73-.9 3.05-1.59 4.58-2.35 6.1-3.18.14 1.45.28 2.84.42 4.29.07.07.21-.21.21-.21zM157.25 185.84c-.83-.97-1.32-1.66-1.87-2.29.62-.34 1.31-.83 1.94-.9.41-.07 1.25.76 1.18.97-.14.69-.63 1.32-1.25 2.22zM216.98 153.06c-.83-1.25-1.66-2.42-2.56-3.67.69-.42 1.32-.83 2.01-1.18.63 1.38 1.32 2.77 1.94 4.16-.48.21-.9.48-1.39.69zM56.84 147.86c-3.05-1.87-4.23-2.63-5.48-3.32 1.05-.35 2.15-.84 3.19-.84.42 0 .77 1.32 2.29 4.16zM132.75 188.34c-.21.48-.35 1.18-.69 1.31-.35.14-.91-.28-1.39-.41.21-.49.28-1.25.69-1.46.28-.14.97.35 1.39.56zM40.88 138.57c-.41.28-.83.63-1.25.91-.27-.63-.62-1.25-.9-1.88.49-.2 1.11-.62 1.46-.48.35.07.49.9.69 1.45z"/><path d="M62.95 152.99c.35-.97.63-1.94.98-2.91.62.83 1.31 1.66 1.94 2.57-1.04.06-2.08.06-3.19.13 0-.13.27.21.27.21zM204.71 159.78c-1.18.62-2.36 1.25-3.54 1.94-.28-.41-.49-.76-.76-1.18 1.11-.83 2.15-1.66 3.26-2.42.34.49.69 1.04 1.04 1.66zM43.53 158.95c.62 1.04 1.38 1.73 1.31 2.29-.14.55-1.25 1.38-1.66 1.24-.63-.27-1.25-1.17-1.39-1.87-.07-.27.97-.9 1.74-1.66zM31.1 165.81c-1.18.63-1.87.97-2.57 1.32-.35-.69-.83-1.39-.9-2.15 0-.28.97-1.04 1.32-.97.69.28 1.18.97 2.15 1.8zM22.92 172.74c.69-1.1 1.46-2.21 2.15-3.32.35.41.7.83 1.11 1.24-1.18.63-2.36 1.25-3.54 1.95 0-.07.28.13.28.13zM235.86 265.82c.9-.49 1.74-1.11 2.64-1.46.21-.07.69.77 1.04 1.25-.97.56-1.94 1.18-2.91 1.73-.21-.55-.49-1.04-.77-1.52zM18.27 139.06c-.42.35-.77.69-1.18 1.04-.28-.48-.63-.9-.84-1.39-.06-.14.49-.62.56-.62.48.28.97.62 1.46.97zM222.12 272.12c1.39-.62 2.85-1.24 4.23-1.94.07.56.14 1.11.28 1.67-1.46 0-2.91 0-4.37.07-.07.07-.14.2-.14.2zM34.09 155.56v-.7c.35.14.7.28 1.05.35-.14.21-.21.56-.42.56-.14.07-.42-.14-.63-.21zM250.16 264.29c-.07.28-.14.56-.28.84-.42-.21-.76-.49-1.18-.7.35-.28.7-.55 1.04-.83.21.21.28.49.42.69zM244.39 258.26c1.32-.41 2.57-.83 3.89-1.31.07.55.14 1.11.21 1.59-1.39-.07-2.71-.21-4.1-.28zM69.27 170.18c-.56.21-1.04.55-1.46.41-.28-.07-.35-.9-.55-1.38.41-.14.97-.63 1.25-.49.34.35.48.97.76 1.46zM32.77 190.55c-.2.49-.41.98-.62 1.46-.49-.21-1.25-.35-1.32-.69-.14-.49.28-1.04.49-1.6.48.35.97.62 1.45.83zM132.19 192.84c-.21.48-.41.97-.55 1.53-.42-.28-1.04-.49-1.18-.91-.14-.34.35-.9.49-1.38.41.2.83.48 1.24.76zM134.56 200.05c-.07-1.04-.21-2.08-.28-3.12.63.07 1.32.07 1.94.14-.21 1.04-.41 2.01-.62 3.05-.28-.07-.62-.07-1.04-.07zM119.85 201.71c1.18 0 2.43 0 3.61.07l.07-.21h-3.96zM20.76 204.21c-.28-.49-.48-.9-.76-1.39.62-.35 1.25-.69 1.87-.97.14.49.56 1.18.35 1.46-.28.41-.97.55-1.46.9zM16.19 207.19c.48.2.9.34 1.32.55-.21.48-.28 1.32-.63 1.39-.41.14-.97-.35-1.46-.49.28-.55.49-.97.77-1.45zM236.35 271.99c-.14-.14-.35-.28-.49-.42.35.07.77.07 1.12.14-.28.14-.49.21-.63.28zM253.42 258.19l.76-.2-.07.62zM71.49 186.88c.42 0 .9.07 1.32.07-.42.07-.77.07-1.18.14 0 .07-.14-.21-.14-.21zM148.23 186.95c-.21.07-.49.21-.49.14-.14-.2-.14-.48-.21-.69.28-.07.56-.14.84-.14-.07.14-.07.42-.14.69zM51.57 185.98l.14.77-.48-.14zM34.57 175.51c1.39-.13 2.7-.2 4.09-.34v.97c-1.39-.21-2.77-.42-4.09-.63zM186.95 170.32c-.22-.14-.35-.28-.56-.42.21-.07.41-.28.62-.2.21 0 .35.27.56.41-.21 0-.42.07-.62.21zM48.38 169.83l.62-.14-.07.49zM215.88 165.81l.76.35-.76.21zM83.98 166.44c-.28.07-.49.21-.77.27-.06-.34-.13-.69-.2-1.04.28.07.55 0 .76.14.21.07.14.42.21.63zM20.28 167.89c0-.83-.08-1.66-.08-2.56.21 0 .49.07.7.07-.28.69-.62 1.45-.9 2.14.07.07.28.35.28.35zM211.58 166.57c.07-.76.14-1.59.21-2.35-.07.76-.07 1.52-.14 2.29zM218.03 158.19l.7.35-.77.2zM44.57 155.69c-.14.21-.35.49-.49.7-.14-.28-.35-.56-.28-.84 0-.27.28-.48.49-.69.07.28.21.56.28.83zM53.31 137.33c-.28.21-.48.62-.7.62-.48-.14-.97-.48-1.45-.69.21-.21.48-.63.62-.63.56.14 1.05.42 1.53.7zM251.75 253.9c-.21-.07-.55-.14-.55-.28 0-.28.13-.55.2-.83.21.07.56.14.56.28.07.27-.07.55-.21.83zM223.37 245.72c.77-.62 1.6-1.18 2.36-1.8.21.48.42.9.69 1.39-1.04.07-2.15.13-3.19.2 0 .07.14.21.14.21zM18.47 214.19c-.27.14-.48.34-.69.27-.21 0-.42-.27-.62-.41.2-.14.48-.35.69-.28.21 0 .42.28.62.42zM140.52 198.73c-.48.21-.97.42-1.53.49-.13 0-.34-.42-.55-.63.48-.21.97-.41 1.46-.48.2-.07.41.34.62.62zM148.23 191.46l-.49-.49c.21-.07.42-.28.63-.28.21.07.35.28.49.49-.21.07-.42.21-.63.28zM164.39 189.24c-.48.2-.97.41-1.45.48-.14 0-.35-.41-.56-.62.49-.21.97-.42 1.46-.49.14-.07.35.35.55.63zM24.93 189.03c-.41.21-.83.49-1.32.62-.07 0-.34-.41-.48-.62.48-.21.9-.49 1.39-.69.06 0 .27.41.41.69zM242.25 243.99c-.21.07-.42.07-.63.14.14.14.21.28.35.49 0-.21-.07-.49-.07-.7.07 0 .35.07.35.07zM206.17 168.86l.21.63c.07-.28.14-.49.21-.77-.14.14-.35.28-.56.49 0 .07.14-.35.14-.35zM64.06 114.94c-.21-.2-.55-.48-.48-.69 0-.21.42-.42.62-.62.21.2.56.48.49.69 0 .21-.42.42-.63.62zM23.34 145.51c-.14-.07-.35-.07-.49-.14l.21.42c0-.21.07-.35.07-.56zM44.01 176l-.21-.69.63.07z"/><path d="M-.23 147.72l6.29-.69-6.29 5.94v-5.25zm0 14.97l23.63-17.18-.21-.28c1.95-.28 3.89-.56 5.83-.83.42.48.83 1.04 1.18 1.52-4.3 4.58-8.6 9.08-12.91 13.66-.62-.49-1.24-1.05-1.87-1.53-.14 1.87-.2 3.74-.42 5.55-.2 1.8-.48 3.6-.76 5.95 2.22-.62 4.17-1.1 6.04-1.59l-.21-.28c.97 1.74 1.94 3.4 2.84 5.13l-.27-.27C16.77 182.65 8.7 190.23-.23 196.81v-34.12zm0 45.92c2.05 1.89 3.49 4.34 3.3 8.28-.41.35-.76.69-1.18 1.11.35.07.77.21 1.11.28-.07-.56-.14-1.04-.21-1.6 2.57-1.18 5.14-2.43 7.7-3.6 1.25 9.01-2.35 13.09-10.61 11.92l-.11-.15v.49l.39-.2-.39-.34v-16.19zm0 23.21c10.53 2.95 11.92.9 19.81-11.19.35-.48.84-1.11 1.32-1.25 13.67-3.25 19.99-16.35 29.77-24.81.62-.55 1.67-.55 2.57-.69.83-.14 1.66 0 3.75 0-5.35 6.31-10 11.78-14.71 17.33.55.62 1.1 1.17 1.59 1.8 16.45-8.87 30.32-24.12 50.03-25.09-.42 6.03-.76 10.95-1.11 15.8-.56 1.04-1.11 2.15-1.67 3.19-2.7-4.78-5.97-6.38-10.47-2.36-.15 1.25-.28 2.43-.42 3.68-.9-.07-1.87-.14-2.78-.21 0 .28 0 .55-.06.9.9-.28 1.73-.56 2.63-.9.21-1.18.42-2.29.63-3.47 3.81-.55 6.1 6.38 10.61 2.43.49-1.11.9-2.29 1.39-3.4 3.95-.48 7.91-.97 12.07-1.45-3.47 7.48-3.47 7.48 11.8 6.51 1.18-2.42 2.22-4.57 3.33-6.79l-.28-.21h3.95l-.06.21c2.42-.97 4.92-1.87 7.35-2.84.49.42.97.9 1.39 1.31-3.89 3.33-7.77 6.73-11.73 10.05-2.36 1.8-4.79 3.68-7.01 5.41 2.22 1.46 4.86 3.26 7.57 5.06 0 .07-.07.14-.14.28.14-.14.21-.28.34-.42 1.39-.14 2.78-.21 3.75-.35-1.59-3.46-3.12-6.72-4.58-9.91 5.21 1.88 10.34 3.81 16.52 6.03v-8.66c1.73.14 3.54.28 5.41.42l-1.74-1.74.07.07c4.03-1.52 8.12-3.05 13.26-4.99a406.2 406.2 0 00-5.63-2.91l-.13.21c7.28-3.95 14.5-8.18 21.99-11.71 2.22-1.04 5.21-.28 7.77-.42l-.2-.35c1.31.77 2.63 1.46 4.02 2.22l-.35-.34c.7.76 1.39 1.45 2.08 2.21l-.2-.27c8.11 5.4 14.01-1.11 20.26-4.44 12-6.3 23.73-13.16 35.66-19.68 1.11-.62 2.71-.35 7.29-.83-5 6.51-8.4 10.81-11.73 15.17.21.63.42 1.25.62 1.88 4.52-1.46 8.96-2.91 13.46-4.3 5.28-1.59 10.48-3.33 15.83-4.57 1.1-.28 3.74 1.38 3.67 1.66-.41 1.94-.9 4.37-2.22 5.4-9.23 7-18.66 13.66-28.03 20.59-3.05 2.22-5.83 4.78-7.7 6.3 6.87-.62 14.36-1.04 21.79-1.94 3.47-.41 6.86-1.66 10.26-2.56 3.06-.76 6.11-1.45 9.16-2.15.77.9 1.53 1.87 2.22 2.77-2.42 3.19-4.23 7.28-7.35 9.36-6.52 4.37-13.81 7.41-20.54 11.5-11.8 7.28-23.45 14.83-35.04 22.53-1.66 1.11-2.63 3.25-4.72 6.03 6.59-2.64 11.87-4.79 17.21-6.93l-.14-.21c1.32 1.66 2.64 3.39 4.3 5.54.77-2.08 1.39-3.88 2.02-5.75.97.97 1.94 1.87 2.91 2.84-2.01 2.5-4.09 4.92-6.66 8.04.48.97 1.46 3.19 2.5 5.34-.7-.21-1.39-.35-2.15-.56-1.39 3.68-2.71 7.35-4.1 11.02l.07-.14c-1.04.63-2.08 1.32-3.12 1.94l.68.78H-.23v-43.02zm219.58 34.55l-.35.28s.14-.55.21-.49c.48.14.97.28 1.45.35v-1.11c-.41.35-.9.7-1.31.97zm-117.82-41.44c-.69 1.52-1.39 2.98-2.08 4.5.69.21 1.32.35 2.01.56v-5.13c.62-.9 1.25-1.8 1.94-2.7.91.48 1.81.97 2.64 1.45 2.5.14 5.06.28 7.56.35l-.21-2.5c-2.49.77-4.99 1.46-7.49 2.15.07-.97.21-1.94.28-2.91-.97.56-1.95 1.11-2.92 1.66-.48.83-1.11 1.67-1.73 2.57zm67.17-4.23c-2.43.69-4.86 1.39-7.29 2.08.49.9.97 1.87 1.46 2.77 1.87-1.73 3.74-3.39 5.62-5.06.83-.14 1.59-.21 2.43-.34-.14-.28-.28-.49-.42-.77-.63.42-1.18.83-1.8 1.32zm-26.72 40.54c.35.77.69 1.46.97 2.22 3.05-1.59 6.11-3.19 9.16-4.71-.34-.76-.69-1.46-1.04-2.22-3.05 1.59-6.03 3.12-9.09 4.71zm-52.66-28.27c.07.76.07 1.52.14 2.29 1.11-.35 2.29-.63 3.4-1.05.07 0-.07-1.17-.21-1.17-1.11-.14-2.22-.07-3.33-.07zm-15.2-22.46c-.41-.41-.76-.83-1.18-1.24-.9.83-1.73 1.73-2.63 2.56.27.34.55.69.83 1.04.97-.76 2.01-1.6 2.98-2.36zM57.4 224.93c-.28-.63-.56-1.25-.83-1.8-1.04.76-2.15 1.52-3.19 2.28.2.35.41.76.55 1.11 1.18-.55 2.36-1.11 3.47-1.59zm142.66-19.82c.41-.21.83-.42 1.25-.63-.14-.2-.42-.62-.49-.55-.49.14-.9.41-1.32.62.21.14.35.35.56.56zM214 273.58c-.13-.21-.34-.56-.48-.56-.21 0-.42.28-.56.49.14.21.35.55.49.55s.34-.34.55-.48zm-31.64-19.75l-.27.55h.55z"/></g><path d="M259.34 200.2H24.49V75.8c0-13.68 11.12-24.88 24.72-24.88h185.41c13.59 0 24.72 11.2 24.72 24.88zm-234.85 0L-.23 249.96v24.88h284.29v-24.88l-24.72-49.76H24.49z" fill="none"/><g fill="#034752" fill-rule="nonzero"><path d="M278.64 185.73H41.37V58.92c0-7.5 3.06-14.32 7.97-19.27 4.92-4.95 11.71-8.03 19.17-8.03h185.41c7.45 0 14.24 3.08 19.16 8.03s7.97 11.77 7.97 19.27v126.81zM46.2 180.9h230.02V58.92c0-6.19-2.51-11.81-6.55-15.88s-9.62-6.59-15.75-6.59H68.51c-6.14 0-11.72 2.52-15.76 6.59s-6.55 9.69-6.55 15.88V180.9z"/><path d="M45.94 184.38l-24.46 49.25v21.91h279.46v-21.91l-24.46-49.25 4.31-2.13 24.98 50.27v27.85H16.65v-27.85l24.98-50.27z"/><path d="M124.13 230.66h74.16v4.83h-74.16zM131.06 110.28h60.3v4.82h-60.3z"/><path d="M158.8 142.84v-60.3h4.82v60.3z"/></g></svg>