<svg clip-rule="evenodd" fill-rule="evenodd" height="224" image-rendering="optimizeQuality" shape-rendering="geometricPrecision" text-rendering="geometricPrecision" width="224" xmlns="http://www.w3.org/2000/svg"><clipPath id="a"><path d="M107.12 11.72c-51.86 0-93.9 42.04-93.9 93.9 0 51.85 42.04 93.89 93.9 93.89 16.19 0 31.42-4.09 44.72-11.31l-4.36 32.8c-.14 1.07.34 2.12 1.24 2.72.9.59 2.06.61 2.98.06l18.82-11.29 18.81 11.29c.93.55 2.08.53 2.98-.06s1.38-1.65 1.24-2.72l-4.67-35.22c7.76-5.66 12.8-14.83 12.8-25.18 0-7.66-2.77-14.68-7.35-20.1a93.828 93.828 0 006.69-34.88c0-51.86-42.04-93.9-93.9-93.9z"/></clipPath><clipPath id="b"><path d="M107.12 11.72c-51.86 0-93.9 42.04-93.9 93.9 0 51.85 42.04 93.89 93.9 93.89 16.19 0 31.42-4.09 44.72-11.31l-4.36 32.8c-.14 1.07.34 2.12 1.24 2.72.9.59 2.06.61 2.98.06l18.82-11.29 18.81 11.29c.93.55 2.08.53 2.98-.06s1.38-1.65 1.24-2.72l-4.67-35.22c7.76-5.66 12.8-14.83 12.8-25.18 0-7.66-2.77-14.68-7.35-20.1a93.828 93.828 0 006.69-34.88c0-51.86-42.04-93.9-93.9-93.9z"/></clipPath><g clip-path="url(#a)"><path d="M13.22 11.72h188.46v212.46H13.22z" fill="none"/></g><g clip-path="url(#b)" fill="#bb9a3b" fill-rule="nonzero"><path d="M93.35 113.62c-2.07.85-4.15 1.71-6.26 2.52-1.18-3.25 3.49-8.81 9.22-9.98-1.22 2.88-2.15 5.07-3.05 7.26zm1.01-4.22l.16-.28-.28-.04zM50.78 122.96c2.24-1.87 4.67-3.94 7.76-6.54.89 1.79 1.99 3.53 2.48 5.48.08.41-2.16 1.46-4.19 2.76-1.05-.28-3.49-.97-6.05-1.7zM5.66 88.84c3.86-2.68 7.71-5.36 11.57-8.04.33.49.69.94 1.02 1.42-3.74 2.88-7.47 5.76-11.21 8.64-.45-.69-.89-1.33-1.38-2.02zM167.15 105.79c.36.69.69 1.38 1.05 2.07-1.38-.2-2.76-.36-4.55-.6 1.71-2.68 2.85-4.47 3.98-6.29.25.08.49.2.69.28-.32 1.5-.65 3-.97 4.5-.08-.12-.2-.2-.29-.28.05.12.09.2.09.32zM155.61 113.26c1.67-.73 3.29-1.46 4.96-2.19.32.61.69 1.17 1.01 1.78-.97.81-1.9 1.62-2.88 2.44l.12.16c-.4-.45-.81-.85-1.22-1.3l.21.2c-.77-.44-1.55-.85-2.36-1.29zM71.66 106.81v5.48c-3.46-2.72-3.46-2.72 0-5.48zM201.06 117.72c1.91-1.01 3.82-2.03 5.73-3 .24.53.49 1.05.77 1.54-1.87 1.1-3.78 2.19-5.64 3.29-.29-.61-.57-1.22-.86-1.83zM88.11 93.42c-.45 5.19-1.26 6.09-5.4 4.75 2.07-1.71 3.82-3.17 5.56-4.59zM78.48 98.17c.77-1.42 1.59-2.88 2.36-4.3.49.28.97.52 1.46.81-.65 1.54-1.34 3.04-1.99 4.58-.65-.4-1.22-.77-1.83-1.09zM187.01 88.47c-.45 1.5-.89 3-1.38 4.51-.49-.21-.98-.37-1.46-.57.52-1.54 1.09-3.05 1.62-4.59.41.21.81.41 1.22.65zM193.06 146.85c-1.1.97-2.19 1.95-3.21 2.8-.12-4.1-.12-4.1 3.37-2.76zM194.48 155.25l-1.95-4.26c.53-.12 1.1-.29 1.62-.41.12 1.54.25 3.09.33 4.67zM98.02 105.59c-1.1-.32-2.16-.69-3.25-1.01.08-.49.2-.98.28-1.42 1.14.16 2.24.36 3.37.52-.12.65-.24 1.3-.4 1.91zM193.35 164.94c-.37-1.17-.7-2.31-1.06-3.48.45-.21.89-.41 1.38-.61.53 1.09 1.06 2.19 1.58 3.28-.65.29-1.3.57-1.9.81zM175.31 101.54c.24 3.89-1.87 1.62-3.21 1.37l-.08.21c1.05-.53 2.15-1.06 3.21-1.58zM153.86 109.04c-1.09-.12-2.23-.28-3.33-.41 0-.28-.04-.56-.04-.85h3.5c-.04.45-.08.85-.13 1.26zM53.71 86.89c.85.2 1.7.41 2.59.61-.04.32-.08.65-.12 1.01-.89-.08-1.74-.12-2.64-.2.04-.49.08-.93.17-1.42zM200.13 120.36c-.85.57-1.71 1.09-2.6 1.66-.2-.32-.37-.69-.57-1.01.85-.53 1.75-1.06 2.6-1.63.2.33.36.65.57.98zM138.27 120.2c-.94-.13-1.83-.25-3.94-.53 1.78-.94 2.68-1.38 3.57-1.87l.24 2.52c.05.04.13-.12.13-.12zM143.47 112.85c-.49-.56-.78-.97-1.1-1.34.37-.2.77-.48 1.14-.52.24-.04.73.44.69.57-.08.4-.37.77-.73 1.29zM178.44 93.66c-.49-.73-.98-1.42-1.51-2.15.41-.24.77-.48 1.18-.69.37.82.77 1.63 1.14 2.44-.29.12-.53.28-.81.4zM84.69 90.62c-1.78-1.09-2.47-1.54-3.21-1.95.61-.2 1.26-.48 1.87-.48.25 0 .45.77 1.34 2.43zM129.13 114.31c-.13.29-.21.69-.41.77-.2.09-.53-.16-.81-.24.12-.28.16-.73.4-.85.17-.08.57.2.82.32zM75.36 85.19c-.25.16-.49.36-.74.52-.16-.36-.36-.73-.52-1.09.28-.12.65-.37.85-.29.2.04.28.53.41.86z"/><path d="M88.27 93.62c.21-.56.37-1.13.57-1.7.37.49.77.97 1.14 1.5-.61.04-1.22.04-1.87.08 0-.08.16.12.16.12zM171.25 97.6c-.69.36-1.38.73-2.07 1.14-.16-.25-.29-.45-.45-.69.65-.49 1.26-.98 1.91-1.42.2.28.41.6.61.97zM76.9 97.11c.36.61.81 1.02.77 1.34-.08.33-.73.81-.98.73-.36-.16-.73-.69-.81-1.09-.04-.17.57-.53 1.02-.98zM69.63 101.13c-.69.36-1.1.57-1.51.77-.2-.41-.48-.81-.52-1.26 0-.16.56-.61.77-.57.4.17.69.57 1.26 1.06zM64.83 105.19c.41-.65.86-1.3 1.26-1.95.21.24.41.48.65.73-.69.36-1.38.73-2.07 1.13 0-.04.16.09.16.09zM189.48 159.67c.53-.29 1.02-.65 1.55-.85.12-.04.4.44.61.73-.57.32-1.14.69-1.71 1.01-.12-.32-.28-.61-.45-.89zM62.11 85.47c-.24.2-.44.4-.69.61-.16-.29-.36-.53-.48-.81-.04-.08.28-.37.32-.37.29.16.57.37.85.57zM181.44 163.36c.81-.36 1.67-.73 2.48-1.13.04.32.08.64.16.97-.85 0-1.7 0-2.56.04-.04.04-.08.12-.08.12zM71.37 95.13v-.41c.21.08.41.16.62.2-.09.13-.13.33-.25.33-.08.04-.24-.08-.37-.12zM197.85 158.78c-.04.16-.08.32-.16.48-.24-.12-.45-.28-.69-.4l.61-.49c.12.12.16.29.24.41zM194.48 155.25c.77-.25 1.5-.49 2.28-.77.04.32.08.65.12.93-.81-.04-1.59-.12-2.4-.16zM91.97 103.68c-.33.13-.61.33-.85.25-.17-.04-.21-.53-.33-.81.24-.08.57-.37.73-.29.2.21.29.57.45.85zM70.6 115.61c-.12.29-.24.57-.36.85-.29-.12-.74-.2-.78-.4-.08-.29.17-.61.29-.93.28.2.57.36.85.48zM128.8 116.95c-.12.28-.24.57-.32.89-.25-.16-.61-.28-.69-.52-.08-.21.2-.53.28-.82.25.13.49.29.73.45zM130.19 121.17c-.04-.61-.12-1.22-.16-1.83.36.04.77.04 1.13.08-.12.61-.24 1.18-.36 1.79-.16-.04-.37-.04-.61-.04zM121.58 122.14c.69 0 1.42 0 2.11.04l.04-.12h-2.32zM63.58 123.6c-.17-.28-.29-.52-.45-.81.36-.2.73-.4 1.09-.57.09.29.33.69.21.86-.16.24-.57.32-.85.52zM60.89 125.35c.29.12.53.2.78.32-.13.29-.17.77-.37.81-.24.09-.57-.2-.85-.28.16-.32.28-.57.44-.85zM201.76 172.12c-.12.04-.25.17-.37.13-.12 0-.2-.17-.29-.25.25.04.45.08.66.12zM189.77 163.28c-.08-.08-.2-.16-.29-.24.21.04.45.04.66.08-.17.08-.29.12-.37.16zM199.76 155.21l.46-.13-.05.37zM93.27 113.46c.24 0 .53.04.77.04-.24.04-.45.04-.69.08 0 .04-.08-.12-.08-.12zM138.19 113.51c-.12.04-.29.12-.29.08-.08-.12-.08-.29-.12-.41.16-.04.33-.08.49-.08-.04.08-.04.24-.08.41zM81.61 112.93l.09.46-.29-.09zM71.66 106.81c.81-.08 1.58-.12 2.39-.2v.56c-.81-.12-1.62-.24-2.39-.36zM160.85 103.77c-.12-.08-.2-.17-.32-.25.12-.04.24-.16.36-.12.13 0 .21.16.33.25-.12 0-.24.04-.37.12zM79.74 103.48l.37-.08-.04.29zM177.78 101.13l.46.2-.46.13zM100.58 101.49c-.16.05-.29.13-.45.17-.04-.21-.08-.41-.12-.61.16.04.32 0 .45.08.12.04.08.24.12.36zM63.29 102.35c0-.49-.04-.98-.04-1.51.12 0 .29.05.41.05-.17.4-.37.85-.53 1.25.04.04.16.21.16.21zM175.27 101.58c.04-.45.08-.94.12-1.38-.04.44-.04.89-.08 1.34zM179.05 96.67l.41.2-.45.12zM77.51 95.21c-.08.12-.21.28-.29.4-.08-.16-.2-.32-.16-.49 0-.16.16-.28.29-.4.04.16.12.32.16.49zM49.85 86.73l.45-.12-.09.32zM82.62 84.46c-.16.12-.28.36-.4.36-.29-.08-.57-.28-.86-.41.13-.12.29-.36.37-.36.32.08.61.24.89.41zM22.71 78.9c-.2.2-.4.44-.64.53-.09.04-.33-.33-.41-.53-.04-.04.2-.33.24-.33.29.04.53.17.81.33zM198.79 152.69c-.13-.04-.33-.08-.33-.16 0-.16.08-.32.12-.49.13.04.33.08.33.17.04.16-.04.32-.12.48zM182.18 147.9c.44-.36.93-.69 1.38-1.05.12.28.24.53.4.81l-1.87.12c0 .04.09.12.09.12zM62.23 129.45c-.16.08-.28.2-.4.16-.12 0-.25-.16-.37-.24.12-.09.29-.21.41-.17.12 0 .24.17.36.25zM133.68 120.4c-.29.12-.57.24-.9.28-.08 0-.2-.24-.32-.36.28-.12.57-.24.85-.29.12-.04.25.21.37.37zM138.19 116.14c-.08-.08-.2-.2-.29-.28.13-.04.25-.17.37-.17.12.04.21.17.29.29-.13.04-.25.12-.37.16zM147.65 114.84c-.28.12-.57.24-.85.28-.08 0-.2-.24-.33-.36.29-.12.57-.24.86-.28.08-.04.2.2.32.36zM66.01 114.72c-.24.12-.48.28-.77.37-.04 0-.2-.25-.28-.37.28-.12.53-.28.81-.41.04 0 .16.25.24.41zM181.41 166.44s0 .05.04.05c0 .04-.04-.05-.04-.05zM193.23 146.89c-.13.04-.25.04-.37.08.08.08.12.17.2.29 0-.12-.04-.29-.04-.41.04 0 .21.04.21.04zM172.1 102.91c.04.13.08.25.12.37.04-.16.09-.28.13-.45-.09.08-.21.17-.33.29 0 .04.08-.21.08-.21zM88.92 71.35c-.12-.12-.33-.28-.29-.4 0-.13.25-.25.37-.37.12.12.32.28.28.41 0 .12-.24.24-.36.36zM65.08 89.24c-.08-.04-.2-.04-.28-.08.04.08.08.17.12.25 0-.12.04-.21.04-.33zM77.18 107.1l-.12-.41.37.04z"/><path d="M.34 116.99c3.27-1.61 6.74-2.73 10.59-2.92-.24 3.53-.44 6.41-.65 9.25-.32.61-.65 1.26-.97 1.87-1.59-2.8-3.5-3.74-6.13-1.38-.09.73-.17 1.42-.25 2.15-.53-.04-1.1-.08-1.62-.12 0 .16 0 .32-.04.52.52-.16 1.01-.32 1.54-.52.12-.69.24-1.34.37-2.03 2.23-.33 3.57 3.73 6.21 1.42.28-.65.53-1.34.81-1.99 2.32-.29 4.63-.57 7.07-.85-2.03 4.38-2.03 4.38 6.9 3.81.69-1.42 1.3-2.68 1.95-3.98l-.16-.12h2.32l-.04.12c1.42-.56 2.88-1.09 4.3-1.66.28.25.57.53.81.77-2.27 1.95-4.55 3.94-6.86 5.88-1.38 1.06-2.8 2.15-4.1 3.17 1.3.85 2.84 1.91 4.42 2.96 0 .04-.04.08-.08.16.08-.08.12-.16.21-.24.81-.08 1.62-.12 2.19-.2-.94-2.03-1.83-3.94-2.68-5.81 3.04 1.1 6.05 2.24 9.66 3.53v-5.07c1.02.08 2.08.17 3.17.25-.32-.33-.69-.69-1.01-1.02l.04.04c2.35-.89 4.75-1.78 7.76-2.92-1.55-.81-2.4-1.25-3.29-1.7l-.09.12c4.27-2.31 8.49-4.79 12.88-6.86 1.3-.6 3.05-.16 4.55-.24l-.12-.2c.77.44 1.54.85 2.35 1.3l-.2-.21c.41.45.81.85 1.22 1.3l-.12-.16c4.75 3.16 8.2-.65 11.86-2.6 7.02-3.69 13.89-7.71 20.87-11.52.65-.36 1.59-.2 4.27-.49-2.93 3.82-4.92 6.33-6.87 8.89.13.36.25.73.37 1.09 2.64-.85 5.24-1.7 7.88-2.51 3.09-.93 6.13-1.95 9.26-2.68.65-.16 2.19.81 2.15.98-.24 1.13-.53 2.55-1.3 3.16-5.4 4.1-10.92 7.99-16.41 12.05-1.78 1.3-3.41 2.8-4.5 3.69 4.02-.36 8.4-.61 12.75-1.14 2.03-.24 4.02-.97 6.01-1.5 1.79-.44 3.57-.85 5.36-1.25.45.52.89 1.09 1.3 1.62-1.42 1.86-2.48 4.26-4.3 5.47-3.82 2.56-8.09 4.35-12.03 6.74-6.9 4.26-13.73 8.68-20.51 13.18-.97.65-1.54 1.91-2.76 3.53 3.86-1.54 6.95-2.8 10.07-4.05l-.08-.12c.77.97 1.55 1.98 2.52 3.24.45-1.22.81-2.27 1.18-3.37.57.57 1.14 1.1 1.7 1.67-1.17 1.46-2.39 2.88-3.9 4.7.29.57.86 1.87 1.47 3.13-.41-.12-.82-.21-1.26-.33-.81 2.15-1.59 4.3-2.4 6.45l.04-.08c-.61.37-1.22.77-1.83 1.14.57.65 1.18 1.34 1.75 1.99l.04.08c2.19-.08 4.43-.17 6.62-.21-.16 1.71-.32 3.41-.57 6.25 1.46-1.87 2.4-3.04 3.82-4.83v7.02c5.52-.32 11.05-.65 16.57-.93l-.12.12h22.62c-.04.41-.04.81-.08 1.22-5.2 1.58-10.4 3.2-15.59 4.78-1.39.04-2.77.09-4.11.13-.32.32-.65.65-.2.24-.16.53-.04.08.12-.41h4.19c-.53.98-1.06 1.95-1.59 2.92l-.12-.16c1.22-.12 2.48-.16 3.7-.32 4.14-.49 8.32-1.3 10.8 3.08-1.71 1.06-3.94 1.99-5.44 3.65-.57.61.57 2.92.69 3.41 5.12.97 9.46 1.79 13.81 2.64l-.12-.12c.28.97.56 1.9.69 2.31-2.4.48-4.43.89-6.5 1.3l-10.73 2.31c4.47 2.59 7.68.44 10.69-2.39-.49 1.17-1.02 2.35-1.63 3.85 6.3 2.31 13.81-3.94 19.7 3.04-1.22.89-2.27 1.66-4.22 3.08 4.14 1.1 7.39 1.95 11.13 2.93-.09.36.12-.53.28-1.43 7.58 1.76 6.8 7.99 7.08 13.47h-27.26c1.68-.51 3.36-1.07 5.07-1.46 3.78-.85 7.68-1.42 9.75-5.8-7.55-1.75-13.4 1.12-15.45 7.26h-.6c-2.88-1.78-5.21-1.26-7.36 0H.34V116.99zM185.1 223.52c1.66-.7 3.28-1.55 4.87-2.55 4.1-2.61 7.65-2.58 10.31 2.55zM67.11 167.01c-.09-.48-.17-.93-.29-1.42.57-.08 1.14-.12 1.71-.2.28-.08.57-.2.85-.28-.28.12-.57.24-.85.36-.49.57-.98 1.18-1.47 1.7.09.09.17.13.29.21-.12-.12-.16-.25-.24-.37zm17.26-7.02l-.21.17s.08-.33.13-.29c.28.08.56.16.85.2v-.64c-.24.2-.53.4-.77.56zM15.4 135.73c-.41.9-.81 1.75-1.22 2.64.41.12.77.2 1.18.33v-3.01c.37-.52.73-1.05 1.14-1.58.52.29 1.05.57 1.54.85 1.46.08 2.97.17 4.43.21l-.12-1.46c-1.47.44-2.93.85-4.39 1.25.04-.56.12-1.13.16-1.7-.57.32-1.14.65-1.7.97-.29.49-.65.98-1.02 1.5zm39.32-2.47c-1.42.41-2.85.81-4.27 1.22.29.52.57 1.09.86 1.62 1.09-1.02 2.19-1.99 3.29-2.96.48-.08.93-.12 1.42-.21-.08-.16-.17-.28-.25-.44-.36.24-.69.48-1.05.77zm74.69 79.07c4.59-1.18 8.53-2.19 12.47-3.21-4.06-.93-8-.73-11.94-.24-.33.04-.37 2.31-.53 3.45zm-90.33-55.34c.2.45.41.85.57 1.3 1.79-.93 3.57-1.87 5.36-2.76-.2-.45-.41-.85-.61-1.3-1.79.94-3.53 1.83-5.32 2.76zm78.27 34.28c-.16-.53-.29-1.05-.45-1.58-1.34.45-2.64.89-3.98 1.34.16.57.37 1.09.53 1.66 1.3-.44 2.6-.93 3.9-1.42zm-8.61 31.52c.04-.56.08-1.17.12-1.74-1.87.32-3.74.61-5.61.93.04.29.04.53.08.81zM8.25 140.44c.04.45.04.89.08 1.34.65-.2 1.34-.37 1.99-.61.04 0-.04-.69-.12-.69-.65-.08-1.3-.04-1.95-.04zm92.85 41.83c1.99.52 2.48.77 2.56.64.28-.36.41-.85.61-1.25-.57.12-1.1.2-3.17.61zm16.41 20.97c-.16-.32-.24-.77-.49-.89-.24-.12-.61.16-.93.24.2.37.36.77.65 1.1.04.04.49-.29.77-.45zm-62.35-33.27c-.04-.12-.12-.32-.12-.32-.28.08-.57.16-.81.24.04.12.08.29.16.41.25-.12.49-.25.77-.33zm22.71-3.73c.49.33.73.49 1.01.69.17-.32.37-.65.53-.97-.45.08-.89.16-1.54.28zm-4.79-42.11c.24-.12.48-.24.73-.36-.08-.13-.25-.37-.29-.33-.28.08-.53.24-.77.37.12.08.2.2.33.32zm8.16 40.08c-.08-.12-.2-.32-.29-.32-.12 0-.24.16-.32.28.08.12.2.33.28.33.09 0 .21-.21.33-.29zm-18.52-11.56l-.16.33h.32zm13.08 21.42c-.13-.08-.25-.12-.37-.2v.77c.12-.04.29-.08.37-.2.04-.09 0-.25 0-.37zm-3.09 1.26c-.12-.12-.28-.37-.41-.37-.12 0-.32.25-.32.37s.2.36.32.36c.13 0 .25-.2.41-.36zm43.78 40.65c-.12-.12-.2-.37-.32-.41-.12 0-.29.21-.41.33.12.12.21.36.33.4.12 0 .28-.2.4-.32z"/></g><path d="M107.12 11.72c-51.86 0-93.9 42.04-93.9 93.9 0 51.85 42.04 93.89 93.9 93.89 16.19 0 31.42-4.09 44.72-11.31l-4.36 32.8c-.14 1.07.34 2.12 1.24 2.72.9.59 2.06.61 2.98.06l18.82-11.29 18.81 11.29c.93.55 2.08.53 2.98-.06s1.38-1.65 1.24-2.72l-4.67-35.22c7.76-5.66 12.8-14.83 12.8-25.18 0-7.66-2.77-14.68-7.35-20.1a93.828 93.828 0 006.69-34.88c0-51.86-42.04-93.9-93.9-93.9z" fill="none"/><path d="M115.53 182.7c24.38 0 46.46-9.89 62.43-25.86 15.98-15.98 25.86-38.05 25.86-62.43 0-24.39-9.88-46.46-25.86-62.44C161.99 16 139.91 6.11 115.53 6.11S69.08 16 53.1 31.97C37.12 47.95 27.24 70.02 27.24 94.41c0 24.38 9.88 46.45 25.86 62.43 15.98 15.97 38.05 25.86 62.43 25.86zm66.39-21.9c-16.99 16.99-40.46 27.5-66.39 27.5s-49.4-10.51-66.39-27.5c-17-16.99-27.51-40.47-27.51-66.39 0-25.93 10.51-49.41 27.51-66.4C66.13 11.02 89.6.51 115.53.51s49.4 10.51 66.4 27.5c16.99 16.99 27.5 40.47 27.5 66.4 0 25.92-10.51 49.4-27.51 66.39z" fill="#034752" fill-rule="nonzero"/><path d="M138.79 61.74l.02-1.24c0-6.53-2.65-12.23-6.89-16.38-4.3-4.19-10.22-6.82-16.69-7.15l-1.37-.02-1.35.02c-6.47.33-12.39 3.05-16.69 7.29-4.26 4.19-6.92 9.9-6.92 16.28l.04 1.33c0 2.94 3.09 18 3.1 18.04l.02.09c1.16 6.55 3.9 12.57 8.02 16.75 3.57 3.63 8.21 5.88 13.78 5.88 5.63 0 10.31-2.21 13.88-5.85 4.06-4.12 6.77-10.08 7.92-16.77l.02-.1c.01-.04 3.1-15.1 3.1-18.04zm5.63-1.24l-.04 1.37c.01 3.24-2.94 17.76-3.21 19.08-1.33 7.79-4.56 14.8-9.44 19.75-4.61 4.68-10.63 7.54-17.87 7.54-7.19 0-13.17-2.9-17.76-7.56-4.94-5.02-8.21-12.09-9.56-19.72-.25-1.25-3.21-15.84-3.21-19.09l-.03-1.33c0-7.95 3.3-15.05 8.6-20.27 5.24-5.17 12.46-8.48 20.33-8.88.65-.03 1.2-.05 1.63-.05s.98.02 1.63.05c7.87.39 15.08 3.6 20.32 8.72 5.3 5.18 8.61 12.28 8.61 20.39zM44.06 155.79v-2.77c0-6.7 2.43-12.56 6.51-17.18 4.22-4.76 10.2-8.16 17.06-9.7 15.25-3.31 31.18-5.89 46.56-8.84 13.49 2.57 34.84 5.2 47.14 8.88 6.71 2.01 12.64 5.47 16.8 10.26 3.87 4.46 6.19 10.02 6.19 16.58v2.77h-5.6v-2.77c0-5.12-1.81-9.46-4.82-12.92-3.4-3.92-8.37-6.8-14.07-8.52l-45.64-8.59-45.4 8.61c-5.69 1.3-10.61 4.08-14.03 7.94-3.2 3.61-5.1 8.21-5.1 13.48v2.77z" fill="#034752" fill-rule="nonzero"/><path d="M163.57 173.25l-4.9 36.91 20.26-12.15 20.25 12.15-4.9-36.95z" fill="#fff"/><path d="M160.8 172.89a2.793 2.793 0 115.54.73l-4.14 31.16 15.29-9.17c.93-.55 2.05-.51 2.91.02l15.25 9.15-4.14-31.21a2.793 2.793 0 115.54-.72l4.9 36.95c.08.6-.03 1.24-.37 1.8a2.797 2.797 0 01-3.83.96l-18.82-11.29-18.82 11.29c-.53.31-1.15.46-1.8.37-1.53-.2-2.61-1.6-2.41-3.13z" fill="#bb9a3b" fill-rule="nonzero"/><path d="M178.93 177.75c15.66 0 28.36-12.7 28.36-28.36s-12.7-28.36-28.36-28.36c-15.67 0-28.36 12.7-28.36 28.36s12.69 28.36 28.36 28.36z" fill="#fff"/><g fill-rule="nonzero"><path d="M178.93 174.95c7.06 0 13.45-2.86 18.07-7.48 4.62-4.63 7.48-11.02 7.48-18.08s-2.86-13.45-7.48-18.07-11.02-7.48-18.07-7.48c-7.06 0-13.45 2.86-18.07 7.48l-.14.13a25.481 25.481 0 00-7.35 17.94c0 7.06 2.86 13.45 7.49 18.07a25.443 25.443 0 0018.07 7.49zm22.03-3.53c-5.65 5.64-13.44 9.14-22.03 9.14-8.61 0-16.4-3.49-22.04-9.13s-9.13-13.43-9.13-22.04c0-8.51 3.43-16.24 8.98-21.87l.15-.16c5.64-5.64 13.43-9.13 22.04-9.13 8.6 0 16.39 3.49 22.03 9.13 5.64 5.65 9.13 13.44 9.13 22.03 0 8.61-3.49 16.4-9.13 22.03z" fill="#bb9a3b"/><path d="M115.53 182.37c24.29 0 46.28-9.85 62.2-25.77 15.92-15.91 25.76-37.9 25.76-62.19 0-24.3-9.84-46.29-25.76-62.21-15.92-15.91-37.91-25.76-62.2-25.76s-46.28 9.85-62.2 25.77c-15.92 15.91-25.76 37.9-25.76 62.2 0 24.29 9.84 46.28 25.76 62.19 15.92 15.92 37.91 25.77 62.2 25.77zm66.63-21.34c-17.05 17.05-40.61 27.6-66.63 27.6s-49.58-10.55-66.63-27.6-27.59-40.61-27.59-66.62c0-26.02 10.54-49.58 27.59-66.63S89.51.18 115.53.18s49.58 10.55 66.63 27.6 27.59 40.61 27.59 66.63c0 26.01-10.54 49.57-27.59 66.62z" fill="#034752"/><path d="M138.46 61.72l.03-1.22c0-6.44-2.62-12.06-6.8-16.14-4.24-4.15-10.09-6.74-16.48-7.06l-1.35-.03-1.33.03c-6.39.33-12.24 3-16.49 7.19-4.19 4.13-6.81 9.76-6.81 16.05l.04 1.33c0 2.91 3.08 17.93 3.09 17.98l.02.09c1.15 6.5 3.87 12.45 7.94 16.59 3.5 3.56 8.07 5.77 13.54 5.77 5.53 0 10.14-2.17 13.65-5.74 4.01-4.08 6.69-9.97 7.82-16.6l.03-.11c.01-.05 3.09-15.07 3.09-17.98zm6.29-1.22l-.04 1.37c0 3.26-2.93 17.73-3.22 19.14-1.34 7.84-4.6 14.91-9.53 19.92-4.67 4.74-10.77 7.63-18.1 7.63-7.28 0-13.35-2.93-17.99-7.66-4.99-5.07-8.29-12.2-9.65-19.88C85.96 79.7 83 65.14 83 61.87l-.03-1.33c0-8.04 3.34-15.22 8.7-20.5 5.3-5.23 12.59-8.57 20.54-8.98.66-.03 1.21-.05 1.65-.05s.99.02 1.64.05c7.95.4 15.24 3.64 20.54 8.82 5.36 5.23 8.71 12.42 8.71 20.62zM43.73 155.79v-2.77c0-6.78 2.46-12.72 6.6-17.39 4.26-4.82 10.3-8.25 17.23-9.81 15.29-3.29 31.21-5.91 46.63-8.85 13.28 2.5 35.23 5.25 47.23 8.9 6.77 2.03 12.75 5.52 16.95 10.36 3.93 4.51 6.28 10.15 6.28 16.79v2.77h-6.26v-2.77c0-5.04-1.77-9.3-4.74-12.71-3.35-3.87-8.27-6.71-13.9-8.42l-45.56-8.56-45.33 8.59c-5.63 1.29-10.48 4.03-13.86 7.84-3.14 3.55-5.01 8.08-5.01 13.26v2.77z" fill="#034752"/></g><path d="M163.57 173.25l-4.9 36.91 20.26-12.15 20.25 12.15-4.9-36.95z" fill="#fff"/><path d="M160.48 172.85a3.117 3.117 0 116.18.81l-4.04 30.5 14.7-8.83a3.13 3.13 0 013.26.03l14.66 8.8-4.05-30.54c-.23-1.71.98-3.28 2.69-3.5s3.27.98 3.49 2.69l4.9 36.88a3.124 3.124 0 01-4.69 3.15l-18.65-11.19-18.66 11.19c-.58.35-1.28.51-2 .41a3.104 3.104 0 01-2.69-3.49z" fill="#034752" fill-rule="nonzero"/><path d="M178.93 177.75c15.66 0 28.36-12.7 28.36-28.36s-12.7-28.36-28.36-28.36c-15.67 0-28.36 12.7-28.36 28.36s12.69 28.36 28.36 28.36z" fill="#fff"/><path d="M178.93 174.62c6.97 0 13.28-2.82 17.84-7.38v-.01c4.56-4.56 7.39-10.87 7.39-17.84s-2.83-13.28-7.39-17.84c-4.57-4.56-10.88-7.39-17.84-7.39a25.16 25.16 0 00-17.84 7.39l-.17.15a25.186 25.186 0 00-7.22 17.69c0 6.97 2.82 13.28 7.39 17.84a25.118 25.118 0 0017.84 7.39zm22.26-2.97c-5.71 5.7-13.58 9.23-22.26 9.23-8.7 0-16.57-3.52-22.27-9.22s-9.22-13.57-9.22-22.27c0-8.59 3.45-16.38 9.04-22.07l.18-.19c5.7-5.7 13.57-9.23 22.27-9.23 8.69 0 16.57 3.53 22.26 9.23v.01c5.7 5.7 9.23 13.57 9.23 22.25 0 8.7-3.53 16.57-9.23 22.26z" fill="#034752" fill-rule="nonzero"/></svg>