<svg clip-rule="evenodd" fill-rule="evenodd" height="224" image-rendering="optimizeQuality" shape-rendering="geometricPrecision" text-rendering="geometricPrecision" width="224" xmlns="http://www.w3.org/2000/svg"><clipPath id="a"><path d="M58.21 26C26.13 26-.18 52.32-.18 84.39c0 31.65 19.79 60.51 44.49 83.38 12.84 11.93 28.16 23.24 40.21 31.54a502.39 502.39 0 0015.02 9.96 391.202 391.202 0 005.56 3.48l.31.19.08.05.03.01 1.61.98 1.62-.98.03-.01.08-.05.3-.19c.28-.17.67-.41 1.18-.73 1.03-.63 2.52-1.56 4.39-2.75 3.73-2.38 8.98-5.8 15.01-9.96 12.06-8.3 27.37-19.61 40.21-31.53 27.47-25.18 44.5-51.78 44.5-83.39 0-32.07-26.31-58.39-58.39-58.39-20.52 0-38.63 10.74-48.93 26.43C96.84 36.74 78.72 26 58.21 26zm48.92 184.33l-1.61 2.67zm1.62 2.67l-1.62-2.67z"/></clipPath><clipPath id="b"><path d="M58.21 26C26.13 26-.18 52.32-.18 84.39c0 31.65 19.79 60.51 44.49 83.38 12.84 11.93 28.16 23.24 40.21 31.54a502.39 502.39 0 0015.02 9.96 391.202 391.202 0 005.56 3.48l.31.19.08.05.03.01 1.61.98 1.62-.98.03-.01.08-.05.3-.19c.28-.17.67-.41 1.18-.73 1.03-.63 2.52-1.56 4.39-2.75 3.73-2.38 8.98-5.8 15.01-9.96 12.06-8.3 27.37-19.61 40.21-31.53 27.47-25.18 44.5-51.78 44.5-83.39 0-32.07-26.31-58.39-58.39-58.39-20.52 0-38.63 10.74-48.93 26.43C96.84 36.74 78.72 26 58.21 26zm48.92 184.33l-1.61 2.67zm1.62 2.67l-1.62-2.67z"/></clipPath><g clip-path="url(#a)"><path d="M-.18 26h214.63v187.98H-.18z" fill="none"/></g><g clip-path="url(#b)" fill="#bb9a3b" fill-rule="nonzero"><path d="M104.74 67.73c-2.3.95-4.61 1.9-6.97 2.8-1.31-3.61 3.9-9.81 10.28-11.12-1.36 3.21-2.4 5.65-3.4 8.1zm1.14-4.7l.18-.32-.32-.04zM57.3 78.13c2.49-2.08 5.21-4.38 8.65-7.28.99 1.99 2.22 3.94 2.76 6.11.09.45-2.4 1.62-4.66 3.07-1.18-.31-3.9-1.08-6.75-1.9zM7.01 40.1c4.3-2.98 8.6-5.96 12.9-8.95.36.54.77 1.04 1.13 1.58-4.16 3.21-8.33 6.42-12.49 9.64-.5-.77-1-1.5-1.54-2.27zM187 59.01c.41.76.77 1.53 1.18 2.3-1.54-.22-3.08-.4-5.07-.68 1.9-2.98 3.17-4.97 4.44-7.01.27.1.54.23.76.32l-1.08 5.02c-.09-.14-.23-.23-.32-.32.05.14.09.23.09.37zM174.15 67.33c1.85-.82 3.67-1.63 5.52-2.45.37.68.77 1.31 1.13 1.99-1.08.91-2.12 1.81-3.21 2.72l.13.18c-.45-.5-.9-.95-1.35-1.45l.22.23c-.86-.5-1.72-.95-2.62-1.45zM80.57 60.14v6.1c-3.85-3.03-3.85-3.03 0-6.1zM98.91 45.21C98.41 51 97.5 52 92.89 50.5c2.31-1.9 4.25-3.52 6.2-5.11zM88.18 50.5c.86-1.58 1.76-3.21 2.62-4.79.55.32 1.09.59 1.63.9-.72 1.72-1.49 3.4-2.21 5.12-.73-.46-1.36-.86-2.04-1.23zM209.14 39.7c-.5 1.67-.99 3.34-1.54 5.02-.54-.23-1.08-.41-1.63-.64.59-1.71 1.22-3.39 1.81-5.11.46.23.91.46 1.36.73zM215.89 104.77c-1.23 1.08-2.45 2.17-3.58 3.12-.14-4.57-.14-4.57 3.76-3.08zM109.95 58.78c-1.22-.36-2.4-.77-3.62-1.13.09-.54.22-1.09.31-1.58 1.27.18 2.49.4 3.76.58-.13.73-.27 1.45-.45 2.13zM196.1 54.26c.27 4.34-2.08 1.81-3.58 1.54l-.09.22c1.18-.59 2.4-1.17 3.58-1.76zM172.2 62.62c-1.22-.13-2.49-.31-3.71-.45 0-.32-.05-.63-.05-.95h3.89c-.04.5-.09.95-.13 1.4zM60.56 37.93c.95.23 1.9.46 2.9.68-.05.36-.09.73-.14 1.13-.99-.09-1.94-.13-2.94-.22.05-.55.09-1.04.18-1.59zM154.81 75.06c-1.04-.14-2.03-.27-4.39-.59 1.99-1.04 2.99-1.54 3.98-2.08.1.95.19 1.85.28 2.8.04.05.13-.13.13-.13zM160.61 66.87c-.54-.63-.86-1.08-1.22-1.49.4-.23.86-.54 1.26-.59.28-.04.82.5.77.64-.09.45-.4.86-.81 1.44zM199.59 45.48c-.55-.81-1.09-1.58-1.68-2.39.45-.27.86-.54 1.31-.77.41.9.86 1.81 1.27 2.71-.31.14-.59.32-.9.45zM95.1 42.09c-1.99-1.22-2.76-1.71-3.58-2.17.68-.22 1.41-.54 2.09-.54.27 0 .49.86 1.49 2.71zM144.63 68.5c-.14.32-.23.77-.46.86-.22.09-.59-.18-.9-.27.13-.32.18-.81.45-.95.18-.09.63.23.91.36zM84.69 36.03c-.27.19-.54.41-.81.59-.18-.4-.41-.81-.59-1.22.32-.13.72-.4.95-.31.22.04.32.58.45.94z"/><path d="M99.09 45.44c.23-.63.41-1.27.63-1.9.41.54.86 1.09 1.27 1.67-.68.05-1.36.05-2.08.09 0-.09.18.14.18.14zM191.58 49.87c-.77.41-1.54.82-2.31 1.27-.18-.27-.32-.5-.5-.77.72-.54 1.4-1.09 2.13-1.58.22.31.45.67.68 1.08zM86.41 49.33c.41.68.9 1.13.86 1.49-.09.36-.82.91-1.09.81-.41-.18-.81-.76-.9-1.22-.05-.18.63-.58 1.13-1.08zM78.31 53.8c-.77.41-1.23.64-1.68.86-.23-.45-.54-.9-.59-1.4 0-.18.64-.68.86-.63.46.18.77.63 1.41 1.17zM72.96 58.33c.46-.73.95-1.45 1.41-2.17.22.27.45.54.72.81-.77.41-1.54.81-2.31 1.27 0-.05.18.09.18.09zM211.9 119.05c.59-.31 1.13-.72 1.72-.94.14-.05.45.49.68.81-.63.36-1.27.77-1.9 1.13-.14-.36-.32-.68-.5-1zM69.93 36.35c-.27.23-.5.45-.77.68-.18-.32-.4-.59-.54-.9-.05-.1.32-.41.36-.41.32.18.64.41.95.63zM2.8 43.54c.22-.27.45-.54.68-.77.22.41.45.82.63 1.22-.27.14-.63.46-.86.41-.18-.14-.27-.59-.45-.86zM202.94 123.17c.9-.41 1.85-.81 2.76-1.27.04.36.09.73.18 1.09-.95 0-1.9 0-2.85.04-.05.05-.09.14-.09.14zM80.25 47.12v-.46c.23.09.46.18.69.23-.1.14-.14.36-.28.36-.09.05-.27-.09-.41-.13zM103.21 56.65c-.36.14-.68.37-.95.28-.18-.05-.23-.59-.36-.91.27-.09.63-.41.81-.32.23.23.32.64.5.95zM79.39 69.95c-.13.32-.27.63-.41.95-.31-.14-.81-.23-.86-.46-.08-.31.19-.67.32-1.03.32.22.63.4.95.54zM144.26 71.44c-.13.32-.27.63-.36 1-.27-.19-.68-.32-.77-.59-.09-.23.23-.59.32-.91.27.14.54.32.81.5zM145.81 76.14c-.04-.68-.13-1.35-.18-2.03.41.04.86.04 1.27.09l-.41 1.99c-.18-.05-.41-.05-.68-.05zM136.21 77.23c.77 0 1.58 0 2.35.04l.05-.13h-2.58zM71.56 78.86c-.18-.32-.32-.59-.5-.91.41-.22.82-.45 1.23-.63.09.32.36.77.22.95-.18.27-.63.36-.95.59zM68.57 80.8c.32.14.59.23.86.36-.13.32-.18.86-.4.91-.28.09-.64-.23-.95-.32.18-.36.31-.63.49-.95zM212.22 123.08c-.09-.09-.23-.18-.32-.27.23.04.5.04.73.09-.18.09-.32.13-.41.18zM104.66 67.55c.27 0 .59.05.86.05-.27.04-.5.04-.77.09 0 .04-.09-.14-.09-.14zM154.73 67.6c-.14.05-.32.14-.32.09-.09-.13-.09-.32-.14-.45.18-.05.37-.09.55-.09-.05.09-.05.27-.09.45zM91.67 66.96l.09.51-.32-.1zM80.57 60.14c.9-.09 1.76-.14 2.67-.23v.63c-.91-.13-1.81-.27-2.67-.4zM179.99 56.75c-.14-.1-.23-.19-.37-.28.14-.04.28-.18.41-.13.14 0 .23.18.37.27-.14 0-.28.04-.41.14zM89.58 56.43l.41-.09-.04.32zM198.86 53.81l.5.22-.5.14zM112.81 54.21c-.19.05-.32.14-.5.18-.05-.22-.09-.45-.14-.67.18.04.36 0 .5.08.14.05.09.28.14.41zM71.24 55.16c0-.54-.04-1.08-.04-1.67.13 0 .32.04.45.04-.18.46-.41.95-.59 1.4.05.05.18.23.18.23zM196.06 54.3c.04-.5.09-1.04.13-1.53-.04.49-.04.99-.09 1.49zM200.27 48.83l.46.23-.51.14zM87.09 47.2c-.09.14-.23.32-.32.46-.09-.19-.22-.37-.18-.55 0-.18.18-.31.32-.45.04.18.13.36.18.54zM56.26 37.75l.5-.13-.09.36zM92.79 35.22c-.18.14-.31.41-.45.41-.32-.09-.63-.32-.95-.45.13-.14.32-.41.41-.41.36.09.68.27.99.45zM26.02 29.03c-.23.22-.45.5-.73.59-.09.04-.36-.37-.45-.59-.04-.05.23-.36.27-.36.32.04.59.18.91.36zM203.75 105.94c.5-.41 1.05-.77 1.54-1.17.14.31.28.58.46.9-.68.04-1.41.09-2.09.14 0 .04.09.13.09.13zM70.07 85.37c-.18.09-.32.22-.46.18-.13 0-.27-.18-.4-.27.13-.09.31-.23.45-.18.14 0 .27.18.41.27zM149.7 75.29c-.32.13-.64.27-1 .31-.09 0-.22-.27-.36-.41.32-.13.63-.27.95-.31.14-.05.27.22.41.41zM154.73 70.54l-.32-.32c.14-.04.27-.18.41-.18.13.04.23.18.32.32-.14.04-.28.13-.41.18zM165.27 69.09c-.31.13-.63.27-.95.32-.09 0-.22-.28-.36-.41.32-.14.63-.27.95-.32.09-.04.23.23.36.41zM74.28 68.95c-.27.14-.54.32-.86.41-.05 0-.23-.27-.32-.41.32-.13.59-.31.91-.45.04 0 .18.27.27.45zM202.9 126.61s0 .04.04.04c0 .05-.04-.04-.04-.04zM192.53 55.8c.04.13.09.27.13.41.05-.19.09-.32.14-.51-.09.1-.23.19-.37.32 0 .05.1-.22.1-.22zM73.24 40.56c-.09-.05-.22-.05-.32-.09.05.09.1.18.14.27 0-.14.05-.23.05-.36zM86.73 60.46l-.14-.46.41.05z"/><path d="M-.29 72.17c4.05-2.15 8.35-3.7 13.18-3.94-.28 3.93-.5 7.14-.73 10.31-.36.68-.72 1.4-1.09 2.08-1.76-3.12-3.89-4.16-6.83-1.54-.09.82-.18 1.58-.27 2.4-.59-.05-1.23-.09-1.81-.14 0 .18 0 .36-.05.59.59-.18 1.13-.36 1.72-.59l.41-2.26c2.49-.36 3.98 4.16 6.93 1.58.31-.72.58-1.49.9-2.21 2.58-.32 5.16-.63 7.88-.95-2.27 4.88-2.27 4.88 7.69 4.25.77-1.58 1.45-2.99 2.18-4.43l-.18-.14h2.58l-.05.14c1.59-.63 3.21-1.22 4.8-1.86.32.28.63.59.91.86-2.54 2.18-5.07 4.39-7.66 6.56-1.53 1.18-3.12 2.4-4.57 3.53 1.45.95 3.17 2.12 4.94 3.3 0 .04-.05.09-.09.18.09-.09.13-.18.22-.27.91-.09 1.81-.14 2.45-.23-1.04-2.26-2.04-4.38-2.99-6.46 3.39 1.22 6.74 2.48 10.77 3.93v-5.65c1.14.09 2.31.18 3.54.27-.37-.36-.77-.77-1.14-1.13l.05.04c2.62-.99 5.29-1.99 8.64-3.25-1.71-.91-2.67-1.4-3.66-1.9l-.09.13c4.75-2.57 9.46-5.33 14.35-7.64 1.45-.68 3.39-.18 5.07-.27l-.14-.22c.86.49 1.72.94 2.63 1.44l-.23-.22c.46.49.91.95 1.36 1.44l-.13-.18c5.29 3.53 9.14-.72 13.21-2.89 7.84-4.12 15.49-8.59 23.27-12.84.73-.41 1.77-.23 4.76-.55-3.26 4.25-5.48 7.06-7.65 9.91.13.4.27.81.4 1.22 2.95-.95 5.84-1.9 8.79-2.81 3.44-1.04 6.83-2.17 10.32-2.98.72-.18 2.44.9 2.4 1.08-.27 1.27-.59 2.85-1.45 3.53-6.02 4.57-12.18 8.91-18.29 13.43-1.99 1.45-3.8 3.12-5.02 4.12 4.48-.41 9.37-.68 14.21-1.27 2.26-.27 4.48-1.09 6.7-1.67 1.99-.5 3.98-.95 5.98-1.4.49.58.99 1.22 1.44 1.8-1.58 2.08-2.76 4.75-4.79 6.11-4.26 2.85-9.01 4.84-13.4 7.5-7.7 4.75-15.31 9.68-22.87 14.7-1.08.72-1.72 2.13-3.07 3.93 4.3-1.71 7.74-3.12 11.22-4.52l-.09-.13c.86 1.08 1.72 2.21 2.81 3.61.5-1.35.9-2.53 1.31-3.75.63.63 1.27 1.22 1.9 1.85-1.31 1.63-2.67 3.22-4.34 5.25.31.63.95 2.08 1.63 3.48-.46-.13-.91-.22-1.41-.36-.9 2.4-1.76 4.79-2.67 7.19l.05-.09c-.68.41-1.36.86-2.04 1.26.63.73 1.31 1.5 1.95 2.22l.04.09c2.45-.09 4.94-.18 7.38-.22-.18 1.89-.36 3.79-.63 6.96 1.63-2.08 2.67-3.39 4.25-5.38v7.82c6.16-.36 12.32-.72 18.47-1.04l-.13.14h25.21c-.04.45-.04.9-.09 1.35-5.79 1.77-11.59 3.58-17.38 5.34-1.54.04-3.08.09-4.57.13-.37.37-.73.73-.23.28-.18.58-.05.09.14-.46h4.66c-.59 1.09-1.18 2.17-1.77 3.26l-.13-.18c1.35-.14 2.76-.18 4.12-.36 4.62-.55 9.28-1.45 12.04 3.43-1.9 1.18-4.39 2.22-6.07 4.07-.63.68.64 3.26.77 3.8 5.71 1.09 10.55 1.99 15.4 2.94l-.14-.14c.32 1.09.63 2.13.77 2.58-2.67.54-4.94 1-7.24 1.45l-11.96 2.58c4.98 2.89 8.56.49 11.91-2.67-.54 1.31-1.13 2.62-1.81 4.29 7.02 2.58 15.39-4.38 21.96 3.4l-4.71 3.43c4.62 1.22 8.24 2.17 12.4 3.26-.09.41.14-.59.32-1.58 9.96 2.3 6.97 11.53 8.24 18.17 9.1.32 17.25-1.26 24.76-6.01 4.36-2.77 8.17-2.87 11.08 2.09v2.86c-4.96 1.82-9.99 3.7-15.06 5.58.27.91.5 1.86.77 2.76 4.79-.89 9.55-1.95 14.29-3.11v3.39c-.51.1-1.02.19-1.53.27-4.75.67-5.79 3.39-3.8 7.41 1.87.17 3.62.34 5.33.5v2.82l-4.75 2.03H199c-.13-.11-.25-.19-.37-.19-.16 0-.31.08-.47.19H-.29V83.18l.27-.21-.27-.28V72.17zm75.79 55.07c-.09-.54-.18-1.04-.32-1.58.63-.09 1.27-.14 1.9-.23.32-.09.63-.23.95-.32-.32.14-.63.28-.95.41-.54.63-1.09 1.31-1.63 1.9.09.09.18.14.32.23-.14-.14-.18-.27-.27-.41zm19.24-7.82l-.23.18s.09-.36.14-.32c.31.09.63.18.95.23v-.73c-.28.23-.59.46-.86.64zM17.86 92.38c-.45.99-.9 1.94-1.35 2.94.45.13.86.22 1.31.36v-3.35c.41-.59.81-1.18 1.27-1.76.59.31 1.18.63 1.72.95 1.63.09 3.3.18 4.93.22-.04-.54-.09-1.08-.13-1.63-1.63.5-3.26.96-4.89 1.41.04-.64.13-1.27.18-1.9-.63.36-1.27.72-1.9 1.08-.32.55-.73 1.09-1.14 1.68zM63.5 194.34c-1.09 1.04-2.17 2.08-3.26 3.12.36.32.77.64 1.13.95.68-1.31 1.4-2.62 2.08-3.89.46-.04.95-.13 1.41-.18v.59c-.46-.23-.91-.41-1.36-.59zM61.69 89.62l-4.76 1.35c.32.59.64 1.23.96 1.81 1.22-1.13 2.44-2.21 3.66-3.3.55-.09 1.04-.13 1.59-.22-.09-.18-.18-.32-.27-.5-.41.27-.77.54-1.18.86zm94.34 100.88c2.18-.63 4.35-1.4 6.57-1.9 4.21-.95 8.55-1.58 10.86-6.47-8.55-1.99-15.16 1.36-17.34 8.46-6.56-4.57-10.59 1.54-15.39 4.39 5.07-1.5 10.19-2.99 15.3-4.48zm30.74 15.55c.23.64.46 1.32.64 1.95 6.43-2.44 12.85-4.93 19.28-7.37-.18-.59-.36-1.18-.59-1.77-7.47-.81-12.4 6.2-19.33 7.19zm-41.83-28.3c5.12-1.31 9.51-2.44 13.9-3.58-4.53-1.04-8.92-.81-13.31-.27-.36.05-.41 2.58-.59 3.85zM50.6 201.89c-2.58-.4-4.67-.72-6.88-1.08-.18 1.27-.59 3.57-1.05 6.6 2.86-1.99 5.3-3.66 7.93-5.52zm-6.34-85.82c.23.5.45.95.63 1.45 1.99-1.04 3.99-2.08 5.98-3.08-.23-.5-.45-.95-.68-1.44-1.99 1.04-3.94 2.03-5.93 3.07zm87.24 38.21c-.19-.59-.32-1.18-.5-1.76-1.5.49-2.94.99-4.44 1.49.18.63.41 1.22.59 1.85 1.45-.5 2.9-1.04 4.35-1.58zm-9.6 35.13c.04-.63.09-1.31.14-1.94-2.09.36-4.17.68-6.25 1.04.04.32.04.59.09.9zM9.9 97.62c.04.5.04 1 .09 1.49.72-.22 1.49-.4 2.22-.67.04 0-.05-.77-.14-.77-.72-.09-1.45-.05-2.17-.05zm103.49 46.62c2.22.59 2.76.86 2.85.72.32-.4.45-.95.68-1.4-.63.14-1.22.23-3.53.68zm18.29 23.38c-.18-.36-.27-.86-.55-1-.27-.13-.68.18-1.04.28.23.4.41.85.73 1.22.04.04.54-.32.86-.5zm-69.49-37.08l-.14-.36c-.32.09-.63.18-.9.27.04.14.09.32.18.45.27-.13.54-.27.86-.36zm25.3-4.16c.55.36.82.54 1.14.77.18-.36.4-.72.58-1.09-.49.09-.99.18-1.72.32zm-32.05 71.67c-.27.27-.54.5-.77.77.32.32.59.59.91.9.18-.31.45-.63.5-.99-.05-.18-.41-.45-.64-.68zm75.06 0c-.27-.14-.5-.36-.81-.45-.09-.05-.37.27-.37.31.14.23.32.46.5.68.23-.18.45-.36.68-.54zm49.57-5.24c-.13-.05-.31-.14-.45-.19-.05.23-.05.5-.09.73.18 0 .36.04.45-.05s.05-.31.09-.49zM82.15 79.44c.27-.13.54-.27.82-.4-.1-.14-.28-.41-.32-.36-.32.08-.59.27-.86.4.13.09.22.23.36.36zm9.1 44.68c-.09-.14-.23-.36-.32-.36-.13 0-.27.18-.36.31.09.14.23.36.32.36s.22-.22.36-.31zm-20.64-12.89l-.18.36h.36zm14.57 23.88c-.13-.09-.27-.14-.4-.23v.86c.13-.04.31-.09.4-.23.05-.09 0-.27 0-.4zm-3.44 1.4c-.13-.14-.31-.41-.45-.41s-.36.27-.36.41c0 .13.22.41.36.41s.27-.23.45-.41zm-33.32 61.63c-.09-.14-.18-.36-.31-.36-.09 0-.23.18-.37.27.1.14.19.36.32.36.09.05.23-.18.36-.27zm82.13-16.32c-.14-.14-.23-.41-.37-.46-.13 0-.31.23-.45.37.14.13.23.4.36.45.14 0 .32-.23.46-.36z"/></g><path d="M58.21 26C26.13 26-.18 52.32-.18 84.39c0 31.65 19.79 60.51 44.49 83.38 12.84 11.93 28.16 23.24 40.21 31.54a502.39 502.39 0 0015.02 9.96 391.202 391.202 0 005.56 3.48l.31.19.08.05.03.01 1.61.98 1.62-.98.03-.01.08-.05.3-.19c.28-.17.67-.41 1.18-.73 1.03-.63 2.52-1.56 4.39-2.75 3.73-2.38 8.98-5.8 15.01-9.96 12.06-8.3 27.37-19.61 40.21-31.53 27.47-25.18 44.5-51.78 44.5-83.39 0-32.07-26.31-58.39-58.39-58.39-20.52 0-38.63 10.74-48.93 26.43C96.84 36.74 78.72 26 58.21 26zm48.92 184.33l-1.61 2.67zm1.62 2.67l-1.62-2.67z" fill="none"/><g fill="#034752" fill-rule="nonzero"><path d="M165.43 16.63c-9.83 0-19.05 2.77-26.89 7.49-8.2 4.92-14.91 11.99-19.28 20.28l-2.75 5.25-2.76-5.25c-4.36-8.28-11.07-15.35-19.27-20.28-7.85-4.72-17.07-7.49-26.9-7.49-14.31 0-27.35 5.88-36.8 15.34-9.46 9.46-15.34 22.49-15.34 36.8 0 13.61 3.99 26.77 10.63 39.16 7.72 14.39 19.02 27.77 31.85 39.65 21.98 20.4 51.45 39.06 58.58 43.47 7.14-4.41 36.63-23.08 58.58-43.47l.03-.01c13.34-12.24 24.01-24.67 31.31-37.73 7.22-12.9 11.15-26.44 11.15-41.07 0-14.31-5.88-27.34-15.33-36.8-9.46-9.46-22.5-15.34-36.81-15.34zm-30.11 2.15c8.79-5.3 19.11-8.4 30.11-8.4 16.04 0 30.64 6.58 41.22 17.17 10.59 10.59 17.17 25.19 17.17 41.22 0 15.73-4.22 30.27-11.95 44.1-7.64 13.66-18.72 26.59-32.54 39.27-25.62 23.79-61.11 45.18-61.21 45.24l-1.6.96-1.61-.96c-.11-.06-35.63-21.47-61.23-45.24-13.29-12.32-25.03-26.24-33.1-41.28C13.46 97.58 9.19 83.45 9.19 68.77c0-16.03 6.58-30.63 17.17-41.22 10.58-10.59 25.19-17.17 41.22-17.17 11.01 0 21.32 3.1 30.12 8.39a58.905 58.905 0 0118.81 18.05c4.77-7.27 11.22-13.48 18.81-18.04z"/><path d="M150.25 72.87c-6.6 0-12.79 1.85-18.05 5.02-5.51 3.31-10.01 8.05-12.94 13.61l-2.75 5.24-2.76-5.24c-2.93-5.56-7.43-10.3-12.94-13.61a34.9 34.9 0 00-18.04-5.02c-9.61 0-18.35 3.94-24.7 10.29s-10.29 15.09-10.29 24.7c0 9.21 2.7 18.14 7.21 26.55 5.27 9.82 12.99 18.96 21.77 27.09 14.63 13.58 34.1 26.04 39.75 29.55 5.64-3.51 25.11-15.97 39.74-29.55l.02-.02c9.13-8.36 16.42-16.86 21.4-25.77 4.9-8.75 7.57-17.94 7.57-27.85 0-9.61-3.95-18.35-10.3-24.7-6.34-6.35-15.09-10.29-24.69-10.29zm-21.27-.33c6.21-3.74 13.5-5.92 21.27-5.92 11.33 0 21.64 4.64 29.11 12.12 7.48 7.48 12.13 17.79 12.13 29.12 0 11.01-2.96 21.2-8.37 30.88-5.32 9.51-13.03 18.51-22.63 27.31-17.72 16.47-42.31 31.29-42.38 31.33l-1.6.96-1.6-.96c-.07-.04-24.67-14.86-42.39-31.32-9.24-8.57-17.4-18.25-23.02-28.72-4.98-9.3-7.97-19.2-7.97-29.48 0-11.33 4.64-21.64 12.12-29.12s17.79-12.12 29.12-12.12c7.76 0 15.06 2.18 21.26 5.92 4.94 2.97 9.2 6.93 12.48 11.56 3.27-4.63 7.53-8.59 12.47-11.56z"/></g></svg>