<svg clip-rule="evenodd" fill-rule="evenodd" height="224" image-rendering="optimizeQuality" shape-rendering="geometricPrecision" text-rendering="geometricPrecision" width="224" xmlns="http://www.w3.org/2000/svg"><clipPath id="a" clip-rule="nonzero"><path d="M166.64 51.74l.44.42c33.13 31.59 33.13 82.81 0 114.4l-60.43 57.62-60.42-57.62c-33.13-31.59-33.13-82.81 0-114.4l.44-.42c33.13-32.02 86.84-32.02 119.97 0z"/></clipPath><clipPath id="b" clip-rule="nonzero"><path d="M166.64 51.74l.44.42c33.13 31.59 33.13 82.81 0 114.4l-60.43 57.62-60.42-57.62c-33.13-31.59-33.13-82.81 0-114.4l.44-.42c33.13-32.02 86.84-32.02 119.97 0z"/></clipPath><g clip-path="url(#a)"><path d="M21.38 27.73h170.55v196.45H21.38z" fill="none"/></g><g clip-path="url(#b)"><path d="M56.19 73.89l-.14-.48.43.05zM42.04 53c-.09-.04-.24-.04-.33-.09.04.09.09.19.14.29 0-.15.05-.24.05-.39zm27.89-20.93c-.15-.14-.38-.33-.34-.47 0-.15.29-.29.43-.43.14.14.38.33.34.48 0 .14-.29.28-.43.42zM167.24 69c.05.14.1.29.15.43l.14-.53c-.09.1-.24.19-.38.34 0 .05.09-.24.09-.24zm24.72 51.45c-.15.04-.29.04-.43.09.09.1.14.2.24.34 0-.14-.05-.34-.05-.48.05 0 .24.05.24.05zm-13.83 22.87s0 .06.05.06c0 .05-.05-.06-.05-.06zm-135-60.51c-.29.14-.57.33-.9.43-.05 0-.24-.29-.34-.43.34-.14.62-.33.95-.48.05 0 .19.29.29.48zm95.51.14c-.33.14-.66.29-1 .33-.09 0-.24-.28-.38-.42.34-.15.67-.29 1-.34.09-.04.24.24.38.43zm-11.07 1.52c-.1-.09-.24-.24-.33-.33.14-.05.28-.19.43-.19.14.04.23.19.33.33-.14.05-.29.14-.43.19zm-5.28 4.98c-.33.15-.66.29-1.04.34-.1 0-.24-.29-.38-.43.33-.14.66-.29.99-.33.15-.05.29.23.43.42zm-83.58 10.59c-.19.09-.33.24-.48.19-.14 0-.28-.19-.43-.29.15-.09.34-.23.48-.19.14 0 .29.19.43.29zm140.32 21.59c.52-.42 1.09-.8 1.62-1.23.14.33.28.62.47.95-.71.04-1.47.09-2.18.14 0 .05.09.14.09.14zM62.56 47.4c-.19.14-.33.43-.47.43-.34-.09-.67-.33-1-.47.14-.15.33-.43.43-.43.38.09.71.28 1.04.47zm-38.35 2.66l.53-.14-.09.38zm32.37 9.92c-.1.14-.24.33-.34.47-.09-.19-.23-.37-.19-.57 0-.18.19-.33.34-.47.04.19.14.38.19.57zm118.79 1.71l.48.24-.53.14zm-4.42 5.74c.05-.52.1-1.09.15-1.61-.05.52-.05 1.04-.1 1.56zm-131.01.9c0-.57-.04-1.14-.04-1.75.14 0 .33.04.47.04-.19.48-.43 1-.62 1.47.05.05.19.24.19.24zm43.63-.99c-.19.04-.33.14-.52.19l-.15-.72c.19.05.38 0 .53.1.14.05.09.28.14.43zm90.32-.43l.53.24-.53.14zm-114.7 2.75l.43-.09-.05.33zm94.9.34c-.15-.1-.24-.2-.39-.29.15-.05.29-.19.43-.14.15 0 .24.19.38.28a.72.72 0 00-.42.15zM49.73 73.55c.95-.09 1.85-.14 2.8-.23v.66c-.95-.14-1.9-.29-2.8-.43zm11.65 7.17l.1.53-.34-.1zm66.19.67c-.14.05-.33.15-.33.1-.1-.15-.1-.34-.15-.48.19-.05.39-.1.58-.1-.05.1-.05.29-.1.48zm-52.56-.05c.29 0 .62.05.91.05-.29.04-.52.04-.81.09 0 .05-.1-.14-.1-.14zm112.91 58.28c-.1-.09-.24-.19-.34-.28.24.04.53.04.76.09-.19.1-.33.14-.42.19zM37.14 95.25c.33.14.62.23.9.37-.14.34-.19.91-.42.95-.29.1-.67-.23-1-.33.19-.38.33-.66.52-.99zm3.14-2.05c-.19-.33-.34-.62-.53-.95.43-.23.86-.47 1.29-.66.09.33.38.81.23.99-.19.29-.66.39-.99.62zm67.85-1.7c.81 0 1.67 0 2.47.04l.05-.14h-2.71zm10.08-1.14c-.05-.72-.14-1.43-.19-2.14.43.05.9.05 1.33.09-.14.72-.28 1.38-.43 2.09-.19-.04-.42-.04-.71-.04zm-1.62-4.94c-.14.33-.29.66-.38 1.04-.29-.19-.71-.33-.81-.61-.09-.24.24-.62.33-.95.29.14.57.33.86.52zM48.5 83.85c-.15.33-.29.67-.43 1-.33-.14-.86-.24-.9-.48-.1-.33.19-.71.33-1.09.33.24.66.43 1 .57zM73.49 69.9c-.38.14-.71.38-.99.28-.19-.04-.24-.61-.38-.95.28-.09.66-.42.85-.33.24.24.33.67.52 1zM49.4 59.89v-.48c.24.1.48.19.72.24-.1.14-.15.38-.29.38-.1.05-.29-.09-.43-.14zm128.77 79.83c.95-.43 1.95-.86 2.9-1.33.05.38.09.75.19 1.13-1 0-2 0-2.99.05a.72.72 0 00-.1.15zM38.57 48.59c-.29.24-.52.47-.81.71-.19-.33-.43-.62-.57-.95-.05-.09.33-.43.38-.43.33.19.66.43 1 .67zm149.01 86.81c.62-.34 1.19-.76 1.81-1 .14-.05.47.52.71.85-.67.38-1.33.81-2 1.19-.14-.38-.33-.71-.52-1.04zM41.75 71.66c.47-.76 1-1.52 1.47-2.28.24.28.48.57.76.85-.81.43-1.61.85-2.42 1.33 0-.05.19.1.19.1zm5.61-4.75c-.81.43-1.29.66-1.76.9-.24-.47-.57-.95-.62-1.47 0-.19.67-.71.9-.67.48.19.81.67 1.48 1.24zm8.5-4.7c.43.71.95 1.19.9 1.57-.09.37-.85.95-1.14.85-.43-.19-.85-.81-.95-1.28-.05-.19.67-.62 1.19-1.14zm110.39.57c-.81.43-1.62.85-2.43 1.33-.19-.29-.33-.52-.52-.81.76-.57 1.47-1.14 2.24-1.66.23.33.47.71.71 1.14zm-97.08-4.65c.24-.67.43-1.33.67-1.99.43.57.9 1.13 1.33 1.75-.71.05-1.43.05-2.19.1 0-.1.19.14.19.14zm-15.11-9.87c-.29.19-.57.42-.86.61-.19-.42-.42-.85-.61-1.28.33-.14.76-.43.99-.33.24.05.34.62.48 1zm62.91 34.08c-.15.33-.24.8-.48.9-.24.09-.62-.19-.95-.29.14-.33.19-.85.48-.99.19-.1.66.23.95.38zM64.98 54.62c-2.09-1.29-2.9-1.81-3.75-2.28.71-.24 1.47-.57 2.18-.57.29 0 .53.9 1.57 2.85zm109.67 3.56c-.56-.86-1.13-1.66-1.75-2.52.47-.29.9-.57 1.38-.81.42.95.9 1.9 1.32 2.85-.33.14-.61.33-.95.48zm-40.91 22.45c-.57-.67-.9-1.14-1.28-1.57.43-.24.9-.57 1.33-.62.29-.05.86.52.81.67-.1.47-.43.9-.86 1.52zm-6.08 8.59c-1.09-.15-2.14-.29-4.61-.62 2.09-1.09 3.14-1.61 4.18-2.18.1.99.19 1.94.29 2.94.04.05.14-.14.14-.14zM28.73 50.25c1 .24 2 .47 3.04.71-.05.38-.09.76-.14 1.19-1.05-.1-2.04-.14-3.09-.24.05-.57.09-1.09.19-1.66zm117.18 25.91c-1.29-.14-2.62-.33-3.9-.47 0-.33-.05-.66-.05-1h4.09c-.05.53-.09 1-.14 1.47zM171 67.38c.28 4.56-2.19 1.9-3.76 1.62l-.09.23c1.23-.61 2.52-1.23 3.75-1.85zm21.1 74.19c-.43-1.38-.81-2.71-1.24-4.08.52-.24 1.05-.48 1.62-.72.62 1.28 1.23 2.57 1.85 3.85-.76.33-1.52.66-2.23.95zM80.57 72.13c-1.28-.38-2.52-.81-3.8-1.19.09-.57.24-1.14.33-1.66 1.33.19 2.61.43 3.95.62-.15.76-.29 1.52-.48 2.23zm112.85 58.09l-2.28-4.98c.62-.14 1.29-.33 1.9-.47.15 1.8.29 3.6.38 5.45zm-1.66-9.82c-1.28 1.14-2.56 2.28-3.75 3.27-.14-4.79-.14-4.79 3.95-3.22zm-7.07-68.3c-.53 1.76-1.05 3.51-1.62 5.27-.57-.24-1.14-.43-1.71-.66.62-1.81 1.28-3.56 1.9-5.37.48.24.95.48 1.43.76zM57.72 63.44c.9-1.66 1.85-3.37 2.75-5.03.57.33 1.15.62 1.72.95-.77 1.8-1.57 3.56-2.33 5.37-.76-.48-1.43-.91-2.14-1.29zm11.26-5.55c-.52 6.08-1.47 7.12-6.32 5.55 2.42-1.99 4.47-3.7 6.51-5.36zM49.73 73.55v6.41c-4.04-3.18-4.04-3.18 0-6.41zm98.22 7.55c1.95-.85 3.85-1.71 5.8-2.56.38.71.81 1.37 1.19 2.09-1.14.94-2.23 1.89-3.37 2.84l.14.19c-.47-.52-.95-.99-1.43-1.52l.24.24c-.9-.52-1.8-.99-2.75-1.52zm13.5-8.73c.43.8.8 1.61 1.23 2.42-1.61-.24-3.23-.43-5.32-.71 2-3.14 3.33-5.22 4.66-7.36.28.09.57.24.8.33-.37 1.76-.76 3.51-1.14 5.27-.09-.14-.23-.24-.33-.33.05.14.1.24.1.38zM25.31 92.44c2.61-2.18 5.46-4.6 9.07-7.64 1.05 2.09 2.33 4.13 2.9 6.41.1.47-2.52 1.71-4.89 3.23-1.24-.34-4.09-1.14-7.08-2zm49.8-10.91c-2.43.99-4.85 1.99-7.32 2.94-1.38-3.8 4.09-10.3 10.78-11.68-1.42 3.37-2.51 5.94-3.56 8.5zm1.18-4.94l.19-.33-.33-.05zM.66 90.92c1.1-.42 2.22-.84 3.31-1.28.33.29.66.62.95.9-1.42 1.22-2.84 2.45-4.26 3.67zm0 7.95c2.33.85 4.76 1.75 7.49 2.73v-5.93c1.19.1 2.42.19 3.71.29l-1.19-1.19.05.05c2.75-1.05 5.56-2.09 9.07-3.42-1.8-.95-2.8-1.47-3.85-1.99l-.09.14c4.99-2.71 9.93-5.6 15.06-8.02 1.52-.71 3.56-.19 5.32-.29l-.14-.24c.9.53 1.81 1 2.76 1.52l-.24-.23c.47.52.95.99 1.42 1.51l-.14-.18c5.56 3.7 9.6-.76 13.88-3.04 8.22-4.32 16.25-9.02 24.42-13.48.76-.43 1.85-.24 4.99-.57-3.42 4.46-5.75 7.4-8.03 10.39.14.43.29.86.43 1.29 3.09-1 6.13-2 9.22-2.95 3.61-1.09 7.17-2.28 10.83-3.13.76-.19 2.57.95 2.52 1.14-.29 1.33-.62 2.99-1.52 3.7-6.32 4.79-12.78 9.35-19.2 14.1-2.09 1.51-3.99 3.27-5.27 4.32 4.7-.43 9.83-.72 14.92-1.33 2.37-.29 4.7-1.14 7.03-1.76 2.09-.52 4.18-1 6.27-1.47.53.62 1.05 1.28 1.52 1.9-1.66 2.18-2.9 4.98-5.03 6.4-4.47 3-9.46 5.08-14.07 7.88-8.08 4.99-16.06 10.16-24 15.43-1.14.76-1.8 2.23-3.23 4.13 4.52-1.8 8.13-3.28 11.79-4.75l-.1-.14c.9 1.14 1.81 2.33 2.95 3.8.52-1.43.95-2.66 1.38-3.94.66.66 1.33 1.28 1.99 1.94-1.38 1.71-2.8 3.37-4.56 5.51.33.66 1 2.18 1.71 3.65-.47-.14-.95-.23-1.47-.38-.95 2.52-1.86 5.03-2.81 7.55l.05-.09c-.71.42-1.42.9-2.14 1.32l2.05 2.33.04.1c2.57-.1 5.18-.19 7.75-.24-.19 1.99-.38 3.99-.67 7.31 1.72-2.19 2.81-3.56 4.47-5.65v8.21c6.46-.38 12.93-.76 19.39-1.09l-.14.14h26.47c-.05.48-.05.95-.1 1.43-6.08 1.85-12.17 3.74-18.25 5.6-1.61.04-3.23.09-4.8.14-.38.38-.76.76-.24.28-.19.62-.04.1.15-.47h4.89c-.62 1.14-1.23 2.28-1.85 3.41l-.14-.18c1.42-.15 2.9-.2 4.32-.38 4.85-.57 9.74-1.52 12.64 3.6-2 1.24-4.61 2.33-6.37 4.27-.66.72.67 3.42.81 3.99 5.99 1.14 11.07 2.09 16.16 3.09l-.15-.15.81 2.71c-2.8.57-5.18 1.04-7.6 1.52-4.18.9-8.36 1.8-12.55 2.7 5.23 3.04 8.99.52 12.5-2.8-.57 1.38-1.19 2.76-1.9 4.51 7.37 2.71 16.16-4.6 23.05 3.56-1.43 1.05-2.66 1.95-4.94 3.61 4.84 1.28 8.64 2.28 13.02 3.42-.1.42.14-.62.33-1.67 10.45 2.43 7.32 12.11 8.65 19.08 9.55.34 18.1-1.32 25.99-6.31 5.23-3.32 9.69-2.99 12.88 4.75-5.61 2.04-11.31 4.17-17.06 6.31.28.95.52 1.95.8 2.9 13.46-2.52 26.68-6.24 39.9-9.97v3.71l-9.58 2.27c.1.57.19 1.14.29 1.71 1.94-.33 3.94-.62 5.89-.95-2.95 4.65-5.66 4.17-10.31 2.61-3.76-1.28-8.51.57-12.78 1.19-3.71.52-5.26 2.23-4.97 4.79h-25.26c4.72-1.8 9.44-3.62 14.16-5.41-.19-.62-.38-1.24-.61-1.85-7.33-.8-12.34 5.58-18.91 7.26H12.4c2.01-1.39 3.89-2.69 5.87-4.08-2.71-.43-4.89-.76-7.22-1.14-.16 1.08-.47 2.88-.83 5.22H.66V98.87zm43.75 45.12c-.1-.57-.19-1.09-.34-1.66.67-.1 1.33-.15 2-.24.33-.1.66-.24 1-.33-.34.14-.67.28-1 .42-.57.67-1.14 1.38-1.71 2 .09.09.19.14.33.23-.14-.14-.19-.28-.28-.42zm20.19-8.21l-.24.19s.1-.38.15-.34c.33.1.66.19.99.24v-.76c-.28.24-.61.48-.9.67zm-32.79 78.64c-1.14 1.09-2.28 2.19-3.42 3.28.38.33.81.66 1.19.99.71-1.37 1.47-2.75 2.19-4.08.47-.05.99-.14 1.47-.19v.62c-.48-.24-.95-.43-1.43-.62zm-1.9-109.92c-1.66.47-3.32.95-4.99 1.42.34.62.67 1.28 1 1.9 1.28-1.18 2.57-2.33 3.85-3.46.57-.1 1.09-.15 1.66-.24-.09-.19-.19-.33-.28-.52-.43.28-.81.57-1.24.9zm99.03 105.89c2.28-.67 4.56-1.47 6.89-2 4.42-.99 8.98-1.66 11.41-6.78-8.98-2.09-15.92 1.42-18.2 8.87-6.89-4.79-11.12 1.62-16.16 4.61 5.32-1.57 10.69-3.14 16.06-4.7zM117.3 197c5.37-1.37 9.98-2.56 14.59-3.75-4.75-1.09-9.36-.85-13.97-.28-.38.05-.43 2.7-.62 4.03zM11.62 132.26c.24.53.47 1 .66 1.52 2.09-1.09 4.18-2.18 6.28-3.22-.24-.53-.48-1-.72-1.52-2.09 1.09-4.13 2.13-6.22 3.22zm91.57 40.11c-.19-.62-.34-1.23-.53-1.85-1.56.52-3.08 1.04-4.65 1.57.19.66.42 1.28.61 1.94 1.52-.52 3.05-1.09 4.57-1.66zm-10.08 36.88c.05-.67.1-1.38.15-2.04-2.19.38-4.38.71-6.56 1.09.04.33.04.62.09.95zm-8.93-47.42c2.33.62 2.9.91 2.99.76.34-.43.48-.99.72-1.47-.67.14-1.29.24-3.71.71zm19.2 24.54c-.19-.38-.29-.9-.57-1.04-.29-.15-.72.19-1.1.28.24.43.43.9.76 1.28.05.05.57-.33.91-.52zm-72.94-38.92c-.05-.14-.15-.38-.15-.38-.33.1-.66.19-.95.29.05.14.1.33.19.47.29-.14.57-.28.91-.38zM57 143.09c.57.38.85.56 1.19.8.19-.38.42-.76.61-1.14-.52.1-1.04.19-1.8.34zm-33.65 75.22c-.28.29-.57.53-.8.81.33.33.61.62.95.95.19-.33.47-.66.52-1.04-.05-.19-.43-.48-.67-.72zm78.79 0c-.28-.14-.52-.38-.85-.47-.1-.05-.39.28-.39.33.15.24.34.48.53.71.24-.19.47-.38.71-.57zm52.03-5.5c-.14-.05-.33-.14-.47-.19-.05.24-.05.52-.1.76.19 0 .38.04.48-.05.09-.1.05-.33.09-.52zM51.39 93.82c.29-.14.57-.29.86-.43-.1-.14-.29-.42-.34-.38-.33.1-.61.29-.9.43.14.09.24.24.38.38zm9.55 46.89c-.09-.14-.23-.38-.33-.38-.14 0-.29.19-.38.34.09.14.24.37.33.37.1 0 .24-.23.38-.33zm-21.67-13.52l-.19.38h.38zm15.31 25.06c-.15-.1-.29-.15-.43-.24v.9c.14-.05.33-.1.43-.24.04-.09 0-.28 0-.42zm-3.62 1.47c-.14-.14-.33-.43-.47-.43s-.38.29-.38.43.24.43.38.43.28-.24.47-.43zm-34.97 64.69c-.09-.14-.19-.38-.33-.38-.1 0-.24.19-.38.28.09.15.19.38.33.38.1.05.24-.19.38-.28zm86.2-17.14c-.14-.14-.24-.42-.38-.47-.14 0-.33.24-.48.38.15.14.24.43.38.47.15 0 .34-.23.48-.38z" fill="#bb9a3b" fill-rule="nonzero"/></g><path d="M166.64 51.74l.44.42c33.13 31.59 33.13 82.81 0 114.4l-60.43 57.62-60.42-57.62c-33.13-31.59-33.13-82.81 0-114.4l.44-.42c33.13-32.02 86.84-32.02 119.97 0z" fill="none"/><g fill="#034752" fill-rule="nonzero"><path d="M175.89 25.15l.45.42c1.01.97 1.99 1.95 2.94 2.94 15.31 16.07 22.97 36.41 22.97 56.75s-7.66 40.68-22.97 56.74c-.95 1-1.93 1.98-2.94 2.94l-62.8 59.88-62.79-59.88c-1.01-.96-2-1.95-2.95-2.94-15.31-16.06-22.97-36.4-22.97-56.74s7.66-40.68 22.97-56.74c.95-1 1.94-1.98 2.95-2.95l.44-.42C68.42 8.5 90.99.18 113.54.18c22.56 0 45.12 8.32 62.35 24.97zm-4.29 5.4l-.46-.44c-15.89-15.36-36.74-23.04-57.6-23.04s-41.71 7.68-57.6 23.04l-.46.44c-.93.88-1.83 1.79-2.7 2.7-14.04 14.73-21.07 33.37-21.07 52.01s7.03 37.28 21.07 52.01c.87.91 1.77 1.81 2.7 2.7l58.06 55.36 58.06-55.36c.93-.89 1.83-1.79 2.7-2.7 14.04-14.73 21.07-33.37 21.07-52.01s-7.03-37.29-21.07-52.01c-.87-.92-1.77-1.82-2.7-2.7z"/><path d="M113.54 119.97c10.46 0 19.93-4.24 26.78-11.09 6.86-6.85 11.1-16.32 11.1-26.78s-4.24-19.93-11.1-26.78c-6.85-6.86-16.32-11.1-26.78-11.1s-19.93 4.24-26.78 11.1c-6.85 6.85-11.09 16.32-11.09 26.78s4.24 19.93 11.09 26.78 16.32 11.09 26.78 11.09zm31.65-6.22c-8.1 8.1-19.29 13.11-31.65 13.11s-23.55-5.01-31.65-13.11S68.78 94.46 68.78 82.1s5.01-23.55 13.11-31.65 19.29-13.11 31.65-13.11 23.55 5.01 31.65 13.11S158.3 69.74 158.3 82.1s-5.01 23.55-13.11 31.65z"/><path d="M91.63 79.45l17.93 14.83 21.82-31.36 5.65 3.93-26.09 37.5-23.69-19.6z"/></g></svg>