<svg clip-rule="evenodd" fill-rule="evenodd" height="224" image-rendering="optimizeQuality" shape-rendering="geometricPrecision" text-rendering="geometricPrecision" width="224" xmlns="http://www.w3.org/2000/svg"><clipPath id="a"><path d="M8.82 3.52c-1.23 0-2.36.66-2.94 1.7-.57 1.04-.5 2.3.19 3.28l65.52 92.33c.62.88 1.65 1.4 2.75 1.4h59.76c1.09 0 2.1-.51 2.72-1.36l67.29-92.34c.71-.97.8-2.24.23-3.29-.58-1.06-1.71-1.72-2.95-1.72h-61.68c-1.11 0-2.14.53-2.76 1.42l-33.09 47.38-32.2-47.35c-.61-.9-1.66-1.45-2.78-1.45H8.82zm96.4 116.35c-29.97 0-54.26 23.36-54.26 52.16 0 28.79 24.29 52.15 54.26 52.15s54.26-23.36 54.26-52.15c0-28.8-24.29-52.16-54.26-52.16z"/></clipPath><clipPath id="b"><path d="M8.82 3.52c-1.23 0-2.36.66-2.94 1.7-.57 1.04-.5 2.3.19 3.28l65.52 92.33c.62.88 1.65 1.4 2.75 1.4h59.76c1.09 0 2.1-.51 2.72-1.36l67.29-92.34c.71-.97.8-2.24.23-3.29-.58-1.06-1.71-1.72-2.95-1.72h-61.68c-1.11 0-2.14.53-2.76 1.42l-33.09 47.38-32.2-47.35c-.61-.9-1.66-1.45-2.78-1.45H8.82zm96.4 116.35c-29.97 0-54.26 23.36-54.26 52.16 0 28.79 24.29 52.15 54.26 52.15s54.26-23.36 54.26-52.15c0-28.8-24.29-52.16-54.26-52.16z"/></clipPath><g clip-path="url(#a)"><path d="M5.5 3.52h199.21v220.66H5.5z" fill="none"/></g><g clip-path="url(#b)"><path d="M38.1 45l-.15-.46.44.05zM23.77 24.72c-.1-.04-.25-.04-.34-.09.04.09.09.19.14.28 0-.14.05-.23.05-.37zM52 4.4c-.14-.14-.39-.32-.34-.46 0-.14.29-.28.44-.42.14.14.38.33.33.46 0 .14-.29.28-.43.42zm98.53 35.85l.15.42c.05-.18.1-.32.14-.51-.09.09-.24.19-.38.33 0 .04.09-.24.09-.24zm25.03 49.96c-.15.05-.29.05-.44.09.1.09.15.19.24.33 0-.14-.04-.33-.04-.47.04 0 .24.05.24.05zm-14 22.21s0 .05.05.05c0 .06-.05-.05-.05-.05zM24.87 53.66c-.29.14-.58.33-.92.42-.05 0-.24-.28-.33-.42.33-.13.62-.32.96-.46.05 0 .19.28.29.46zm96.7.14c-.33.14-.67.28-1.01.32-.09 0-.24-.27-.38-.41.34-.14.67-.28 1.01-.32.09-.05.24.23.38.41zm-11.21 1.48c-.09-.09-.24-.23-.33-.32.14-.05.29-.19.43-.19.15.05.24.19.34.32-.15.05-.29.14-.44.19zm-5.34 4.84c-.34.13-.68.27-1.06.32-.1 0-.24-.28-.38-.42.33-.13.67-.27 1.01-.32.14-.04.28.23.43.42zM20.39 70.39c-.19.09-.34.23-.48.19-.14 0-.29-.19-.43-.28.14-.09.33-.23.48-.19.14 0 .29.19.43.28zm142.08 20.97c.53-.41 1.11-.78 1.63-1.2.15.32.29.6.49.92-.73.05-1.5.1-2.22.14 0 .05.1.14.1.14zm19.68 5.44c-.15-.05-.39-.09-.39-.18 0-.19.1-.37.15-.56.14.05.38.09.38.19.05.18-.05.37-.14.55zM44.54 19.28c-.19.14-.34.42-.48.42-.34-.09-.67-.32-1.01-.46.14-.14.34-.42.43-.42.39.09.72.28 1.06.46zM5.71 21.87l.54-.14-.1.37zm32.77 9.63c-.1.13-.24.32-.33.46-.1-.19-.25-.37-.2-.56 0-.18.2-.32.34-.46.05.19.14.37.19.56zm120.28 1.66l.49.23-.53.14zm-4.47 5.57c.05-.5.1-1.06.14-1.56-.04.5-.04 1.01-.09 1.52zm-132.65.88c0-.56-.05-1.11-.05-1.71.15 0 .34.05.48.05-.19.46-.43.97-.62 1.43.05.04.19.23.19.23zm44.17-.97c-.19.05-.34.14-.53.18-.04-.23-.09-.46-.14-.69.19.05.38 0 .53.1.14.04.09.27.14.41zm91.46-.41l.53.23-.53.14zM41.13 40.9l.44-.09-.05.32zm96.08.32c-.14-.09-.24-.18-.38-.28.14-.04.28-.18.43-.13.14 0 .24.18.39.27-.15 0-.29.05-.44.14zM31.55 44.68c.96-.1 1.88-.14 2.84-.23v.64c-.96-.14-1.93-.27-2.84-.41zm11.8 6.96l.09.51-.34-.09zm67.02.65c-.15.04-.34.14-.34.09-.1-.14-.1-.32-.15-.47.19-.04.39-.09.58-.09-.05.09-.05.28-.09.47zm-53.22-.05c.29 0 .63.04.92.04-.29.05-.53.05-.82.09 0 .05-.1-.13-.1-.13zM183.3 99.66l.54-.14-.05.42zm-11.84 9.17c-.09-.09-.24-.18-.33-.28.24.05.53.05.77.1-.19.09-.34.13-.44.18zm29.02 7.51l-.43.05.09-.28zm-14.81 2.53c-.15.05-.3.19-.44.14-.14 0-.24-.18-.34-.28.29.05.53.1.78.14zm7.25 1.89c-.28-.18-.52-.37-.81-.55.24.23.43.46.67.69zM18.8 65.74c.34.14.63.23.92.37-.15.32-.2.87-.44.92-.29.09-.67-.23-1.01-.32.2-.37.34-.65.53-.97zm3.18-1.98c-.19-.33-.34-.6-.53-.93.43-.23.86-.46 1.3-.64.09.32.38.78.24.97-.19.27-.68.36-1.01.6zm68.7-1.66c.82 0 1.69 0 2.51.04l.04-.13h-2.74zm10.21-1.11c-.05-.69-.15-1.38-.19-2.07.43.04.91.04 1.34.09-.14.69-.29 1.34-.43 2.03-.19-.05-.43-.05-.72-.05zm-1.65-4.79c-.14.32-.28.64-.38 1.01-.29-.18-.72-.32-.82-.6-.1-.23.24-.6.34-.92.29.14.58.32.86.51zM30.3 54.68c-.14.32-.29.64-.43.96-.34-.13-.87-.22-.92-.45-.09-.33.2-.7.34-1.07.34.24.67.42 1.01.56zm25.31-13.55c-.38.14-.72.37-1.01.27-.19-.04-.24-.59-.38-.92.29-.09.67-.41.86-.32.24.23.34.65.53.97zM177.04 99.7c.92-.27 1.79-.55 2.7-.87.05.37.1.73.14 1.06-.96-.05-1.87-.14-2.84-.19zm4 4.01c-.05.19-.1.37-.19.56-.29-.14-.53-.33-.82-.46.24-.19.48-.37.72-.56.15.14.19.32.29.46zM31.22 31.41v-.47c.24.1.48.19.72.24-.09.14-.14.37-.29.37-.09.04-.29-.1-.43-.14zm130.38 77.51c.96-.42 1.97-.83 2.93-1.29.05.37.1.74.19 1.1-1.01 0-2.02 0-3.03.05-.04.05-.09.14-.09.14zM20.25 20.44c-.29.23-.53.46-.82.69-.19-.32-.43-.6-.58-.92-.05-.1.34-.42.39-.42.33.18.67.42 1.01.65zm150.88 84.29c.62-.33 1.2-.74 1.82-.97.15-.05.49.51.73.83-.68.37-1.35.78-2.03 1.15-.14-.37-.33-.69-.52-1.01zM23.47 42.83c.48-.73 1.01-1.47 1.49-2.21.24.28.48.55.77.83-.82.41-1.64.83-2.45 1.29 0-.04.19.09.19.09zm5.68-4.6c-.82.41-1.3.64-1.78.87-.24-.46-.58-.92-.63-1.43 0-.18.67-.69.91-.64.49.18.82.64 1.5 1.2zm8.61-4.57c.43.69.96 1.15.91 1.52-.09.37-.87.92-1.15.83-.44-.18-.87-.78-.97-1.24-.04-.19.68-.6 1.21-1.11zm111.77.56c-.82.41-1.64.83-2.46 1.29-.19-.28-.33-.51-.53-.79.77-.55 1.49-1.1 2.26-1.61.24.32.48.69.73 1.11zm-98.3-4.52c.25-.65.44-1.29.68-1.94.43.56.91 1.11 1.35 1.71-.73.05-1.45.05-2.22.09 0-.09.19.14.19.14zm-15.3-9.59c-.29.19-.57.42-.86.6-.2-.41-.44-.83-.63-1.24.34-.14.77-.42 1.01-.32.24.04.34.6.48.96zm63.7 33.09c-.15.33-.24.79-.48.88s-.63-.19-.97-.28c.15-.32.2-.83.49-.97.19-.09.67.23.96.37zM46.99 26.29c-2.11-1.25-2.93-1.75-3.8-2.21.72-.23 1.5-.55 2.22-.55.28 0 .53.87 1.58 2.76zm111.05 3.46c-.58-.83-1.16-1.62-1.78-2.45.48-.27.91-.55 1.39-.78.44.92.92 1.84 1.35 2.77-.34.13-.63.32-.96.46zm-41.43 21.79c-.57-.64-.91-1.1-1.29-1.52.43-.23.91-.55 1.34-.6.29-.04.87.51.82.65-.1.46-.43.87-.87 1.47zm-6.15 8.35c-1.11-.14-2.17-.28-4.67-.6 2.12-1.06 3.17-1.57 4.23-2.12.1.96.19 1.89.29 2.85.05.05.15-.13.15-.13zm73.27.18c-1.01.65-2.02 1.24-3.07 1.89-.25-.37-.44-.78-.68-1.15 1.01-.6 2.07-1.2 3.08-1.85.24.37.43.74.67 1.11zM10.29 22.05c1.01.23 2.02.46 3.08.69-.05.37-.1.74-.15 1.15-1.06-.09-2.07-.13-3.12-.23.04-.55.09-1.06.19-1.61zm118.64 25.16c-1.3-.14-2.65-.32-3.94-.46 0-.32-.05-.64-.05-.97h4.14c-.05.51-.1.97-.15 1.43zm25.4-8.52c.29 4.42-2.21 1.84-3.8 1.56l-.09.23c1.25-.6 2.55-1.2 3.8-1.79zm21.37 72.03c-.43-1.34-.82-2.63-1.25-3.97.53-.23 1.06-.46 1.63-.69.63 1.25 1.25 2.49 1.88 3.73-.77.33-1.54.65-2.26.93zM62.78 43.29c-1.3-.36-2.55-.78-3.85-1.15.09-.55.24-1.1.33-1.61 1.35.19 2.65.41 4 .6-.15.73-.29 1.47-.48 2.16zM177.04 99.7c-.77-1.61-1.54-3.22-2.31-4.84.63-.14 1.3-.32 1.93-.46.14 1.75.29 3.5.38 5.3zm-1.68-9.54c-1.3 1.11-2.6 2.22-3.8 3.18-.14-4.65-.14-4.65 3.99-3.13zm-7.17-66.31c-.53 1.7-1.06 3.41-1.63 5.11-.58-.23-1.16-.41-1.73-.64.62-1.75 1.29-3.46 1.92-5.21.48.23.96.46 1.44.74zM39.64 34.86c.91-1.61 1.87-3.27 2.79-4.88.58.32 1.15.6 1.73.92-.77 1.75-1.59 3.45-2.36 5.2-.77-.46-1.44-.87-2.16-1.24zm11.4-5.39c-.53 5.9-1.49 6.91-6.4 5.39 2.46-1.93 4.53-3.59 6.59-5.21zm133.8 27.6c2.26-1.15 4.53-2.3 6.79-3.41.29.6.57 1.2.91 1.76-2.21 1.24-4.47 2.48-6.69 3.73-.33-.69-.67-1.39-1.01-2.08zM31.55 44.68v6.22c-4.09-3.09-4.09-3.09 0-6.22zM131 52c1.98-.82 3.9-1.66 5.87-2.48.39.69.82 1.33 1.21 2.02-1.16.93-2.26 1.85-3.42 2.77l.14.18c-.48-.5-.96-.96-1.44-1.47l.24.23c-.91-.51-1.83-.97-2.79-1.48zm13.66-8.48c.44.79.82 1.57 1.26 2.35-1.64-.23-3.28-.41-5.39-.69 2.02-3.04 3.37-5.06 4.71-7.14.29.09.58.23.82.32-.38 1.71-.77 3.41-1.15 5.12-.1-.14-.25-.23-.34-.32.05.13.09.23.09.36zm61.88 12.86c-1.2 6.73-3.23 7.51-8.81 3.64 3.13-1.29 5.68-2.35 8.81-3.64zM6.82 63.02c2.65-2.12 5.54-4.47 9.19-7.42 1.06 2.03 2.36 4.01 2.94 6.22.1.46-2.55 1.66-4.96 3.14-1.25-.33-4.13-1.11-7.17-1.94zm50.42-10.6c-2.45.96-4.9 1.93-7.41 2.86-1.39-3.69 4.14-10 10.93-11.34a602.81 602.81 0 00-3.61 8.25zm1.21-4.79l.19-.33-.34-.04zm-72.2 23.17c1.03.36 2.09.73 3.2 1.11v-5.76c1.2.09 2.45.19 3.75.28-.38-.37-.81-.78-1.2-1.15l.05.04c2.79-1.01 5.63-2.03 9.19-3.31-1.83-.93-2.84-1.43-3.9-1.94l-.1.14C2.3 57.58 7.3 54.77 12.5 52.42c1.54-.69 3.6-.18 5.38-.28l-.14-.23c.91.51 1.83.97 2.79 1.48l-.24-.23c.48.5.96.96 1.44 1.47l-.14-.18c5.63 3.59 9.72-.74 14.05-2.95 8.32-4.2 16.45-8.76 24.73-13.09.77-.41 1.87-.23 5.05-.55-3.47 4.33-5.82 7.19-8.13 10.09.14.41.29.83.43 1.24 3.13-.97 6.21-1.93 9.34-2.85 3.65-1.06 7.26-2.22 10.97-3.05.76-.18 2.59.93 2.54 1.11-.28 1.29-.62 2.9-1.53 3.59-6.4 4.66-12.95 9.08-19.44 13.69-2.12 1.48-4.04 3.18-5.34 4.2 4.76-.42 9.96-.7 15.1-1.29 2.41-.28 4.77-1.11 7.13-1.71 2.11-.51 4.23-.97 6.35-1.43.53.6 1.06 1.25 1.54 1.84-1.69 2.12-2.94 4.84-5.1 6.23-4.53 2.9-9.58 4.93-14.25 7.65-8.17 4.84-16.26 9.86-24.29 14.97-1.16.74-1.83 2.17-3.27 4.01 4.57-1.75 8.22-3.18 11.93-4.6l-.1-.14c.92 1.1 1.83 2.26 2.98 3.68.53-1.38.97-2.58 1.4-3.82.67.64 1.35 1.24 2.02 1.89-1.39 1.66-2.84 3.27-4.62 5.34.34.65 1.01 2.12 1.73 3.55-.48-.14-.96-.23-1.49-.37-.96 2.45-1.87 4.89-2.84 7.33l.05-.09c-.72.41-1.44.87-2.16 1.29.67.74 1.39 1.52 2.07 2.26l.04.09c2.6-.09 5.25-.18 7.85-.23-.2 1.93-.39 3.87-.68 7.1 1.73-2.12 2.84-3.46 4.53-5.49v7.98c6.54-.37 13.08-.74 19.62-1.07l-.14.14h26.8c-.05.46-.05.93-.1 1.39-6.15 1.79-12.31 3.64-18.47 5.44-1.64.04-3.27.09-4.86.13-.39.37-.77.74-.24.28-.19.6-.05.09.14-.46h4.96c-.63 1.1-1.25 2.21-1.88 3.32l-.14-.19c1.44-.14 2.93-.18 4.38-.37 4.9-.55 9.86-1.47 12.79 3.51-2.02 1.2-4.66 2.25-6.44 4.14-.68.69.67 3.32.81 3.88 6.07 1.1 11.21 2.02 16.36 2.99l-.14-.14c.33 1.11.67 2.17.82 2.63-2.84.55-5.25 1.01-7.7 1.47-4.24.88-8.47 1.76-12.7 2.63 5.29 2.95 9.09.51 12.65-2.72-.58 1.34-1.2 2.67-1.92 4.38 7.45 2.63 16.35-4.47 23.33 3.46-1.44 1.01-2.69 1.89-5 3.5 4.9 1.24 8.75 2.21 13.18 3.32-.1.41.14-.6.34-1.62 10.58 2.35 7.41 11.76 8.75 18.53 9.67.32 18.33-1.29 26.32-6.13 5.29-3.23 9.82-2.9 13.04 4.61-5.68 1.98-11.45 4.05-17.27 6.13.29.92.52 1.89.82 2.81 23.02-4.13 45.37-11.6 68.21-16.83v3.58l-14.23 6.94c.33-1.39.53-2.31.72-3-8.18 1.84-16.12 3.64-24.01 5.44.1.55.19 1.1.29 1.66 1.97-.33 3.99-.6 5.96-.92-2.98 4.51-5.72 4.05-10.43 2.53-3.81-1.24-8.62.55-12.95 1.15-5.05.69-6.16 3.46-4.04 7.56 2.69.23 5.15.46 7.6.69.1.6.2 1.2.24 1.8-9.23 3.78-18.47 7.56-27.71 11.29.19.65.43 1.29.63 1.98 25.97-6.43 51.95-12.9 77.93-19.34v17.77a50.843 50.843 0 00-10.62 8.12c3.46 1.06 6.64 1.98 9.76 2.95-1.2 2.44-2.45 4.83-3.65 7.28l.14.18c-1.86.51-3.2 1.23-4.06 2.18H-13.75V70.8zm39.91 42.27c-.1-.56-.19-1.06-.34-1.62.68-.09 1.35-.13 2.02-.23.34-.09.68-.23 1.01-.32-.33.14-.67.28-1.01.42-.57.64-1.15 1.33-1.73 1.93.1.09.19.14.34.23-.15-.14-.19-.27-.29-.41zm20.45-7.98l-.24.19s.09-.37.14-.32c.34.09.67.18 1.01.23v-.74c-.29.23-.62.46-.91.64zm65.34 117.38h3.51c-.1-.37-.2-.69-.24-1.06-1.11.46-2.27.88-3.37 1.29.1.05.19.14.24.19-.05-.14-.1-.28-.14-.42zm-11.79 5.81c1.2-.55 2.4-1.11 3.61-1.66-.58-.64-1.11-1.24-1.69-1.89-.58 1.25-1.2 2.49-1.83 3.73-1.15-.09-2.31-.13-3.46-.23.05.46.05.88.1 1.34 1.1-.46 2.16-.88 3.27-1.29zm-86.75-46.82c-1.16 1.06-2.31 2.12-3.46 3.18.38.32.81.64 1.2.97.72-1.34 1.49-2.68 2.21-3.97.48-.04 1.01-.14 1.49-.18v.6c-.48-.23-.96-.42-1.44-.6zM11.49 74.72c-1.69.47-3.37.93-5.06 1.39.34.6.68 1.24 1.01 1.84 1.3-1.15 2.6-2.26 3.9-3.36.58-.1 1.11-.14 1.68-.23-.09-.19-.19-.33-.28-.51-.44.28-.82.55-1.25.87zm100.26 102.82c2.31-.65 4.62-1.43 6.98-1.94 4.47-.96 9.09-1.61 11.54-6.59-9.09-2.02-16.11 1.39-18.42 8.62-6.98-4.65-11.26 1.57-16.36 4.47 5.39-1.52 10.82-3.04 16.26-4.56zm32.67 15.85c.24.65.48 1.34.67 1.99 6.84-2.49 13.67-5.03 20.5-7.52-.19-.6-.38-1.2-.62-1.79-7.94-.83-13.19 6.31-20.55 7.32zm-44.46-28.85c5.44-1.33 10.11-2.49 14.78-3.64-4.82-1.06-9.48-.83-14.15-.27-.38.04-.43 2.62-.63 3.91zM-.3 189.15c-2.74-.41-4.96-.73-7.31-1.1-.2 1.29-.63 3.64-1.11 6.73 3.03-2.03 5.63-3.74 8.42-5.63zm-6.74-87.47c.24.51.48.97.68 1.48 2.11-1.06 4.23-2.12 6.35-3.13-.25-.51-.48-.97-.73-1.48-2.11 1.06-4.18 2.07-6.3 3.13zm223.78 118.17c-.73.32-1.4.64-2.12.96.67 1.52 1.34 3.05 1.97 4.57.72-.33 1.49-.7 2.21-1.02-.62-1.52-1.34-2.99-2.06-4.51zM85.67 140.63c-.19-.6-.33-1.2-.52-1.8-1.59.51-3.13 1.01-4.72 1.52.19.65.43 1.24.63 1.89 1.54-.51 3.07-1.06 4.61-1.61zm-10.19 35.8c.04-.64.09-1.33.14-1.98-2.21.37-4.43.69-6.64 1.06.05.33.05.6.1.92zm146.84 25.86c-.63-.51-1.01-1.06-1.45-1.06-.53 0-1.06.37-1.63.6.43.5.81 1.2 1.39 1.52.24.14.92-.55 1.69-1.06zm-10.45 25.76c-.14-.55-.28-.92-.38-1.25-.48.24-1.15.37-1.39.79-.15.27.24.92.43 1.38.43-.32.91-.64 1.34-.92zM66.43 130.39c2.36.6 2.93.88 3.03.74.34-.41.48-.97.72-1.43-.67.14-1.3.24-3.75.69zm19.44 23.83c-.2-.37-.29-.87-.58-1.01s-.72.18-1.11.27c.24.42.44.88.77 1.25.05.04.58-.32.92-.51zm-73.86-37.79c-.04-.14-.14-.37-.14-.37-.34.09-.67.19-.96.28.05.14.09.32.19.46.29-.14.58-.28.91-.37zm26.9-4.24c.58.37.86.56 1.2.78.19-.36.43-.73.63-1.1-.53.09-1.06.18-1.83.32zM4.85 185.24c-.29.27-.58.5-.82.78.34.32.62.6.96.92.19-.32.48-.64.53-1.01-.05-.19-.43-.46-.67-.69zm79.77 0c-.29-.14-.53-.37-.87-.46-.1-.05-.38.27-.38.32.14.23.33.46.53.69.23-.18.48-.37.72-.55zm52.68-5.35c-.14-.05-.34-.14-.48-.18-.05.23-.05.5-.1.73.2 0 .39.05.48-.04.1-.09.05-.33.1-.51zm20.54 21.94c-.28-.23-.57-.56-.81-.56-.34 0-.63.33-.97.46.29.19.58.56.87.6.29 0 .58-.32.91-.5zm77.95-3.92c-.1-.18-.24-.46-.29-.46-.34.09-.68.23-1.01.32.09.14.24.46.33.42.39-.05.68-.19.97-.28zM33.23 64.35c.29-.13.58-.27.87-.41-.1-.14-.29-.41-.34-.37-.34.09-.62.28-.91.42.14.09.24.23.38.36zm9.67 45.54c-.09-.14-.24-.37-.33-.37-.15 0-.29.18-.39.32.1.14.24.37.34.37.09 0 .24-.23.38-.32zM20.96 96.75l-.19.37h.39zm87.71 127.93c-.14-.13-.29-.36-.38-.36-.29.04-.53.23-.77.32.14.14.29.37.38.37.24-.05.48-.19.77-.33zM36.46 121.09c-.15-.1-.29-.14-.44-.24v.88c.15-.05.34-.09.44-.23.04-.09 0-.28 0-.41zm-3.66 1.43c-.15-.14-.34-.42-.48-.42-.15 0-.39.28-.39.42 0 .13.24.41.39.41.14 0 .29-.23.48-.41zm-35.41 62.81c-.1-.14-.19-.37-.34-.37-.09 0-.24.18-.38.28.09.13.19.37.33.37.1.04.24-.19.39-.28zm87.27-16.64c-.14-.14-.24-.41-.38-.46-.15 0-.34.23-.48.37.14.14.24.41.38.46.15 0 .34-.23.48-.37z" fill="#bb9a3b" fill-rule="nonzero"/></g><path d="M8.82 3.52c-1.23 0-2.36.66-2.94 1.7-.57 1.04-.5 2.3.19 3.28l65.52 92.33c.62.88 1.65 1.4 2.75 1.4h59.76c1.09 0 2.1-.51 2.72-1.36l67.29-92.34c.71-.97.8-2.24.23-3.29-.58-1.06-1.71-1.72-2.95-1.72h-61.68c-1.11 0-2.14.53-2.76 1.42l-33.09 47.38-32.2-47.35c-.61-.9-1.66-1.45-2.78-1.45H8.82zm96.4 116.35c-29.97 0-54.26 23.36-54.26 52.16 0 28.79 24.29 52.15 54.26 52.15s54.26-23.36 54.26-52.15c0-28.8-24.29-52.16-54.26-52.16z" fill="none"/><g fill-rule="nonzero"><path d="M118.5 214.47c13.11 0 24.98-5.1 33.55-13.35 8.59-8.26 13.9-19.67 13.9-32.28s-5.31-24.02-13.9-32.28c-8.57-8.24-20.44-13.35-33.55-13.35s-24.97 5.11-33.55 13.35c-8.59 8.26-13.9 19.67-13.9 32.28s5.31 24.02 13.9 32.28c8.58 8.25 20.44 13.35 33.55 13.35zm38.48-8.65c-9.85 9.47-23.46 15.33-38.48 15.33s-28.63-5.86-38.48-15.33-15.94-22.54-15.94-36.98c0-14.43 6.09-27.51 15.94-36.98s23.46-15.33 38.48-15.33 28.63 5.86 38.48 15.33 15.95 22.55 15.95 36.98c0 14.44-6.1 27.51-15.95 36.98z" fill="#034"/><path d="M86.78 166.39h62.05v6.69H86.78z" fill="#034"/><path d="M114.32 199.56V139.9h6.97v59.66zM144.95 99.2H87.62c-1.28 0-2.4-.66-3.01-1.65L19.22 5.4c-1.08-1.52-.67-3.6.92-4.63.6-.4 1.28-.58 1.96-.58L82.16.18c1.32 0 2.47.71 3.06 1.75l62.64 92.11c1.05 1.55.59 3.61-1.02 4.62-.58.36-1.24.53-1.89.54zm-55.5-6.68h49.07L80.28 6.87h-51.6z" fill="#034"/><path d="M88.5 95.86h58.88l67.29-92.34h-61.68z" fill="#fff"/><path d="M95.02 92.52h50.56L208 6.87h-53.16zm52.36 6.68H88.5c-.66-.01-1.34-.19-1.93-.57-1.6-1.02-2.02-3.1-.95-4.62L149.94 1.9c.6-1.03 1.74-1.72 3.05-1.72h61.68v.01c.69 0 1.38.2 1.99.6 1.57 1.06 1.96 3.13.86 4.64l-67.11 92.08c-.6 1.01-1.73 1.69-3.03 1.69z" fill="#034"/></g></svg>