<svg clip-rule="evenodd" fill-rule="evenodd" height="224" image-rendering="optimizeQuality" shape-rendering="geometricPrecision" text-rendering="geometricPrecision" width="224" xmlns="http://www.w3.org/2000/svg"><clipPath id="a" clip-rule="nonzero"><path d="M139.08 224.18H68.62c-17.61 0-32.59-13.21-34.79-30.39L20.18 92.07l83.67-70.46 83.67 70.46-13.65 101.72c-2.2 17.18-17.18 30.39-34.79 30.39z"/></clipPath><clipPath id="b" clip-rule="nonzero"><path d="M139.08 224.18H68.62c-17.61 0-32.59-13.21-34.79-30.39L20.18 92.07l83.67-70.46 83.67 70.46-13.65 101.72c-2.2 17.18-17.18 30.39-34.79 30.39z"/></clipPath><g clip-path="url(#a)"><path d="M20.18 21.61h167.34v202.57H20.18z" fill="none"/></g><g clip-path="url(#b)"><path d="M101.71 125.49l-.15-.49.44.05zm-14.59-21.53c-.1-.04-.25-.04-.34-.09.04.09.09.19.14.29 0-.15.05-.24.05-.39zm28.74-21.57c-.15-.15-.39-.34-.34-.49 0-.15.29-.29.44-.44.15.15.39.34.34.49 0 .15-.29.29-.44.44zm-27.62 52.29c-.29.15-.59.34-.93.44-.05 0-.24-.29-.34-.44.34-.15.63-.34.98-.49.05 0 .19.3.29.49zm98.44.15c-.34.14-.68.29-1.03.34-.09 0-.24-.29-.39-.44.34-.15.69-.29 1.03-.34.1-.05.24.24.39.44zm-11.41 1.57c-.1-.1-.24-.25-.34-.35.14-.05.29-.19.44-.19.15.04.25.19.34.34-.14.05-.29.15-.44.2zm-5.44 5.13c-.34.15-.68.29-1.08.34-.09 0-.24-.29-.39-.44.34-.14.69-.29 1.03-.34.15-.05.29.25.44.44zm-86.14 10.91c-.2.1-.35.24-.49.2-.15 0-.3-.2-.45-.3.15-.1.35-.24.49-.19.15 0 .3.19.45.29zM36.03 91.49c-.24.24-.49.54-.78.64-.1.04-.39-.4-.49-.64-.05-.05.24-.39.29-.39.34.05.64.19.98.39zm72.24 6.7c-.2.15-.34.44-.49.44-.34-.1-.69-.34-1.03-.49.15-.15.34-.44.44-.44.39.1.74.29 1.08.49zm-39.53 2.74l.55-.15-.1.4zm33.36 10.22c-.1.15-.24.35-.34.49-.1-.19-.25-.39-.2-.58 0-.2.2-.35.35-.49.04.19.14.39.19.58zm-17.14 8.61c0-.59-.05-1.17-.05-1.81.15 0 .34.05.49.05-.2.49-.44 1.03-.64 1.52.05.05.2.24.2.24zm44.96-1.03c-.2.05-.34.15-.54.2-.05-.24-.1-.49-.14-.73.19.05.39 0 .53.09.15.05.1.3.15.44zm-25.13 2.4l.45-.1-.05.35zm-9.75 4.01c.98-.1 1.91-.14 2.89-.24v.68c-.98-.14-1.96-.29-2.89-.44zm12.01 7.39l.1.54-.34-.1zm68.22.69c-.15.05-.34.15-.34.1-.1-.15-.1-.35-.15-.49.2-.05.39-.1.59-.1-.05.1-.05.29-.1.49zm-54.16-.05c.29 0 .63.04.93.04-.3.05-.54.05-.84.1 0 .05-.09-.14-.09-.14zM82.07 147.5c.34.15.63.24.93.39-.15.34-.2.93-.44.98-.3.1-.69-.24-1.03-.34.2-.39.34-.69.54-1.03zm3.23-2.1c-.2-.35-.34-.64-.54-.98.44-.25.88-.49 1.32-.69.1.34.4.83.25 1.03-.2.29-.69.39-1.03.64zm69.94-1.76c.83 0 1.71 0 2.55.04l.04-.14h-2.79zm10.39-1.18c-.05-.73-.15-1.47-.2-2.2.44.05.93.05 1.37.1l-.44 2.15c-.2-.05-.44-.05-.73-.05zm-1.68-5.09c-.14.35-.29.69-.39 1.08-.29-.2-.73-.34-.83-.64-.1-.24.24-.63.34-.98.3.15.59.35.88.54zm-70.18-1.61c-.14.34-.29.68-.44 1.03-.34-.15-.88-.25-.93-.49-.1-.35.2-.74.35-1.13.34.25.68.44 1.02.59zm25.77-14.38c-.39.14-.74.39-1.03.29-.2-.05-.25-.64-.39-.98.29-.1.68-.44.88-.34.24.24.34.68.54 1.03zm-24.83-10.32v-.49c.24.09.49.19.73.24-.1.15-.14.4-.29.4-.1.04-.3-.1-.44-.15zM83.54 99.41c-.3.25-.54.49-.83.74-.2-.35-.44-.64-.59-.98-.05-.1.34-.44.39-.44.34.19.69.44 1.03.68zm3.28 23.78c.49-.79 1.03-1.57 1.52-2.35.24.29.49.59.78.88-.83.44-1.66.88-2.5 1.37 0-.05.2.1.2.1zm5.78-4.9c-.84.44-1.32.69-1.81.93-.25-.49-.59-.97-.64-1.51 0-.2.69-.74.93-.69.49.2.83.69 1.52 1.27zm8.76-4.84c.44.73.98 1.22.93 1.62-.09.39-.88.97-1.17.88-.44-.2-.88-.84-.98-1.32-.05-.2.69-.64 1.22-1.18zm13.72-4.2c.25-.69.44-1.38.69-2.06.44.59.93 1.17 1.37 1.81-.74.05-1.47.05-2.25.1 0-.1.19.15.19.15zM99.51 99.07c-.3.2-.59.44-.88.64-.2-.44-.45-.88-.64-1.33.34-.14.78-.44 1.03-.34.24.05.34.64.49 1.03zm64.83 35.12c-.14.34-.24.83-.49.93-.24.1-.63-.19-.98-.29.15-.34.2-.88.49-1.03.2-.1.69.25.98.39zm-53.58-28.56c-2.15-1.33-2.98-1.86-3.86-2.35.73-.25 1.51-.59 2.25-.59.29 0 .54.93 1.61 2.94zm70.87 26.8c-.58-.68-.93-1.17-1.32-1.61.44-.25.93-.59 1.37-.64.3-.05.88.54.84.69-.1.49-.45.93-.89 1.56zm-6.27 8.86c-1.12-.15-2.2-.3-4.75-.64 2.16-1.13 3.24-1.66 4.31-2.25.1 1.03.2 2.01.3 3.03.05.05.14-.14.14-.14zM73.4 101.12c1.03.25 2.06.49 3.14.74-.05.39-.1.78-.15 1.22-1.08-.1-2.11-.14-3.19-.24.05-.59.1-1.13.2-1.72zm53.43 22.56c-1.32-.39-2.6-.84-3.92-1.23.1-.58.25-1.17.35-1.71 1.37.2 2.69.44 4.06.64-.15.78-.29 1.56-.49 2.3zm-23.55-8.96c.93-1.71 1.91-3.47 2.84-5.18.59.34 1.17.63 1.76.98-.78 1.86-1.61 3.66-2.4 5.52-.78-.49-1.47-.93-2.2-1.32zm11.6-5.72c-.53 6.26-1.51 7.34-6.51 5.72 2.5-2.05 4.6-3.81 6.71-5.52zm-19.83 16.14v6.61c-4.17-3.28-4.17-3.28 0-6.61zm-79.59-21.67c4.66-3.23 9.31-6.45 13.96-9.68.4.58.84 1.12 1.23 1.71-4.51 3.47-9.01 6.95-13.52 10.42-.54-.83-1.08-1.62-1.67-2.45zm54.42 41.14c2.69-2.25 5.63-4.74 9.35-7.87 1.08 2.15 2.4 4.25 2.99 6.6.1.49-2.6 1.76-5.05 3.33-1.27-.34-4.21-1.18-7.29-2.06zm51.32-11.25c-2.5 1.03-5 2.05-7.54 3.03-1.42-3.91 4.21-10.61 11.11-12.03-1.47 3.47-2.59 6.11-3.67 8.76zm1.22-5.09l.2-.34-.34-.05zm-132.2 11.32c.36-.34.72-.67 1.09-.99.44-.4 1.18-.4 1.81-.49.59-.1 1.18 0 2.65 0l-5.55 6.54zm0 9.85c10.06-6.3 19.2-14.93 31.61-15.54-.3 4.26-.54 7.73-.79 11.15-.39.74-.78 1.52-1.18 2.25-1.9-3.37-4.21-4.5-7.39-1.66-.1.88-.2 1.71-.29 2.59-.64-.05-1.33-.1-1.96-.14 0 .19 0 .39-.05.63.63-.19 1.22-.39 1.86-.63l.44-2.45c2.69-.39 4.31 4.5 7.49 1.71.35-.78.64-1.61.98-2.4 2.79-.34 5.59-.68 8.52-1.02-2.44 5.28-2.44 5.28 8.33 4.6.83-1.72 1.57-3.23 2.35-4.8l-.19-.14h2.79l-.05.14c1.71-.68 3.48-1.32 5.19-2 .34.29.69.63.98.93-2.74 2.34-5.49 4.74-8.28 7.09-1.66 1.27-3.38 2.59-4.94 3.81 1.56 1.03 3.42 2.3 5.33 3.58 0 .04-.04.09-.09.19.09-.1.14-.19.24-.29.98-.1 1.96-.15 2.64-.25-1.12-2.44-2.2-4.74-3.23-6.99 3.68 1.32 7.3 2.69 11.66 4.25v-6.11c1.22.1 2.5.19 3.82.29-.39-.39-.83-.83-1.23-1.22l.05.05c2.84-1.08 5.73-2.15 9.36-3.52-1.86-.98-2.89-1.52-3.97-2.06l-.1.15c5.15-2.79 10.24-5.77 15.53-8.27 1.57-.73 3.67-.19 5.48-.29l-.14-.25c.93.54 1.86 1.03 2.84 1.57l-.25-.25c.49.54.98 1.03 1.47 1.57l-.15-.2c5.74 3.82 9.9-.78 14.3-3.13 8.48-4.45 16.75-9.29 25.18-13.89.78-.44 1.91-.24 5.14-.59-3.53 4.6-5.93 7.63-8.27 10.72.14.44.29.88.44 1.32 3.18-1.03 6.31-2.06 9.5-3.04 3.72-1.12 7.39-2.34 11.16-3.22.79-.2 2.65.97 2.6 1.17-.29 1.37-.64 3.08-1.57 3.82-6.51 4.94-13.17 9.63-19.79 14.52-2.15 1.57-4.11 3.38-5.43 4.45 4.85-.43 10.14-.73 15.38-1.36 2.45-.3 4.85-1.18 7.25-1.81 2.15-.54 4.31-1.03 6.46-1.52.54.64 1.08 1.32 1.57 1.96-1.72 2.25-2.99 5.13-5.19 6.6-4.61 3.08-9.75 5.23-14.5 8.12-8.33 5.14-16.55 10.47-24.73 15.9-1.18.78-1.86 2.3-3.33 4.25 4.65-1.85 8.37-3.37 12.14-4.89l-.1-.14c.94 1.17 1.87 2.39 3.04 3.91.54-1.47.98-2.74 1.42-4.06.69.68 1.37 1.32 2.06 2-1.42 1.77-2.89 3.48-4.7 5.68.34.68 1.02 2.25 1.76 3.77-.49-.15-.98-.25-1.52-.39-.98 2.59-1.91 5.18-2.89 7.77l.05-.1c-.73.45-1.47.93-2.2 1.37.68.79 1.42 1.62 2.1 2.4l.05.1c2.65-.1 5.34-.2 7.98-.25-.19 2.06-.39 4.11-.68 7.54 1.76-2.25 2.89-3.67 4.6-5.82v8.46c6.66-.39 13.32-.78 19.98-1.12l-.14.14h27.28c-.05.49-.05.98-.1 1.47-6.27 1.91-12.54 3.86-18.81 5.77-1.66.05-3.33.1-4.94.15-.4.39-.79.78-.25.29-.19.64-.05.1.15-.49h5.04c-.63 1.18-1.27 2.35-1.91 3.52l-.14-.19c1.47-.15 2.98-.2 4.45-.39 5-.59 10.04-1.57 13.03 3.72-2.06 1.27-4.75 2.39-6.56 4.4-.69.73.68 3.52.83 4.11 6.17 1.17 11.41 2.15 16.65 3.18l-.15-.15.44 1.46H-9.78v-83.56zm99.34 48.3c-.1-.59-.2-1.13-.35-1.72.69-.09 1.38-.14 2.06-.24.34-.1.69-.24 1.03-.34-.34.15-.69.29-1.03.44-.59.68-1.17 1.42-1.76 2.05.1.1.19.15.34.25-.15-.15-.19-.29-.29-.44zm20.81-8.46l-.24.19s.09-.39.14-.34c.35.1.69.19 1.03.24v-.78c-.29.24-.63.49-.93.69zm-83.16-29.26c-.49 1.08-.98 2.11-1.47 3.18.49.15.93.25 1.42.39v-3.62c.44-.63.88-1.27 1.37-1.91.64.35 1.28.69 1.86 1.03 1.77.1 3.58.2 5.34.25-.05-.59-.09-1.18-.14-1.76-1.77.53-3.53 1.02-5.29 1.51.05-.68.14-1.37.19-2.05-.68.39-1.37.78-2.05 1.17-.35.59-.79 1.18-1.23 1.81zm47.41-2.98l-5.14 1.47c.34.63.68 1.32 1.03 1.95 1.32-1.22 2.64-2.4 3.96-3.57.59-.1 1.13-.15 1.72-.24-.1-.2-.2-.35-.3-.54-.44.29-.83.59-1.27.93zm-18.85 28.62c.24.53.48 1.02.68 1.56 2.15-1.13 4.31-2.25 6.46-3.33-.24-.53-.48-1.02-.73-1.56-2.15 1.12-4.26 2.2-6.41 3.33zm94.37 41.33c-.2-.64-.34-1.27-.54-1.91-1.61.54-3.18 1.08-4.8 1.62.2.68.44 1.32.64 2 1.57-.54 3.13-1.12 4.7-1.71zM18.59 165.7c.05.53.05 1.07.1 1.61.78-.24 1.62-.44 2.4-.73.05 0-.05-.83-.15-.83-.78-.1-1.56-.05-2.35-.05zM7.87 149.85c-.3-.3-.54-.59-.84-.88-.63.58-1.22 1.22-1.86 1.81.2.24.39.48.59.73.69-.54 1.42-1.13 2.11-1.66zm122.68 66.28c2.4.64 2.99.93 3.09.78.34-.44.48-1.02.73-1.51-.69.14-1.32.24-3.82.73zM-3.94 160.02c-.19-.44-.39-.88-.58-1.27-.74.54-1.52 1.08-2.26 1.61.15.25.3.54.4.79.83-.4 1.66-.79 2.44-1.13zm79.1 41.29c-.05-.15-.15-.39-.15-.39-.34.1-.68.19-.98.29.05.15.1.34.2.49.29-.15.59-.29.93-.39zm27.38-4.5c.58.39.88.59 1.22.83.2-.39.44-.78.64-1.17-.54.09-1.08.19-1.86.34zm-5.78-50.78c.29-.15.59-.29.88-.44-.1-.15-.29-.44-.34-.39-.35.1-.64.29-.93.44.14.1.24.24.39.39zm9.84 48.33c-.1-.15-.24-.39-.34-.39-.15 0-.3.2-.39.34.09.15.24.39.34.39s.24-.24.39-.34zm-22.33-13.94l-.2.39h.39zm15.77 25.83c-.15-.1-.3-.15-.44-.24v.92c.14-.04.34-.09.44-.24.05-.1 0-.29 0-.44zm-3.72 1.52c-.15-.15-.35-.44-.49-.44-.15 0-.39.29-.39.44 0 .14.24.44.39.44.14 0 .29-.25.49-.44z" fill="#bb9a3b" fill-rule="nonzero"/></g><path d="M139.08 224.18H68.62c-17.61 0-32.59-13.21-34.79-30.39L20.18 92.07l83.67-70.46 83.67 70.46-13.65 101.72c-2.2 17.18-17.18 30.39-34.79 30.39z" fill="none"/><g fill="#034752" fill-rule="nonzero"><path d="M150.68 212.15H80.22c-9.79 0-18.87-3.67-25.81-9.74-6.96-6.07-11.77-14.57-13.01-24.19L27.45 74.29l88-74.11 88.01 74.11-13.95 103.93c-1.24 9.62-6.05 18.12-13.01 24.19-6.94 6.07-16.02 9.74-25.82 9.74zm-70.46-8.17h70.46c7.78 0 14.97-2.9 20.46-7.7 5.52-4.82 9.32-11.53 10.29-19.11l13.36-99.55-79.34-66.81-79.33 66.81 13.35 99.55c.97 7.58 4.78 14.29 10.3 19.11 5.49 4.8 12.68 7.7 20.45 7.7z"/><path d="M136.59 210.39H93.88c-4.53 0-4.53-4.51-4.53-4.53v-51.52c0-7.29 2.99-13.93 7.8-18.74 4.82-4.81 11.45-7.8 18.75-7.8 7.07 0 13.48 2.88 18.13 7.53 4.65 4.66 7.53 11.07 7.53 18.13v56.93zm-39.07-8.17h35.87v-48.76c0-4.83-1.96-9.2-5.12-12.36h-.01a17.447 17.447 0 00-12.36-5.13c-5.04 0-9.64 2.07-12.97 5.41-3.33 3.33-5.41 7.92-5.41 12.96z"/></g></svg>