<svg data-name="Layer 1" xmlns="http://www.w3.org/2000/svg" viewBox="0 0 126.386 30.249"><path data-name="logoMark &lt;PathItem&gt;" d="M24.969 25.753a1.963 1.963 0 10-1.955-1.963 1.958 1.958 0 001.955 1.963zM15.803 25.575a2.424 2.424 0 00-1.99 2.819 2.456 2.456 0 003.092 1.498 2.424 2.424 0 001.99-2.819 2.44 2.44 0 00-3.092-1.498zM7.274 26.86a3.048 3.048 0 003.234-2.819 3.048 3.048 0 00-3.234-2.82 3.048 3.048 0 00-3.234 2.82 3.048 3.048 0 003.234 2.819zM7.664 16.724c1.066-1.677.32-4.032-1.67-5.316-1.99-1.25-4.442-.928-5.508.713-1.066 1.677-.32 4.032 1.67 5.317s4.442.964 5.508-.713zM11.855.096C9.83-.439 7.591 1.31 6.845 4.057s.284 5.424 2.31 5.96 4.264-1.214 5.01-3.961c.782-2.748-.284-5.425-2.31-5.96zM23.84 9.175c2.83-1.92 4.155-4.918 2.958-6.698s-4.461-1.668-7.292.25-4.154 4.917-2.957 6.697 4.462 1.67 7.292-.25zM27.635 18.545c3.768 0 6.823-1.502 6.823-3.354s-3.055-3.354-6.823-3.354-6.823 1.501-6.823 3.354 3.054 3.354 6.823 3.354z"/><path d="M114.981 22.043a4.502 4.502 0 01-2.63.785 5.432 5.432 0 01-2.274-.5 6.589 6.589 0 01-1.777-1.32 6.858 6.858 0 01-1.208-1.892 7.051 7.051 0 01-.57-2.176h11.266a8.338 8.338 0 00-.427-3.248 5.79 5.79 0 00-.603-1.249 3.904 3.904 0 00-.854-1.034 6.123 6.123 0 00-4.513-1.713 6.702 6.702 0 00-2.807.57 6.883 6.883 0 00-3.767 3.962 8.372 8.372 0 00-.568 3.033 9.431 9.431 0 00.461 3.069 6.928 6.928 0 001.387 2.39 6.183 6.183 0 002.274 1.57 7.478 7.478 0 003.02.571 6.697 6.697 0 004.016-1.141 7.607 7.607 0 002.417-2.962l-1.244-.714a4.822 4.822 0 01-1.599 1.999zm-7.854-8.529a4.12 4.12 0 01.996-1.284 3.934 3.934 0 012.7-1.035 4.27 4.27 0 011.848.357 4.217 4.217 0 011.35.963 3.911 3.911 0 01.817 1.32 4.476 4.476 0 01.285 1.499h-8.529a4.944 4.944 0 01.534-1.82z"/><path data-name="fullLogo" d="M54.498 11.73a7.08 7.08 0 00-2.31-1.535 8.278 8.278 0 00-3.02-.571 7.032 7.032 0 00-2.879.57 6.747 6.747 0 00-2.274 1.535 6.592 6.592 0 00-1.457 2.355 8.308 8.308 0 00-.533 2.998 8.56 8.56 0 00.533 3.069 7.077 7.077 0 001.457 2.39 6.35 6.35 0 002.239 1.57 7.031 7.031 0 002.878.571 7.535 7.535 0 003.056-.57 6.492 6.492 0 002.275-1.57 6.746 6.746 0 001.457-2.391 8.559 8.559 0 00.497-3.07 8.831 8.831 0 00-.497-2.997 6.524 6.524 0 00-1.422-2.355zm-.96 7.636a5.229 5.229 0 01-.852 1.855 4.225 4.225 0 01-1.457 1.285 4.476 4.476 0 01-2.132.464 4.05 4.05 0 01-2.026-.464 4.265 4.265 0 01-1.386-1.25 5.838 5.838 0 01-.781-1.855 9.276 9.276 0 01-.25-2.248 9.276 9.276 0 01.25-2.248 6.087 6.087 0 01.817-1.891 4.212 4.212 0 011.421-1.32 4.058 4.058 0 012.026-.5 4.198 4.198 0 012.061.5 4.291 4.291 0 011.457 1.32 5.406 5.406 0 01.853 1.891 9.272 9.272 0 01.284 2.248 7.718 7.718 0 01-.284 2.213zM71.19 21.186v-5.282a12.138 12.138 0 00-.213-2.284 5.869 5.869 0 00-.782-1.998 4.113 4.113 0 00-1.492-1.427 4.753 4.753 0 00-2.346-.535 6.178 6.178 0 00-3.02.857 8.54 8.54 0 00-2.808 2.926l-.71-3.747-3.412.75v.82a2.079 2.079 0 011.563.678 3.414 3.414 0 01.498 2.034v7.172a2.013 2.013 0 01-.533 1.641 2.132 2.132 0 01-1.386.393v1.035h6.183v-1.035a2.494 2.494 0 01-1.35-.393c-.39-.25-.568-.82-.568-1.641v-4.782a4.893 4.893 0 01.604-1.962 5.203 5.203 0 011.137-1.463 5.378 5.378 0 011.386-.893 4.372 4.372 0 011.421-.285 3.65 3.65 0 012.452.892q1.066.91 1.066 3.533v4.996c0 .856-.177 1.427-.533 1.677a2.361 2.361 0 01-1.386.392v1.035h6.148v-1.035a2.314 2.314 0 01-1.35-.357 2.021 2.021 0 01-.569-1.712zM105.366 10.088h-5.864v1.106a1.812 1.812 0 011.635.642 2.086 2.086 0 01.036 1.749l-3.092 8.742-3.34-8.492a2.597 2.597 0 01-.249-2.034c.213-.429.675-.607 1.386-.607v-1.07h-6.326v1.106a2.193 2.193 0 011.635.607 6.687 6.687 0 011.101 1.855l4.23 10.598h2.487l3.731-10.527a5.212 5.212 0 011.066-1.998 2.408 2.408 0 011.564-.535zM125.603 21.721a2.978 2.978 0 01-.71.82 2.042 2.042 0 01-1.457.536 1.234 1.234 0 01-1.35-.963 9.33 9.33 0 01-.213-1.999v-8.314h4.477v-1.713h-4.443v-4.21l-1.35-.18-1.03 3.997-1.918.786.177.999.604.035a1.545 1.545 0 01.888.286 1.312 1.312 0 01.285.928v8.457a3.703 3.703 0 00.853 2.533 3.101 3.101 0 002.452.964 4.143 4.143 0 002.274-.571 4.392 4.392 0 001.244-1.07zM83.624 21.97a4.5 4.5 0 01-2.63.786 5.434 5.434 0 01-2.275-.5 6.604 6.604 0 01-1.777-1.32 6.878 6.878 0 01-1.208-1.892 7.048 7.048 0 01-.568-2.177H86.43a8.35 8.35 0 00-.426-3.247 5.782 5.782 0 00-.604-1.249 3.898 3.898 0 00-.853-1.035 6.125 6.125 0 00-4.514-1.713 6.701 6.701 0 00-2.807.571 6.88 6.88 0 00-3.767 3.962 8.372 8.372 0 00-.569 3.033 9.417 9.417 0 00.462 3.069 6.924 6.924 0 001.387 2.39 6.183 6.183 0 002.274 1.57 7.476 7.476 0 003.02.571 6.694 6.694 0 004.016-1.141 7.609 7.609 0 002.417-2.962l-1.244-.714a4.822 4.822 0 01-1.6 1.998zm-7.854-8.492a4.122 4.122 0 01.995-1.285 3.932 3.932 0 012.7-1.035 4.276 4.276 0 011.849.357 4.22 4.22 0 011.35.964 3.913 3.913 0 01.817 1.32 4.474 4.474 0 01.284 1.498h-8.528a4.746 4.746 0 01.533-1.82z"/></svg>